<?xml version="1.0" encoding="UTF-8" standalone="no"?>
<!DOCTYPE svg PUBLIC "-//W3C//DTD SVG 1.1//EN" "http://www.w3.org/Graphics/SVG/1.1/DTD/svg11.dtd">
<svg width="100%" height="100%" viewBox="0 0 269 320" version="1.1" xmlns="http://www.w3.org/2000/svg" xmlns:xlink="http://www.w3.org/1999/xlink" xml:space="preserve" xmlns:serif="http://www.serif.com/" style="fill-rule:evenodd;clip-rule:evenodd;">
    <g transform="matrix(1,0,0,1,-115.543,-90.2197)">
        <g id="FONDO">
            <g>
                <clipPath id="_clip1">
                    <path d="M210.813,388.047C222.88,392.151 236.599,394.844 250.063,394.844C263.526,394.844 276.484,392.536 288.422,388.432C288.677,388.302 288.932,388.302 289.188,388.177C334.026,371.76 367.052,328.417 367.688,277.766L367.688,105.156L132.313,105.156L132.313,277.635C132.948,328.672 165.469,372.016 210.813,388.047Z"/>
                </clipPath>
                <g clip-path="url(#_clip1)">
                    <rect id="RECTANGULO-NEGRO" serif:id="RECTANGULO NEGRO" x="132.313" y="105.156" width="235.375" height="289.615" style="fill-rule:nonzero;"/>
                </g>
            </g>
        </g>
        <g id="BORDE">
            <g>
                <clipPath id="_clip2">
                    <path d="M213.464,378.703C224.714,382.526 237.505,385.036 250.057,385.036C262.609,385.036 274.693,382.885 285.823,379.057C286.057,378.943 286.297,378.943 286.531,378.823C328.333,363.516 359.125,323.109 359.719,275.885L359.719,114.958L140.281,114.958L140.281,275.766C140.87,323.349 171.188,363.755 213.464,378.703Z"/>
                </clipPath>
                <g clip-path="url(#_clip2)">
                    <g id="LINEA-VERDE" serif:id="LINEA VERDE" transform="matrix(0.75,0,0,0.75,140.28,114.961)">
                        <path d="M97.578,351.656C112.578,356.754 129.633,360.101 146.369,360.101C163.106,360.101 179.217,357.233 194.057,352.129C194.369,351.976 194.689,351.976 195.001,351.816C250.737,331.406 291.793,277.531 292.585,214.566L292.585,-0.003L0.001,-0.003L0.001,214.406C0.786,277.851 41.21,331.726 97.578,351.656Z" style="fill:none;fill-rule:nonzero;stroke:rgb(55,255,139);stroke-width:16px;"/>
                    </g>
                </g>
            </g>
        </g>
        <g id="FS" transform="matrix(1.282,0,0,1.4252,-76.552,-172.843)">
            <g id="SIM" transform="matrix(4.16545,0,0,4.07332,171.212,341)">
                <path d="M7.813,-27L7.813,-17.604L22.854,-17.604L22.854,-13.937L7.813,-13.937L7.813,0L7.812,0C6.713,0 5.658,-0.402 4.881,-1.117C4.103,-1.832 3.667,-2.802 3.667,-3.813L3.667,-29.405C3.667,-29.745 3.814,-30.071 4.075,-30.312C4.337,-30.552 4.691,-30.687 5.061,-30.687C9.789,-30.687 24.917,-30.687 24.917,-30.687L24.917,-27L7.813,-27Z" style="fill:rgb(55,255,139);fill-rule:nonzero;"/>
            </g>
            <g id="FUT" transform="matrix(3.72574,0,0,3.86847,224.223,337.857)">
                <path d="M24.943,-25.506C25.272,-24.622 25.093,-23.655 24.461,-22.904C23.83,-22.153 22.823,-21.709 21.75,-21.709C21.75,-21.708 21.75,-21.708 21.75,-21.708C21.667,-23.667 20.943,-25.193 19.583,-26.292C18.234,-27.385 16.572,-27.622 14.296,-27.622C12.072,-27.622 10.198,-27.469 8.979,-26.542C7.755,-25.625 7.146,-24.297 7.146,-22.562C7.146,-20.505 8.354,-19.208 10.771,-18.667L19.354,-16.708C24.115,-15.625 26.5,-12.844 26.5,-8.375C26.5,-5.359 25.375,-3.073 23.125,-1.521C20.875,0.031 17.837,1.33 14.296,1.33C10.306,1.33 7.396,-0.089 5.271,-1.896C3.985,-2.996 3.088,-4.409 2.58,-6.136C2.317,-7.043 2.552,-8.005 3.216,-8.742C3.88,-9.48 4.899,-9.911 5.979,-9.911C5.979,-9.917 5.979,-9.917 5.979,-9.917L5.979,-9.833C5.979,-7.609 6.74,-5.865 8.271,-4.604C9.797,-3.354 11.854,-2.729 14.438,-2.729C16.714,-2.729 18.625,-3.13 20.167,-3.937C21.708,-4.755 22.479,-6.089 22.479,-7.937C22.479,-9.146 22.214,-10.083 21.688,-10.75C21.156,-11.417 20.38,-11.937 19.354,-12.312C18.323,-12.698 12.807,-13.417 10.698,-13.906C8.531,-14.391 5.708,-16.193 4.667,-17.458C3.635,-18.719 3.125,-20.234 3.125,-22C3.125,-23.885 3.542,-25.542 4.375,-26.958C5.219,-28.385 6.427,-29.5 8,-30.292C9.583,-31.094 11.469,-31.5 13.667,-31.5C19.706,-31.5 23.465,-29.501 24.943,-25.506Z" style="fill:rgb(55,255,139);fill-rule:nonzero;"/>
            </g>
        </g>
        <g id="AÑO" transform="matrix(1,0,0,1,20.7462,150.191)">
            <g id="_2" serif:id="2" transform="matrix(1,0,0,1,191.514,206.934)">
                <path d="M7.813,-8.458C9.198,-10.234 10,-11.63 10.208,-12.646C10.26,-12.979 10.292,-13.292 10.292,-13.583C10.292,-14.26 10.031,-14.812 9.521,-15.229C9.005,-15.646 8.26,-15.854 7.292,-15.854C6.375,-15.854 5.427,-15.609 4.458,-15.125C3.568,-14.677 2.938,-14.177 2.563,-13.625L2.375,-13.583L2.479,-17.812C3.313,-18.354 4.469,-18.75 5.958,-19C6.417,-19.083 6.854,-19.125 7.271,-19.125C9.646,-19.125 11.417,-18.552 12.583,-17.417C13.583,-16.458 14.083,-15.187 14.083,-13.604C14.083,-12.505 13.74,-11.333 13.063,-10.083C12.479,-9.026 11.714,-7.885 10.771,-6.667L8,-3.25L12.563,-3.25C13.188,-3.25 13.672,-3.271 14.021,-3.312C14.38,-3.365 14.688,-3.49 14.938,-3.687L15.021,-3.646L14,0.208L12.458,0.125C9.792,-0.026 6.026,-0.031 1.167,0.104L7.813,-8.458Z" style="fill:white;fill-rule:nonzero;"/>
            </g>
            <g id="_0" serif:id="0" transform="matrix(1,0,0,1,209.819,206.934)">
                <path d="M1.5,-9.125C1.5,-10.542 1.708,-11.859 2.125,-13.083C2.542,-14.318 3.125,-15.385 3.875,-16.292C5.484,-18.177 7.521,-19.125 9.979,-19.125C12.339,-19.125 14.234,-18.234 15.667,-16.458C17.042,-14.719 17.729,-12.427 17.729,-9.583C17.729,-6.359 16.896,-3.854 15.229,-2.062C13.729,-0.448 11.802,0.354 9.458,0.354C7.193,0.354 5.302,-0.521 3.792,-2.271C2.26,-4.047 1.5,-6.333 1.5,-9.125ZM6.438,-4.646C6.854,-4.115 7.344,-3.698 7.917,-3.396C8.484,-3.104 9.068,-2.958 9.667,-2.958C10.26,-2.958 10.818,-3.089 11.333,-3.354C11.859,-3.615 12.333,-4.01 12.75,-4.542C13.677,-5.75 14.146,-7.323 14.146,-9.271C14.146,-11.271 13.75,-12.865 12.958,-14.062C12.151,-15.229 11.068,-15.812 9.708,-15.812C8.333,-15.812 7.219,-15.198 6.375,-13.979C5.51,-12.74 5.083,-11.151 5.083,-9.208C5.083,-7.333 5.531,-5.812 6.438,-4.646Z" style="fill:white;fill-rule:nonzero;"/>
            </g>
            <g id="_21" serif:id="2" transform="matrix(1,0,0,1,230.897,206.934)">
                <path d="M7.813,-8.458C9.198,-10.234 10,-11.63 10.208,-12.646C10.26,-12.979 10.292,-13.292 10.292,-13.583C10.292,-14.26 10.031,-14.812 9.521,-15.229C9.005,-15.646 8.26,-15.854 7.292,-15.854C6.375,-15.854 5.427,-15.609 4.458,-15.125C3.568,-14.677 2.938,-14.177 2.563,-13.625L2.375,-13.583L2.479,-17.812C3.313,-18.354 4.469,-18.75 5.958,-19C6.417,-19.083 6.854,-19.125 7.271,-19.125C9.646,-19.125 11.417,-18.552 12.583,-17.417C13.583,-16.458 14.083,-15.187 14.083,-13.604C14.083,-12.505 13.74,-11.333 13.063,-10.083C12.479,-9.026 11.714,-7.885 10.771,-6.667L8,-3.25L12.563,-3.25C13.188,-3.25 13.672,-3.271 14.021,-3.312C14.38,-3.365 14.688,-3.49 14.938,-3.687L15.021,-3.646L14,0.208L12.458,0.125C9.792,-0.026 6.026,-0.031 1.167,0.104L7.813,-8.458Z" style="fill:white;fill-rule:nonzero;"/>
            </g>
            <g id="_4" serif:id="4" transform="matrix(1,0,0,1,249.202,206.934)">
                <path d="M13,-7.937C14.427,-7.937 15.615,-8.062 16.563,-8.312L16.625,-8.208L15.604,-4.937L13,-4.937L13,0L9.417,0L9.417,-4.937L0.729,-4.937L0.667,-5.979L8.458,-18.729L13,-18.771L13,-7.937ZM9.417,-7.937L9.417,-14.625L5.563,-7.937L9.417,-7.937Z" style="fill:white;fill-rule:nonzero;"/>
            </g>
        </g>
    </g>
</svg>
