<svg xmlns="http://www.w3.org/2000/svg" xmlns:xlink="http://www.w3.org/1999/xlink" width="500" zoomAndPan="magnify" viewBox="0 0 375 374.999991" height="500" preserveAspectRatio="xMidYMid meet" version="1.0"><defs><g/><clipPath id="67856442ea"><path d="M 99.234375 78.867188 L 275.765625 78.867188 L 275.765625 296.769531 L 99.234375 296.769531 Z M 99.234375 78.867188 " clip-rule="nonzero"/></clipPath><clipPath id="e071602839"><path d="M 158.109375 291.035156 C 167.160156 294.113281 177.449219 296.132812 187.546875 296.132812 C 197.644531 296.132812 207.363281 294.402344 216.316406 291.324219 C 216.507812 291.226562 216.699219 291.226562 216.890625 291.132812 C 250.519531 278.820312 275.289062 246.3125 275.765625 208.324219 L 275.765625 78.867188 L 99.234375 78.867188 L 99.234375 208.226562 C 99.710938 246.503906 124.101562 279.011719 158.109375 291.035156 Z M 158.109375 291.035156 " clip-rule="nonzero"/></clipPath><clipPath id="a8e82c8f16"><path d="M 105.210938 86.21875 L 269.460938 86.21875 L 269.460938 288.71875 L 105.210938 288.71875 Z M 105.210938 86.21875 " clip-rule="nonzero"/></clipPath><clipPath id="634190f0f7"><path d="M 160.097656 284.027344 C 168.535156 286.894531 178.128906 288.777344 187.542969 288.777344 C 196.957031 288.777344 206.019531 287.164062 214.367188 284.292969 C 214.542969 284.207031 214.722656 284.207031 214.898438 284.117188 C 246.25 272.636719 269.34375 242.332031 269.789062 206.914062 L 269.789062 86.21875 L 105.210938 86.21875 L 105.210938 206.824219 C 105.652344 242.511719 128.390625 272.816406 160.097656 284.027344 Z M 160.097656 284.027344 " clip-rule="nonzero"/></clipPath><clipPath id="1a7f928b80"><path d="M 156.296875 244.304688 L 224.484375 244.304688 L 224.484375 270.902344 L 156.296875 270.902344 Z M 156.296875 244.304688 " clip-rule="nonzero"/></clipPath><clipPath id="92f8be86fc"><path d="M 183 150.152344 L 186 150.152344 L 186 154 L 183 154 Z M 183 150.152344 " clip-rule="nonzero"/></clipPath><clipPath id="15fcc51f66"><path d="M 190 150.152344 L 193 150.152344 L 193 154 L 190 154 Z M 190 150.152344 " clip-rule="nonzero"/></clipPath><clipPath id="c09b970e3d"><path d="M 134.246094 192 L 141 192 L 141 197 L 134.246094 197 Z M 134.246094 192 " clip-rule="nonzero"/></clipPath><clipPath id="f5066f9d94"><path d="M 134.246094 202 L 140 202 L 140 205 L 134.246094 205 Z M 134.246094 202 " clip-rule="nonzero"/></clipPath><clipPath id="2925118a71"><path d="M 237.039062 203.789062 L 240.71875 203.789062 L 240.71875 206.929688 L 237.039062 206.929688 Z M 237.039062 203.789062 " clip-rule="nonzero"/></clipPath></defs><g clip-path="url(#67856442ea)"><g clip-path="url(#e071602839)"><path fill="#000000" d="M 99.234375 78.867188 L 275.765625 78.867188 L 275.765625 296.078125 L 99.234375 296.078125 Z M 99.234375 78.867188 " fill-opacity="1" fill-rule="nonzero"/></g></g><g clip-path="url(#a8e82c8f16)"><g clip-path="url(#634190f0f7)"><path stroke-linecap="butt" transform="matrix(0.75, 0, 0, 0.75, 105.21018, 86.220676)" fill="none" stroke-linejoin="miter" d="M 73.183302 263.742224 C 84.433302 267.565141 97.224969 270.075558 109.777052 270.075558 C 122.329135 270.075558 134.412469 267.924516 145.542677 264.096391 C 145.777052 263.981808 146.016635 263.981808 146.25101 263.862016 C 188.053094 248.554724 218.84476 208.148474 219.43851 160.924516 L 219.43851 -0.00256792 L 0.00101001 -0.00256792 L 0.00101001 160.804724 C 0.589552 208.388057 30.90726 248.794307 73.183302 263.742224 Z M 73.183302 263.742224 " stroke="#37ff8b" stroke-width="12" stroke-opacity="1" stroke-miterlimit="4"/></g></g><path fill="#37ff8b" d="M 223.171875 253.3125 C 220.800781 253.558594 218.332031 253.648438 218.039062 252.828125 C 217.214844 250.539062 214.328125 249.863281 214.632812 249.578125 C 214.75 249.464844 215.777344 249.523438 217.480469 249.832031 C 218.316406 249.984375 220.816406 250.792969 221.644531 250.96875 C 222.070312 251.058594 222.425781 251.207031 222.726562 251.359375 C 223.949219 251.984375 226.046875 252.175781 227.65625 252.5625 C 228.53125 252.773438 229.257812 253.261719 229.628906 253.382812 C 229.195312 252.863281 228.539062 252.679688 228.1875 252.542969 C 227.5625 252.304688 227.015625 252.070312 226.441406 251.96875 C 225.488281 251.804688 224.894531 251.75 224.199219 251.40625 C 222.519531 250.582031 221.582031 250.191406 219.953125 249.941406 C 220.023438 249.761719 222.878906 249.527344 224.097656 249.578125 C 225.375 249.628906 227.457031 249.949219 229 249.863281 C 229.558594 249.832031 230.03125 249.734375 230.558594 249.675781 C 231.082031 249.621094 231.714844 249.773438 232.292969 249.902344 C 231.789062 249.601562 230.761719 249.492188 229.972656 249.515625 C 229.183594 249.539062 228.457031 249.648438 227.621094 249.601562 C 226.398438 249.53125 225.195312 249.136719 223.964844 249.050781 C 222.351562 248.941406 221.109375 249.398438 219.492188 249.296875 C 218.589844 249.238281 217.746094 248.96875 216.839844 248.847656 C 214.578125 248.535156 210.828125 249.011719 207.566406 248.828125 C 205.882812 248.730469 203.957031 248.761719 202.523438 248.347656 C 201.359375 248.007812 198.972656 246.515625 198.84375 246.3125 C 198.488281 245.738281 200.113281 245.316406 201.359375 245.441406 C 202.609375 245.570312 203.550781 245.734375 204.800781 245.855469 C 206.316406 246 207.933594 245.949219 209.449219 245.878906 C 210.691406 245.820312 213.289062 245.726562 214.542969 245.832031 C 216.722656 246.007812 217.578125 246.363281 219.757812 246.550781 C 218.527344 246.28125 217.277344 246.035156 216.066406 245.75 C 214.605469 245.402344 212.550781 245.453125 211.710938 245.457031 C 203.230469 245.5 203.617188 244.054688 198.558594 243.742188 C 196.214844 243.601562 192.109375 243.550781 189.757812 243.625 C 188.214844 243.671875 186.667969 244.015625 185.125 244.03125 C 184.324219 244.035156 183.527344 244.039062 182.730469 244.046875 C 182.347656 244.046875 181.871094 243.5 181.714844 243.644531 C 180.988281 243.570312 179.105469 243.933594 179.011719 243.941406 C 177.949219 244.023438 176.746094 243.984375 175.734375 244.144531 C 174.914062 244.273438 173.433594 244.632812 172.964844 245 C 171.824219 245.488281 170.710938 246.039062 169.273438 246.285156 C 168.667969 246.390625 168.027344 246.4375 167.445312 246.570312 C 166.15625 246.855469 165.34375 247.488281 164.121094 247.839844 C 162.925781 248.183594 161.480469 248.21875 160.132812 248.183594 C 158.789062 248.148438 157.441406 248.050781 156.089844 248.167969 C 154.734375 248.285156 153.328125 248.671875 152.816406 249.273438 C 154.039062 248.53125 156.320312 248.449219 158.199219 248.570312 C 160.078125 248.683594 162.09375 248.910156 163.871094 248.496094 C 165.1875 248.191406 166.148438 247.570312 167.519531 247.335938 C 168.003906 247.253906 168.613281 247.242188 168.917969 247.421875 C 169.195312 247.582031 169.042969 247.824219 168.945312 248.035156 C 168.460938 249.070312 167.511719 249.210938 166.476562 249.6875 C 165.730469 250.035156 164.914062 250.183594 163.988281 250.410156 C 162.441406 250.785156 160.699219 251.039062 159.011719 251.191406 C 157.328125 251.339844 155.558594 251.597656 154.359375 252.199219 C 153.667969 252.542969 153.226562 252.976562 152.582031 253.339844 C 151.101562 254.171875 148.964844 254.75 148.316406 255.753906 C 147.949219 256.320312 147.90625 256.816406 147.878906 257.390625 C 147.847656 257.953125 147.425781 258.523438 146.6875 258.996094 C 147.53125 258.433594 148.296875 258.039062 148.636719 257.390625 C 149.007812 256.667969 148.785156 255.953125 149.816406 255.359375 C 150.703125 254.847656 152.28125 254.109375 153.265625 253.628906 C 153.890625 253.328125 154.3125 253.117188 154.886719 252.796875 C 156.175781 252.066406 157.753906 251.960938 159.664062 251.707031 C 161.574219 251.457031 163.917969 251.03125 165.753906 250.667969 C 167.59375 250.300781 169.453125 249.433594 170.019531 248.539062 C 170.277344 248.128906 170.160156 247.914062 170.449219 247.507812 C 170.96875 246.785156 172.347656 246.253906 173.785156 245.890625 C 175.222656 245.53125 175.898438 245.160156 178.375 245.132812 C 178.90625 245.128906 181.648438 244.871094 182.789062 245.546875 C 183.40625 245.90625 182.742188 246.351562 182.226562 246.761719 C 181.046875 247.699219 178.867188 248.238281 176.929688 248.851562 C 174.992188 249.460938 173.054688 250.328125 172.933594 251.402344 C 172.863281 252.015625 172.957031 252.585938 173.570312 253.199219 C 174.117188 253.742188 174.777344 254.199219 172.707031 254.5625 C 171.613281 254.753906 169.722656 254.667969 168.660156 254.90625 C 167.53125 255.15625 167.011719 255.691406 166.097656 256.09375 C 164.839844 256.648438 163.132812 256.65625 161.457031 256.765625 C 158.894531 256.933594 156.609375 257.878906 155.75 259.011719 C 156.261719 258.554688 157.378906 258.277344 158.296875 257.957031 C 160.375 257.234375 163.085938 257.453125 164.71875 257.203125 C 164.113281 258.039062 164.980469 259.421875 165.40625 260.261719 C 165.871094 261.191406 165.050781 261.199219 164.878906 262.359375 C 164.757812 263.171875 165.476562 264.113281 167.09375 264.386719 C 166.105469 264.015625 165.875 263.347656 166.007812 262.746094 C 166.140625 262.148438 166.5625 261.558594 166.597656 260.957031 C 166.675781 259.714844 164.894531 258.265625 166.40625 257.21875 C 167.519531 256.445312 167.820312 255.84375 169.59375 255.527344 C 172.203125 255.070312 174.964844 255.363281 175.824219 254.324219 C 176.203125 253.867188 175.457031 253.238281 175.253906 252.769531 C 174.09375 250.042969 179.425781 249.398438 179.839844 249.585938 C 180.429688 249.847656 179.117188 250.707031 180.039062 251.496094 C 180.660156 252.027344 182.1875 252.261719 182.527344 252.851562 C 182.847656 253.398438 181.820312 253.917969 181.515625 254.476562 C 180.882812 255.632812 183.4375 256.796875 182.566406 257.917969 C 181.734375 258.996094 178.648438 259.101562 176.558594 259.691406 C 173.449219 260.578125 172.859375 262.914062 175.453125 264.046875 C 173.707031 262.511719 174.390625 260.710938 177.320312 260.238281 C 178.609375 260.035156 180.148438 259.847656 181.316406 259.515625 C 182.464844 259.195312 183.253906 258.203125 184.574219 258.171875 C 185.558594 258.148438 186.28125 259.316406 186.753906 259.71875 C 187.230469 260.121094 187.46875 260.582031 187.964844 260.980469 C 188.777344 261.632812 190.308594 262.191406 190.101562 262.945312 C 189.996094 263.320312 189.859375 263.589844 189.84375 264.042969 C 190.902344 263.347656 190.996094 262.359375 190.070312 261.636719 C 189.507812 261.195312 188.601562 260.84375 188.289062 260.347656 C 188.082031 260.023438 187.296875 258.6875 186.984375 258.382812 C 185.839844 257.273438 184.523438 257.507812 183.683594 256.34375 C 181.960938 253.949219 185.636719 254.050781 184.839844 252.960938 C 184.136719 252 181.183594 251.496094 181.464844 250.480469 C 181.660156 249.78125 183.339844 249.390625 184.039062 248.765625 C 184.34375 248.488281 184.453125 248.175781 184.765625 247.90625 C 185.304688 247.4375 186.46875 247.148438 187.582031 247.207031 C 188.691406 247.265625 188.96875 247.855469 189.257812 248.363281 C 189.894531 249.476562 188.078125 250.425781 188.746094 251.535156 C 188.953125 251.882812 189.460938 252.199219 189.414062 252.558594 C 189.367188 252.894531 188.835938 253.171875 188.492188 253.46875 C 187.695312 254.15625 187.929688 255.070312 189.042969 255.640625 C 190.179688 256.222656 191.9375 256.402344 193.425781 256.769531 C 194.910156 257.136719 196.269531 257.933594 195.601562 258.660156 C 196.515625 258.042969 196.378906 257.136719 195.292969 256.589844 C 194.386719 256.136719 193.03125 255.964844 191.867188 255.667969 C 190.699219 255.375 189.597656 254.808594 189.90625 254.203125 C 190.179688 253.667969 191.433594 253.324219 191.5625 252.78125 C 191.621094 252.550781 191.628906 252.300781 191.433594 252.085938 C 189.769531 250.269531 191.890625 248.691406 196.609375 250.589844 C 198.179688 251.222656 196.875 252.367188 198.105469 252.820312 C 199.519531 253.332031 203.21875 252.675781 204.03125 253.425781 C 204.796875 254.132812 202.078125 255.441406 202.148438 256.230469 C 202.222656 257.023438 203.808594 257.621094 204.167969 258.394531 C 204.664062 259.46875 202.707031 260.4375 202.316406 261.523438 C 201.980469 262.457031 202.953125 263.464844 204.671875 263.960938 C 203.140625 263.417969 203.222656 262.316406 203.851562 261.464844 C 204.480469 260.609375 205.515625 259.78125 205.382812 258.882812 C 205.265625 258.066406 204.1875 257.339844 203.855469 256.53125 C 203.523438 255.722656 204.558594 254.882812 206.292969 254.773438 C 210.480469 254.507812 208.90625 256.777344 210.699219 257.660156 C 212.382812 258.488281 216.699219 259.027344 216.695312 260.566406 C 216.695312 261.265625 216.542969 262.167969 215.238281 262.523438 C 217.816406 261.917969 218.621094 260.167969 216.792969 259.113281 C 215.28125 258.238281 210.539062 257.222656 211.3125 256.382812 C 211.0625 256.65625 215.585938 256.890625 219.265625 256.46875 C 221.433594 256.21875 223.703125 256.863281 224.308594 257.855469 C 223.800781 257.023438 222.691406 256.371094 221.109375 256.148438 C 219.523438 255.925781 218.339844 256.101562 216.707031 256.132812 C 215.074219 256.160156 212.832031 256.273438 211.679688 255.71875 C 210.832031 255.308594 210.875 254.488281 209.859375 254.171875 C 208.925781 253.878906 207.644531 253.90625 206.789062 253.566406 C 206.121094 253.304688 205.867188 252.875 205.296875 252.5625 C 203.59375 251.628906 199.433594 252.953125 199.324219 251.742188 C 199.183594 250.199219 197.15625 249.398438 195.128906 249.121094 C 193.792969 248.9375 192.445312 248.636719 191.726562 248.078125 C 191.011719 247.519531 191.152344 246.691406 192.300781 246.328125 C 193.453125 245.964844 195.082031 246.203125 196.128906 246.640625 C 197.175781 247.078125 197.84375 247.675781 198.734375 248.183594 C 200.863281 249.398438 204.816406 249.839844 208.105469 249.691406 C 209.066406 249.636719 214.933594 249.46875 216.328125 252.40625 C 216.675781 253.144531 217.402344 253.957031 218.894531 254.28125 C 220.679688 254.667969 223.019531 253.578125 224.773438 254.011719 C 226.21875 254.367188 226.472656 255.703125 227.332031 256.335938 C 228.296875 257.042969 230.179688 257.257812 231.8125 257.632812 C 229.324219 257.058594 228.050781 256.128906 227.253906 255.277344 C 226.347656 254.316406 225.835938 253.035156 223.171875 253.3125 " fill-opacity="1" fill-rule="nonzero"/><g clip-path="url(#1a7f928b80)"><path fill="#37ff8b" d="M 163.753906 256.894531 C 165.636719 257.28125 167.59375 257.441406 167.828125 256.347656 C 168.476562 253.300781 170.769531 252.464844 170.527344 252.074219 C 170.433594 251.921875 169.621094 251.976562 168.265625 252.351562 C 167.601562 252.539062 165.617188 253.566406 164.960938 253.78125 C 164.621094 253.894531 164.339844 254.078125 164.101562 254.28125 C 163.132812 255.089844 161.464844 255.296875 160.183594 255.773438 C 159.492188 256.03125 158.914062 256.675781 158.621094 256.828125 C 158.960938 256.132812 159.484375 255.90625 159.765625 255.730469 C 160.261719 255.425781 160.695312 255.121094 161.148438 255.003906 C 161.90625 254.804688 162.378906 254.75 162.929688 254.304688 C 164.261719 253.234375 165.011719 252.738281 166.300781 252.441406 C 166.246094 252.203125 163.976562 251.8125 163.007812 251.839844 C 161.992188 251.871094 160.335938 252.238281 159.109375 252.066406 C 158.664062 252.003906 158.285156 251.855469 157.867188 251.757812 C 157.449219 251.664062 156.945312 251.84375 156.484375 252 C 156.886719 251.605469 157.703125 251.496094 158.332031 251.558594 C 158.960938 251.621094 159.539062 251.796875 160.203125 251.761719 C 161.175781 251.710938 162.132812 251.210938 163.109375 251.136719 C 164.394531 251.039062 165.382812 251.683594 166.667969 251.589844 C 167.386719 251.535156 168.054688 251.195312 168.773438 251.050781 C 170.570312 250.691406 173.546875 251.398438 176.136719 251.1875 C 177.472656 251.082031 178.996094 251.140625 180.136719 250.605469 C 181.054688 250.171875 182.953125 248.222656 183.054688 247.960938 C 183.339844 247.210938 182.046875 246.644531 181.058594 246.792969 C 180.070312 246.945312 179.320312 247.152344 178.328125 247.296875 C 177.128906 247.46875 175.84375 247.375 174.640625 247.253906 C 173.652344 247.15625 171.589844 246.976562 170.597656 247.082031 C 168.863281 247.261719 168.183594 247.714844 166.453125 247.902344 C 167.429688 247.578125 168.421875 247.285156 169.386719 246.933594 C 170.542969 246.511719 172.175781 246.628906 172.847656 246.652344 C 179.578125 246.867188 179.269531 244.9375 183.285156 244.582031 C 185.144531 244.421875 188.398438 244.375 190.261719 244.464844 C 191.484375 244.523438 192.710938 244.964844 193.9375 244.972656 C 194.566406 244.976562 195.199219 244.976562 195.832031 244.976562 C 196.136719 244.972656 196.515625 244.257812 196.636719 244.441406 C 197.214844 244.339844 198.40625 244.835938 198.558594 244.800781 C 198.628906 244.785156 198.707031 244.792969 198.78125 244.800781 C 199.625 244.894531 200.574219 244.824219 201.378906 245.015625 C 202.027344 245.171875 203.199219 245.609375 203.570312 246.074219 C 204.476562 246.683594 205.355469 247.371094 206.492188 247.660156 C 206.972656 247.78125 207.480469 247.828125 207.941406 247.984375 C 208.960938 248.320312 209.605469 249.121094 210.570312 249.539062 C 211.519531 249.949219 212.664062 249.949219 213.730469 249.859375 C 214.796875 249.769531 215.867188 249.597656 216.941406 249.699219 C 218.015625 249.800781 219.128906 250.246094 219.53125 251.007812 C 218.566406 250.089844 216.753906 250.074219 215.265625 250.292969 C 213.773438 250.507812 212.175781 250.863281 210.765625 250.378906 C 209.726562 250.023438 208.964844 249.246094 207.878906 248.980469 C 207.496094 248.886719 207.011719 248.882812 206.769531 249.121094 C 206.550781 249.339844 206.667969 249.648438 206.746094 249.917969 C 207.125 251.25 207.878906 251.40625 208.699219 251.996094 C 209.289062 252.421875 209.933594 252.597656 210.664062 252.859375 C 211.890625 253.300781 213.273438 253.574219 214.605469 253.714844 C 215.941406 253.855469 217.347656 254.121094 218.292969 254.855469 C 218.839844 255.277344 219.191406 255.820312 219.699219 256.265625 C 220.867188 257.285156 222.5625 257.949219 223.070312 259.222656 C 223.359375 259.945312 223.390625 260.585938 223.410156 261.332031 C 223.433594 262.058594 223.765625 262.78125 224.347656 263.363281 C 223.679688 262.671875 223.074219 262.191406 222.808594 261.359375 C 222.515625 260.4375 222.699219 259.503906 221.882812 258.773438 C 221.179688 258.144531 219.933594 257.25 219.152344 256.667969 C 218.660156 256.300781 218.324219 256.042969 217.871094 255.648438 C 216.855469 254.753906 215.601562 254.667969 214.089844 254.40625 C 212.578125 254.144531 210.71875 253.664062 209.265625 253.246094 C 207.8125 252.824219 206.335938 251.742188 205.894531 250.597656 C 205.691406 250.074219 205.785156 249.789062 205.554688 249.269531 C 205.148438 248.347656 204.054688 247.6875 202.917969 247.246094 C 201.777344 246.808594 201.242188 246.335938 199.285156 246.339844 C 198.863281 246.339844 196.6875 246.042969 195.78125 246.925781 C 195.292969 247.402344 195.816406 247.972656 196.222656 248.5 C 197.15625 249.710938 198.882812 250.382812 200.417969 251.140625 C 201.949219 251.902344 203.484375 252.980469 203.574219 254.375 C 203.628906 255.167969 203.550781 255.910156 203.066406 256.710938 C 202.632812 257.429688 202.105469 258.039062 203.742188 258.464844 C 204.609375 258.6875 206.105469 258.53125 206.949219 258.808594 C 207.839844 259.101562 208.25 259.785156 208.972656 260.28125 C 209.96875 260.964844 211.320312 260.921875 212.648438 261.011719 C 214.675781 261.148438 216.484375 262.296875 217.160156 263.734375 C 216.757812 263.15625 215.875 262.839844 215.144531 262.453125 C 213.5 261.589844 211.355469 261.957031 210.0625 261.675781 C 210.539062 262.742188 209.84375 264.554688 209.507812 265.65625 C 209.132812 266.871094 209.785156 266.863281 209.914062 268.359375 C 210.007812 269.40625 209.4375 270.648438 208.15625 271.042969 C 208.9375 270.539062 209.121094 269.667969 209.019531 268.894531 C 208.917969 268.121094 208.585938 267.367188 208.558594 266.589844 C 208.5 264.984375 209.917969 263.058594 208.722656 261.742188 C 207.847656 260.773438 207.609375 260 206.207031 259.644531 C 204.140625 259.109375 201.953125 259.550781 201.273438 258.21875 C 200.976562 257.636719 201.570312 256.808594 201.730469 256.191406 C 202.660156 252.636719 198.4375 251.894531 198.109375 252.140625 C 197.640625 252.492188 198.675781 253.589844 197.945312 254.625 C 197.453125 255.324219 196.242188 255.652344 195.972656 256.425781 C 195.71875 257.140625 196.53125 257.800781 196.769531 258.519531 C 197.265625 260.011719 195.242188 261.566406 195.925781 263.015625 C 196.585938 264.402344 199.023438 264.476562 200.675781 265.203125 C 203.136719 266.28125 203.597656 269.292969 201.539062 270.824219 C 202.929688 268.792969 202.390625 266.472656 200.074219 265.925781 C 199.054688 265.6875 197.839844 265.472656 196.914062 265.066406 C 196.007812 264.671875 195.382812 263.394531 194.339844 263.375 C 193.5625 263.359375 192.984375 264.890625 192.609375 265.421875 C 192.234375 265.957031 192.042969 266.558594 191.648438 267.085938 C 191.007812 267.945312 189.792969 268.699219 189.957031 269.679688 C 190.039062 270.167969 190.144531 270.519531 190.15625 271.109375 C 189.320312 270.21875 189.25 268.925781 189.980469 267.96875 C 190.429688 267.386719 191.144531 266.914062 191.394531 266.265625 C 191.558594 265.839844 192.183594 264.085938 192.433594 263.683594 C 193.339844 262.226562 194.378906 262.511719 195.046875 260.984375 C 196.417969 257.847656 193.503906 258.027344 194.140625 256.597656 C 194.699219 255.335938 197.039062 254.644531 196.816406 253.328125 C 196.664062 252.421875 195.339844 251.9375 194.785156 251.125 C 194.546875 250.773438 194.457031 250.367188 194.210938 250.015625 C 193.785156 249.414062 192.863281 249.046875 191.980469 249.128906 C 191.101562 249.210938 190.882812 249.980469 190.648438 250.640625 C 190.144531 252.101562 191.582031 253.324219 191.050781 254.78125 C 190.886719 255.234375 190.480469 255.648438 190.519531 256.117188 C 190.554688 256.558594 190.976562 256.914062 191.246094 257.300781 C 191.875 258.1875 191.6875 259.382812 190.804688 260.136719 C 189.90625 260.90625 188.511719 261.160156 187.335938 261.648438 C 186.160156 262.140625 185.078125 263.195312 185.609375 264.140625 C 184.886719 263.34375 184.996094 262.152344 185.859375 261.429688 C 186.574219 260.828125 187.648438 260.59375 188.570312 260.199219 C 189.496094 259.804688 190.371094 259.058594 190.125 258.265625 C 189.910156 257.578125 188.917969 257.132812 188.816406 256.425781 C 188.769531 256.125 188.765625 255.796875 188.917969 255.515625 C 190.242188 253.136719 188.5625 251.089844 184.824219 253.578125 C 183.578125 254.40625 184.609375 255.90625 183.632812 256.5 C 182.511719 257.175781 179.582031 256.304688 178.9375 257.289062 C 178.332031 258.21875 180.484375 259.949219 180.425781 260.988281 C 180.367188 262.027344 179.113281 262.820312 178.828125 263.839844 C 178.433594 265.257812 179.984375 266.527344 180.289062 267.953125 C 180.558594 269.183594 179.785156 270.519531 178.425781 271.1875 C 179.640625 270.457031 179.574219 269.007812 179.074219 267.886719 C 178.578125 266.765625 177.757812 265.675781 177.863281 264.488281 C 177.957031 263.410156 178.8125 262.445312 179.074219 261.382812 C 179.335938 260.316406 178.519531 259.210938 177.144531 259.058594 C 173.824219 258.6875 175.074219 261.695312 173.652344 262.863281 C 172.320312 263.960938 168.898438 264.652344 168.902344 266.707031 C 168.902344 267.640625 169.027344 268.851562 170.058594 269.324219 C 168.019531 268.519531 167.378906 266.164062 168.824219 264.765625 C 170.023438 263.609375 173.78125 262.285156 173.167969 261.164062 C 173.367188 261.527344 169.78125 261.816406 166.859375 261.203125 C 165.140625 260.839844 163.339844 261.667969 162.859375 263 C 163.261719 261.882812 164.140625 261.023438 165.398438 260.75 C 166.652344 260.472656 167.59375 260.726562 168.886719 260.785156 C 170.183594 260.839844 171.960938 261.007812 172.875 260.28125 C 173.546875 259.746094 173.511719 258.652344 174.316406 258.242188 C 175.058594 257.863281 176.074219 257.90625 176.753906 257.460938 C 177.28125 257.117188 177.480469 256.554688 177.933594 256.144531 C 179.285156 254.925781 182.582031 256.679688 182.667969 255.085938 C 182.78125 253.054688 184.390625 252.015625 185.996094 251.652344 C 187.054688 251.410156 188.125 251.015625 188.695312 250.28125 C 189.265625 249.554688 189.152344 248.46875 188.242188 247.996094 C 187.328125 247.519531 186.035156 247.828125 185.207031 248.398438 C 184.375 248.96875 183.84375 249.753906 183.136719 250.417969 C 181.453125 252 178.316406 252.5625 175.710938 252.324219 C 174.945312 252.25 170.289062 251.921875 169.1875 255.816406 C 168.910156 256.792969 168.335938 257.871094 167.152344 258.28125 C 165.734375 258.769531 163.875 257.261719 162.484375 257.804688 C 161.332031 258.253906 161.132812 260.054688 160.453125 260.894531 C 159.691406 261.832031 158.195312 262.082031 156.902344 262.5625 C 158.875 261.832031 159.882812 260.59375 160.515625 259.464844 C 161.230469 258.179688 161.632812 256.464844 163.753906 256.894531 " fill-opacity="1" fill-rule="nonzero"/></g><path fill="#37ff8b" d="M 216.761719 199.515625 L 217.101562 199.386719 L 217.257812 199.4375 C 218.820312 199.929688 220.1875 200.285156 221.445312 200.515625 C 222.675781 200.738281 223.929688 200.894531 225.199219 200.988281 C 224.832031 200.933594 224.464844 200.875 224.105469 200.8125 C 222.691406 200.558594 221.042969 200.117188 219.199219 199.503906 L 217.921875 199.078125 L 219.523438 198.484375 C 224.253906 196.75 227.316406 194.566406 229.285156 192.585938 C 227.621094 193.699219 225.683594 194.652344 223.789062 195.5 L 222.9375 195.878906 L 223.128906 194.96875 C 223.417969 193.601562 223.800781 192.453125 224.273438 191.554688 C 224.023438 191.917969 223.789062 192.308594 223.574219 192.726562 C 223.15625 193.539062 222.8125 194.582031 222.550781 195.816406 L 222.5 196.058594 L 222.269531 196.15625 C 219.566406 197.289062 216.640625 198.386719 213.8125 199.449219 C 210.976562 200.515625 208.296875 201.523438 206.007812 202.496094 L 204.695312 203.054688 L 205.414062 201.820312 C 205.925781 200.941406 206.351562 200.128906 206.714844 199.324219 C 207.230469 198.183594 207.761719 196.738281 208.324219 195.210938 L 208.472656 194.8125 L 208.773438 194.785156 C 210.300781 194.664062 211.558594 194.472656 212.609375 194.207031 C 212.960938 194.121094 213.304688 194.023438 213.636719 193.917969 C 212.457031 194.171875 211.007812 194.351562 209.316406 194.445312 L 208.589844 194.484375 L 208.84375 193.804688 C 209.882812 191.03125 211.457031 186.816406 214.035156 183.335938 C 212.351562 184.917969 210.710938 186.972656 209.597656 189.570312 C 209.46875 189.863281 209.347656 190.152344 209.226562 190.4375 L 208.6875 191.734375 L 208.332031 190.375 C 207.917969 188.800781 207.683594 187.382812 207.632812 186.167969 C 207.601562 185.402344 207.601562 184.371094 207.710938 183.171875 C 207.378906 184.761719 207.199219 186.558594 207.339844 188.503906 C 207.433594 189.761719 207.710938 191.214844 208.167969 192.816406 L 208.210938 192.972656 L 208.109375 193.238281 C 206.667969 196.933594 205.644531 200.199219 202.515625 203.976562 L 202 204.375 C 200.214844 205.324219 198.4375 206.445312 196.722656 207.707031 L 196.136719 208.136719 L 195.980469 207.425781 C 195.449219 205.035156 195.21875 202.921875 195.292969 201.140625 C 195.335938 200.066406 195.476562 198.535156 195.855469 196.757812 C 195.144531 198.832031 194.613281 201.265625 194.585938 203.925781 C 194.570312 205.308594 194.734375 206.898438 195.074219 208.652344 L 195.128906 208.929688 L 194.910156 209.109375 C 192.894531 210.746094 191.421875 212.210938 190.539062 213.152344 L 189.941406 213.792969 L 189.734375 212.9375 C 189.421875 211.644531 189.132812 210.089844 188.902344 208.839844 C 188.699219 207.753906 188.527344 206.8125 188.414062 206.449219 C 187.871094 204.738281 188.871094 194.300781 191.03125 187.644531 L 191.066406 187.539062 L 191.375 187.230469 C 192.5 186.109375 193.390625 185.226562 194.503906 184.175781 L 195.089844 183.613281 C 197.464844 181.335938 200.871094 178.066406 203.882812 173.914062 C 202.589844 175.558594 201.085938 177.199219 199.347656 178.75 C 196.941406 180.90625 194.707031 182.957031 192.707031 184.839844 L 191.347656 185.976562 C 191.601562 185.25 192.4375 182.898438 192.683594 182.203125 C 193.679688 179.386719 195.402344 174.511719 196.039062 168.625 C 195.757812 170.472656 195.324219 172.378906 194.691406 174.289062 L 194.449219 175.011719 L 193.519531 174.089844 C 192.3125 172.902344 191.269531 171.878906 190.535156 170.617188 C 190.226562 170.085938 189.917969 169.546875 189.628906 168.980469 C 190.007812 169.855469 190.488281 170.777344 191.101562 171.738281 C 191.65625 172.617188 192.675781 173.871094 194.042969 175.375 L 194.234375 175.585938 L 193.5 177.59375 C 189.683594 188.027344 186.925781 195.566406 186.0625 201.34375 L 185.871094 202.609375 L 185.191406 201.523438 C 183.484375 198.800781 181.882812 195.804688 180.429688 192.613281 L 180.320312 192.375 L 180.464844 192.15625 C 181.441406 190.683594 182.195312 189.328125 182.703125 188.128906 C 183.835938 185.472656 184.238281 182.988281 184.289062 180.882812 C 183.976562 182.914062 183.421875 184.617188 182.976562 185.753906 C 182.429688 187.15625 181.539062 188.78125 180.332031 190.585938 L 179.84375 191.3125 L 179.5 190.507812 C 178.1875 187.417969 176.988281 184.128906 175.941406 180.726562 L 175.871094 180.503906 L 176.007812 180.3125 C 177.019531 178.871094 177.738281 177.628906 178.203125 176.519531 C 178.625 175.523438 178.902344 174.5625 179.078125 173.660156 C 178.929688 174.144531 178.78125 174.570312 178.644531 174.921875 C 178.179688 176.125 177.382812 177.542969 176.269531 179.140625 L 175.703125 179.953125 L 175.425781 179 C 174.132812 174.558594 173.269531 170.550781 172.710938 167.390625 C 172.824219 169.253906 173.078125 171.496094 173.589844 174.15625 L 173.808594 175.292969 L 172.855469 174.636719 C 170.769531 173.203125 169.191406 171.902344 168.042969 170.664062 C 167.980469 170.597656 167.914062 170.527344 167.851562 170.453125 C 168.382812 171.148438 168.972656 171.835938 169.636719 172.507812 C 170.695312 173.59375 172.070312 174.714844 173.828125 175.945312 L 173.980469 176.050781 L 174.023438 176.230469 C 174.777344 179.609375 175.859375 183.292969 177.242188 187.183594 L 177.597656 188.191406 L 176.613281 187.777344 C 172.726562 186.160156 163.214844 181.917969 158.84375 177.496094 C 158.738281 177.390625 158.632812 177.277344 158.53125 177.164062 C 159.085938 177.871094 159.710938 178.574219 160.417969 179.25 C 164.574219 183.246094 171.9375 186.941406 177.316406 189.636719 L 177.609375 189.785156 L 177.675781 189.957031 C 177.886719 190.519531 178.105469 191.089844 178.324219 191.671875 C 179.566406 194.964844 180.976562 198.699219 182.890625 202.722656 L 183.308594 203.597656 L 182.363281 203.390625 C 179.632812 202.785156 177.921875 202.054688 175.9375 201.214844 L 175.585938 201.0625 C 173.015625 199.976562 170.601562 198.65625 168.433594 197.183594 C 170.828125 199.238281 174.109375 201.480469 178.378906 203.199219 C 179.054688 203.472656 179.578125 203.730469 180.082031 203.976562 C 181.019531 204.4375 181.832031 204.835938 183.308594 205.183594 L 183.523438 205.234375 L 183.621094 205.433594 C 183.796875 205.785156 185.09375 212.984375 185.105469 213.058594 L 185.257812 213.867188 C 185.300781 213.996094 184.320312 213.488281 184.332031 213.496094 C 184.207031 213.40625 183.394531 212.976562 182.449219 212.480469 C 176.503906 209.347656 160.710938 201.03125 154.652344 193.835938 C 153.945312 192.953125 153.289062 191.9375 152.699219 190.824219 C 153.535156 192.632812 154.660156 194.496094 156.175781 196.285156 C 159.730469 200.515625 165.183594 203.71875 170.457031 206.8125 L 172.339844 208.148438 L 170.496094 207.902344 C 161.601562 206.367188 153.800781 204.089844 147.199219 201.101562 C 149.769531 202.441406 153.3125 203.953125 158.257812 205.472656 L 159.457031 205.839844 L 158.269531 206.375 C 157.429688 206.660156 156.640625 206.878906 155.929688 207.023438 C 155.335938 207.140625 154.734375 207.238281 154.125 207.316406 C 155.625 207.269531 157.101562 207.09375 158.523438 206.789062 C 158.734375 206.742188 160.140625 206.15625 160.277344 206.09375 C 164.519531 207.363281 169.65625 208.6875 175.972656 210.140625 L 176.050781 210.15625 L 176.121094 210.203125 C 177.035156 210.777344 177.84375 211.316406 178.585938 211.835938 L 179.636719 212.578125 L 178.359375 212.695312 C 177.109375 212.8125 175.863281 213.144531 174.664062 213.671875 C 174.050781 213.945312 173.472656 214.3125 172.863281 214.703125 C 172.398438 215 171.917969 215.308594 171.402344 215.582031 C 168.996094 216.863281 166.34375 217.339844 164.40625 217.691406 C 163.316406 217.886719 162.183594 218.035156 161.046875 218.132812 C 161.058594 218.132812 161.070312 218.132812 161.078125 218.132812 C 163.164062 218.132812 165.242188 217.941406 167.246094 217.5625 L 167.28125 217.550781 L 168.898438 217.304688 L 167.65625 218.398438 C 166.164062 219.515625 164.519531 220.675781 162.675781 221.507812 C 163.65625 221.179688 164.808594 220.703125 166.148438 220.023438 C 166.941406 219.617188 167.773438 219.167969 168.578125 218.734375 C 172.027344 216.878906 175.59375 214.957031 178.734375 214.957031 C 180.933594 214.957031 182.722656 215.921875 184.054688 217.832031 C 185.359375 219.6875 185.671875 222.109375 185.792969 223.765625 C 186.339844 231.316406 185.011719 240.140625 180.910156 243.859375 C 181.808594 243.941406 182.957031 244.542969 183.832031 244.542969 C 184.070312 244.542969 185.074219 245.019531 185.257812 245.011719 C 189.117188 244.742188 192.234375 244.238281 196.03125 244.0625 C 195.308594 241.835938 193.03125 233.8125 193.726562 228.660156 C 194.898438 219.980469 201.472656 218.976562 206.316406 218.976562 C 206.839844 218.976562 207.394531 218.988281 208.050781 219.011719 L 208.242188 219.015625 L 208.375 219.15625 C 209.074219 219.890625 209.761719 220.523438 210.417969 221.035156 C 211.554688 221.917969 212.746094 222.640625 213.898438 223.226562 C 213.179688 222.726562 212.554688 222.257812 212.058594 221.882812 C 211.460938 221.4375 210.816406 220.816406 210.027344 219.933594 L 209.242188 219.058594 L 210.414062 219.144531 C 210.84375 219.179688 211.28125 219.210938 211.726562 219.246094 C 213.121094 219.359375 214.5625 219.472656 216.109375 219.527344 C 216.855469 219.558594 217.582031 219.574219 218.257812 219.574219 C 219.230469 219.574219 220.085938 219.542969 220.839844 219.488281 C 217.921875 219.488281 214.796875 218.960938 211.78125 218.453125 C 209.691406 218.101562 207.535156 217.738281 205.507812 217.5625 L 203.792969 217.414062 L 205.34375 216.664062 C 205.988281 216.351562 206.59375 216.019531 207.15625 215.675781 C 205.660156 216.34375 204.324219 216.753906 203.371094 216.996094 C 202.371094 217.242188 200.335938 217.640625 199.570312 217.789062 C 199.449219 217.8125 199.304688 217.839844 199.304688 217.839844 C 196.121094 218.519531 194.125 219.914062 193.011719 220.964844 L 192.398438 221.546875 L 192.1875 220.539062 C 191.902344 219.199219 191.65625 218.039062 191.960938 217.167969 C 193.152344 213.738281 198.457031 208.878906 201.84375 206.527344 L 202.015625 206.40625 L 203.382812 206.714844 C 209.386719 208.074219 216.863281 209.769531 222.5625 209.769531 C 222.898438 209.765625 223.230469 209.761719 223.558594 209.75 C 218.648438 209.515625 211.535156 208.148438 204.117188 205.988281 L 203.074219 205.683594 L 204.007812 205.125 C 207.851562 202.835938 211.980469 201.296875 216.761719 199.515625 " fill-opacity="1" fill-rule="nonzero"/><path fill="#37ff8b" d="M 170.40625 152.839844 C 170.402344 152.855469 167.109375 157.296875 172.023438 160.640625 C 172.019531 160.652344 175.367188 156.378906 170.40625 152.839844 " fill-opacity="1" fill-rule="nonzero"/><path fill="#37ff8b" d="M 136.144531 188.480469 C 136.148438 188.5 135.757812 192.066406 140.390625 191.792969 C 140.394531 191.8125 140.859375 188.15625 136.144531 188.480469 " fill-opacity="1" fill-rule="nonzero"/><path fill="#37ff8b" d="M 141.0625 184.816406 C 141.0625 184.828125 140.863281 187.675781 144.578125 187.414062 C 144.582031 187.425781 144.851562 184.535156 141.0625 184.816406 " fill-opacity="1" fill-rule="nonzero"/><path fill="#37ff8b" d="M 174.847656 154.179688 C 174.847656 154.179688 172.53125 156.289062 174.726562 158.675781 C 174.726562 158.675781 177.046875 156.6875 174.847656 154.179688 " fill-opacity="1" fill-rule="nonzero"/><path fill="#37ff8b" d="M 176.433594 152.824219 C 176.429688 152.828125 175.8125 154.480469 177.679688 155.644531 C 177.796875 155.113281 178.304688 154.023438 176.433594 152.824219 " fill-opacity="1" fill-rule="nonzero"/><path fill="#37ff8b" d="M 189.636719 152.050781 C 189.636719 152.035156 184.945312 154.960938 188.179688 160.03125 C 188.175781 160.015625 192.835938 157.351562 189.636719 152.050781 " fill-opacity="1" fill-rule="nonzero"/><path fill="#37ff8b" d="M 194.582031 151.195312 C 194.578125 151.195312 191.316406 155.1875 196.289062 159.242188 C 196.289062 159.246094 199.601562 155.480469 194.582031 151.195312 " fill-opacity="1" fill-rule="nonzero"/><path fill="#37ff8b" d="M 167.046875 158.648438 C 167.046875 158.671875 164.648438 163.460938 170.242188 165.867188 C 170.242188 165.890625 172.722656 161.179688 167.046875 158.648438 " fill-opacity="1" fill-rule="nonzero"/><path fill="#37ff8b" d="M 177.453125 157.792969 C 177.449219 157.769531 172.097656 160.039062 173.839844 165.472656 C 173.835938 165.449219 179.105469 163.429688 177.453125 157.792969 " fill-opacity="1" fill-rule="nonzero"/><path fill="#37ff8b" d="M 181.804688 158.777344 C 181.800781 158.765625 177.828125 160.316406 179.117188 164.386719 C 179.113281 164.375 183.023438 162.988281 181.804688 158.777344 " fill-opacity="1" fill-rule="nonzero"/><path fill="#37ff8b" d="M 192.117188 159.886719 C 192.113281 159.871094 188.136719 161.164062 189.414062 165.320312 C 189.410156 165.304688 193.320312 164.167969 192.117188 159.886719 " fill-opacity="1" fill-rule="nonzero"/><path fill="#37ff8b" d="M 181.429688 151.675781 C 181.429688 151.660156 177.449219 153.230469 178.738281 157.296875 C 178.738281 157.28125 182.652344 155.882812 181.429688 151.675781 " fill-opacity="1" fill-rule="nonzero"/><path fill="#37ff8b" d="M 184.6875 166.117188 C 184.6875 166.101562 180.441406 166.640625 180.46875 170.925781 C 180.46875 170.914062 184.609375 170.488281 184.6875 166.117188 " fill-opacity="1" fill-rule="nonzero"/><path fill="#37ff8b" d="M 193.109375 162.140625 C 193.105469 162.144531 191.203125 164.792969 194.691406 166.863281 C 194.6875 166.867188 196.636719 164.332031 193.109375 162.140625 " fill-opacity="1" fill-rule="nonzero"/><path fill="#37ff8b" d="M 148.515625 167.707031 C 148.519531 167.71875 147.726562 170.882812 151.644531 170.863281 C 151.644531 170.875 152.503906 167.695312 148.515625 167.707031 " fill-opacity="1" fill-rule="nonzero"/><path fill="#37ff8b" d="M 183.414062 171.664062 C 183.414062 171.652344 179.765625 171.953125 179.988281 175.5625 C 179.988281 175.554688 183.546875 175.347656 183.414062 171.664062 " fill-opacity="1" fill-rule="nonzero"/><path fill="#37ff8b" d="M 200.507812 157.6875 C 200.507812 157.671875 196.855469 157.570312 197.054688 161.191406 C 197.054688 161.183594 200.628906 161.355469 200.507812 157.6875 " fill-opacity="1" fill-rule="nonzero"/><path fill="#37ff8b" d="M 187.695312 171.949219 C 187.695312 171.945312 184.75 172.3125 185.1875 175.230469 C 185.1875 175.226562 188.070312 174.941406 187.695312 171.949219 " fill-opacity="1" fill-rule="nonzero"/><path fill="#37ff8b" d="M 187.722656 165.859375 C 187.722656 165.867188 187.570312 163.226562 184.214844 163.367188 C 184.214844 163.378906 184.289062 165.898438 187.722656 165.859375 " fill-opacity="1" fill-rule="nonzero"/><path fill="#37ff8b" d="M 188.382812 169.007812 C 188.382812 169.011719 188.253906 166.714844 185.328125 166.820312 C 185.328125 166.824219 185.390625 169.03125 188.382812 169.007812 " fill-opacity="1" fill-rule="nonzero"/><path fill="#37ff8b" d="M 189.488281 170.820312 C 189.488281 170.820312 188.734375 169.097656 186.546875 169.816406 C 186.546875 169.820312 187.234375 171.480469 189.488281 170.820312 " fill-opacity="1" fill-rule="nonzero"/><path fill="#37ff8b" d="M 192.042969 174.84375 C 192.042969 174.851562 191.039062 172.53125 188.121094 173.460938 C 188.121094 173.46875 189.035156 175.691406 192.042969 174.84375 " fill-opacity="1" fill-rule="nonzero"/><path fill="#37ff8b" d="M 185.644531 168.957031 C 185.644531 168.953125 182.90625 170.007812 184.1875 172.714844 C 184.1875 172.707031 186.890625 171.757812 185.644531 168.957031 " fill-opacity="1" fill-rule="nonzero"/><path fill="#37ff8b" d="M 193.265625 158.136719 C 193.265625 158.144531 192.074219 160.464844 195.132812 161.828125 C 195.128906 161.832031 196.371094 159.585938 193.265625 158.136719 " fill-opacity="1" fill-rule="nonzero"/><g clip-path="url(#92f8be86fc)"><path fill="#37ff8b" d="M 183.726562 150.222656 C 183.726562 150.230469 182.539062 152.625 185.609375 153.808594 C 185.605469 153.816406 186.84375 151.480469 183.726562 150.222656 " fill-opacity="1" fill-rule="nonzero"/></g><path fill="#37ff8b" d="M 166.070312 154.539062 C 166.070312 154.546875 164.898438 157.058594 167.949219 157.875 C 167.949219 157.882812 169.167969 155.417969 166.070312 154.539062 " fill-opacity="1" fill-rule="nonzero"/><path fill="#37ff8b" d="M 182.203125 181.234375 C 182.203125 181.234375 184.433594 178.644531 181.21875 176.472656 C 181.21875 176.476562 178.96875 178.960938 182.203125 181.234375 " fill-opacity="1" fill-rule="nonzero"/><path fill="#37ff8b" d="M 187.214844 162.53125 C 187.214844 162.542969 187.898438 159.355469 183.851562 158.675781 C 183.851562 158.6875 183.097656 161.726562 187.214844 162.53125 " fill-opacity="1" fill-rule="nonzero"/><path fill="#37ff8b" d="M 185.542969 178.757812 C 185.542969 178.75 188.707031 178.601562 188.546875 175.472656 C 188.546875 175.464844 185.449219 175.535156 185.542969 178.757812 " fill-opacity="1" fill-rule="nonzero"/><path fill="#37ff8b" d="M 173.125 193.378906 C 173.125 193.371094 176.269531 193.035156 176.097656 189.917969 C 176.097656 189.910156 173.019531 190.175781 173.125 193.378906 " fill-opacity="1" fill-rule="nonzero"/><path fill="#37ff8b" d="M 179.996094 166.851562 C 179.996094 166.84375 183.171875 166.597656 183.003906 163.46875 C 183.003906 163.460938 179.894531 163.636719 179.996094 166.851562 " fill-opacity="1" fill-rule="nonzero"/><path fill="#37ff8b" d="M 181.886719 157.714844 C 181.886719 157.707031 185.070312 157.496094 184.90625 154.367188 C 184.90625 154.359375 181.789062 154.496094 181.886719 157.714844 " fill-opacity="1" fill-rule="nonzero"/><path fill="#37ff8b" d="M 179.421875 181.402344 C 179.421875 181.410156 177.925781 184.558594 181.886719 185.976562 C 181.886719 185.984375 183.445312 182.914062 179.421875 181.402344 " fill-opacity="1" fill-rule="nonzero"/><path fill="#37ff8b" d="M 175.328125 168.949219 C 175.324219 168.957031 173.832031 172.136719 177.804688 173.453125 C 177.804688 173.460938 179.363281 170.347656 175.328125 168.949219 " fill-opacity="1" fill-rule="nonzero"/><path fill="#37ff8b" d="M 176.078125 165.652344 C 176.078125 165.660156 175.210938 168.402344 178.683594 169.132812 C 178.683594 169.140625 179.613281 166.4375 176.078125 165.652344 " fill-opacity="1" fill-rule="nonzero"/><path fill="#37ff8b" d="M 191.632812 166.234375 C 191.628906 166.242188 190.121094 169.285156 194.09375 170.976562 C 194.09375 170.980469 195.667969 168.03125 191.632812 166.234375 " fill-opacity="1" fill-rule="nonzero"/><path fill="#37ff8b" d="M 192.289062 193.476562 C 192.289062 193.480469 190.402344 196.164062 193.859375 198.167969 C 193.859375 198.171875 195.789062 195.597656 192.289062 193.476562 " fill-opacity="1" fill-rule="nonzero"/><path fill="#37ff8b" d="M 193.605469 190.65625 C 193.605469 190.65625 192.421875 193 195.453125 194.3125 C 195.453125 194.316406 196.683594 192.054688 193.605469 190.65625 " fill-opacity="1" fill-rule="nonzero"/><path fill="#37ff8b" d="M 190.828125 197.597656 C 190.828125 197.601562 189.332031 200.679688 193.269531 202.292969 C 193.269531 202.300781 194.828125 199.320312 190.828125 197.597656 " fill-opacity="1" fill-rule="nonzero"/><path fill="#37ff8b" d="M 190.777344 202.351562 C 190.777344 202.355469 189.28125 205.433594 193.214844 207.042969 C 193.214844 207.046875 194.773438 204.066406 190.777344 202.351562 " fill-opacity="1" fill-rule="nonzero"/><path fill="#37ff8b" d="M 188.125 184.910156 C 188.125 184.898438 184.296875 184.578125 183.839844 188.390625 C 183.839844 188.378906 187.558594 188.765625 188.125 184.910156 " fill-opacity="1" fill-rule="nonzero"/><path fill="#37ff8b" d="M 185.378906 182.574219 C 185.378906 182.566406 188.933594 183.496094 190.160156 180.019531 C 190.160156 180.011719 186.710938 178.980469 185.378906 182.574219 " fill-opacity="1" fill-rule="nonzero"/><path fill="#37ff8b" d="M 195.738281 175.15625 C 195.742188 175.148438 199.285156 176.304688 200.554688 172.9375 C 200.558594 172.933594 197.121094 171.664062 195.738281 175.15625 " fill-opacity="1" fill-rule="nonzero"/><path fill="#37ff8b" d="M 197.023438 171.523438 C 197.023438 171.511719 200.714844 172.105469 201.195312 168.535156 C 201.195312 168.523438 197.597656 167.832031 197.023438 171.523438 " fill-opacity="1" fill-rule="nonzero"/><path fill="#37ff8b" d="M 197.167969 167.492188 C 197.167969 167.484375 200.84375 168.230469 201.511719 164.707031 C 201.511719 164.695312 197.9375 163.84375 197.167969 167.492188 " fill-opacity="1" fill-rule="nonzero"/><path fill="#37ff8b" d="M 197.46875 163.96875 C 197.472656 163.957031 201.148438 164.722656 201.816406 161.203125 C 201.820312 161.191406 198.238281 160.320312 197.46875 163.96875 " fill-opacity="1" fill-rule="nonzero"/><path fill="#37ff8b" d="M 211.253906 155.898438 C 211.253906 155.882812 207.808594 157.601562 210.277344 161.652344 C 210.277344 161.640625 213.695312 160.105469 211.253906 155.898438 " fill-opacity="1" fill-rule="nonzero"/><path fill="#37ff8b" d="M 207.597656 178.882812 C 207.601562 178.886719 204.652344 176.371094 201.457031 178.761719 C 201.457031 178.765625 204.265625 181.144531 207.597656 178.882812 " fill-opacity="1" fill-rule="nonzero"/><path fill="#37ff8b" d="M 205.207031 181.433594 C 205.210938 181.433594 201.894531 179.390625 199.234375 182.296875 C 199.238281 182.296875 202.417969 184.242188 205.207031 181.433594 " fill-opacity="1" fill-rule="nonzero"/><path fill="#37ff8b" d="M 201.039062 184.304688 C 201.039062 184.304688 197.589844 182.542969 195.1875 185.6875 C 195.1875 185.6875 198.5 187.378906 201.039062 184.304688 " fill-opacity="1" fill-rule="nonzero"/><path fill="#37ff8b" d="M 206.164062 163.078125 C 206.164062 163.070312 203.363281 164.785156 205.957031 167.851562 C 205.953125 167.84375 208.746094 166.273438 206.164062 163.078125 " fill-opacity="1" fill-rule="nonzero"/><path fill="#37ff8b" d="M 214.292969 162.8125 C 214.292969 162.804688 211.050781 161.484375 210.007812 164.507812 C 210.011719 164.5 213.152344 165.796875 214.292969 162.8125 " fill-opacity="1" fill-rule="nonzero"/><path fill="#37ff8b" d="M 207.78125 159.574219 C 207.78125 159.574219 205.78125 161.214844 208.21875 163.515625 C 208.21875 163.515625 210.226562 161.988281 207.78125 159.574219 " fill-opacity="1" fill-rule="nonzero"/><path fill="#37ff8b" d="M 215.054688 177.875 C 215.054688 177.867188 212.609375 178.925781 214.417969 181.601562 C 214.417969 181.59375 216.84375 180.648438 215.054688 177.875 " fill-opacity="1" fill-rule="nonzero"/><path fill="#37ff8b" d="M 217.429688 175.8125 C 217.429688 175.804688 214.988281 176.8125 216.789062 179.507812 C 216.789062 179.503906 219.214844 178.605469 217.429688 175.8125 " fill-opacity="1" fill-rule="nonzero"/><g clip-path="url(#15fcc51f66)"><path fill="#37ff8b" d="M 191.601562 150.148438 C 191.601562 150.148438 189.644531 151.964844 192.050781 153.996094 C 192.050781 153.996094 194.015625 152.285156 191.601562 150.148438 " fill-opacity="1" fill-rule="nonzero"/></g><path fill="#37ff8b" d="M 224.246094 166.4375 C 224.246094 166.425781 220.984375 166.542969 222.066406 169.964844 C 222.066406 169.953125 225.273438 169.921875 224.246094 166.4375 " fill-opacity="1" fill-rule="nonzero"/><path fill="#37ff8b" d="M 226.203125 184.074219 C 226.203125 184.066406 224.289062 185.46875 226.609375 187.8125 C 226.609375 187.808594 228.527344 186.523438 226.203125 184.074219 " fill-opacity="1" fill-rule="nonzero"/><path fill="#37ff8b" d="M 235.945312 188.757812 C 235.945312 188.753906 233.160156 187.804688 232.816406 190.398438 C 232.820312 190.398438 235.535156 191.339844 235.945312 188.757812 " fill-opacity="1" fill-rule="nonzero"/><path fill="#37ff8b" d="M 233.046875 177.027344 C 233.050781 177.015625 229.726562 176.015625 229.539062 179.1875 C 229.542969 179.179688 232.785156 180.179688 233.046875 177.027344 " fill-opacity="1" fill-rule="nonzero"/><path fill="#37ff8b" d="M 229.789062 172.078125 C 229.792969 172.066406 226.589844 171.667969 227.101562 174.898438 C 227.105469 174.886719 230.238281 175.335938 229.789062 172.078125 " fill-opacity="1" fill-rule="nonzero"/><path fill="#37ff8b" d="M 234.722656 191.828125 C 234.722656 191.828125 232.144531 190.265625 230.875 192.464844 C 230.878906 192.464844 233.375 193.972656 234.722656 191.828125 " fill-opacity="1" fill-rule="nonzero"/><path fill="#37ff8b" d="M 230.046875 187.964844 C 230.050781 187.957031 227.433594 188.285156 228.582031 191.066406 C 228.582031 191.058594 231.160156 190.808594 230.046875 187.964844 " fill-opacity="1" fill-rule="nonzero"/><path fill="#37ff8b" d="M 220.007812 163.082031 C 220.007812 163.074219 217.898438 164.300781 220.039062 166.8125 C 220.039062 166.808594 222.148438 165.699219 220.007812 163.082031 " fill-opacity="1" fill-rule="nonzero"/><path fill="#37ff8b" d="M 214.832031 159.164062 C 214.835938 159.15625 211.992188 159.03125 212.445312 161.894531 C 212.445312 161.886719 215.230469 162.070312 214.832031 159.164062 " fill-opacity="1" fill-rule="nonzero"/><path fill="#37ff8b" d="M 227.097656 190.207031 C 227.097656 190.199219 224.472656 190.597656 225.625 193.367188 C 225.625 193.359375 228.210938 193.042969 227.097656 190.207031 " fill-opacity="1" fill-rule="nonzero"/><path fill="#37ff8b" d="M 231.1875 197.082031 C 231.1875 197.089844 229.519531 194.789062 226.941406 195.882812 C 226.941406 195.890625 228.523438 198.101562 231.1875 197.082031 " fill-opacity="1" fill-rule="nonzero"/><path fill="#37ff8b" d="M 228.925781 199.253906 C 228.925781 199.261719 227.875 196.800781 224.910156 197.269531 C 224.910156 197.277344 225.878906 199.644531 228.925781 199.253906 " fill-opacity="1" fill-rule="nonzero"/><path fill="#37ff8b" d="M 224.164062 203.277344 C 224.164062 203.285156 223.105469 200.835938 220.132812 201.410156 C 220.132812 201.417969 221.105469 203.78125 224.164062 203.277344 " fill-opacity="1" fill-rule="nonzero"/><path fill="#37ff8b" d="M 228.789062 204.027344 C 228.789062 204.03125 227.738281 201.585938 224.773438 202.089844 C 224.773438 202.097656 225.742188 204.453125 228.789062 204.027344 " fill-opacity="1" fill-rule="nonzero"/><path fill="#37ff8b" d="M 233.050781 198.171875 C 233.050781 198.167969 230.242188 197.644531 230.296875 200.367188 C 230.296875 200.359375 233.042969 200.90625 233.050781 198.171875 " fill-opacity="1" fill-rule="nonzero"/><path fill="#37ff8b" d="M 233.753906 202.761719 C 233.753906 202.765625 231.652344 200.734375 229.527344 202.34375 C 229.527344 202.351562 231.539062 204.300781 233.753906 202.761719 " fill-opacity="1" fill-rule="nonzero"/><path fill="#37ff8b" d="M 233.191406 194.378906 C 233.195312 194.382812 230.835938 192.539062 229.085938 194.441406 C 229.085938 194.441406 231.359375 196.21875 233.191406 194.378906 " fill-opacity="1" fill-rule="nonzero"/><path fill="#37ff8b" d="M 216.246094 196.449219 C 216.246094 196.457031 214.71875 194.144531 211.988281 195.308594 C 211.988281 195.316406 213.421875 197.542969 216.246094 196.449219 " fill-opacity="1" fill-rule="nonzero"/><path fill="#37ff8b" d="M 219.257812 195.589844 C 219.257812 195.59375 217.742188 193.265625 215.007812 194.371094 C 215.007812 194.378906 216.4375 196.617188 219.257812 195.589844 " fill-opacity="1" fill-rule="nonzero"/><path fill="#37ff8b" d="M 221.707031 194.078125 C 221.707031 194.085938 220.332031 191.960938 217.859375 192.914062 C 217.859375 192.917969 219.152344 194.964844 221.707031 194.078125 " fill-opacity="1" fill-rule="nonzero"/><path fill="#37ff8b" d="M 222.667969 191.761719 C 222.667969 191.761719 221.089844 190.535156 219.832031 191.859375 C 219.832031 191.859375 221.34375 193.058594 222.667969 191.761719 " fill-opacity="1" fill-rule="nonzero"/><path fill="#37ff8b" d="M 216.050781 188.289062 C 216.050781 188.277344 212.847656 189.28125 214.65625 192.679688 C 214.65625 192.667969 217.824219 191.792969 216.050781 188.289062 " fill-opacity="1" fill-rule="nonzero"/><path fill="#37ff8b" d="M 218.71875 187.433594 C 218.71875 187.425781 216.140625 188.230469 217.65625 190.996094 C 217.65625 190.988281 220.210938 190.285156 218.71875 187.433594 " fill-opacity="1" fill-rule="nonzero"/><path fill="#37ff8b" d="M 212.679688 189.410156 C 212.679688 189.40625 210.089844 190.3125 211.617188 193.046875 C 211.617188 193.042969 214.179688 192.238281 212.679688 189.410156 " fill-opacity="1" fill-rule="nonzero"/><path fill="#37ff8b" d="M 201.625 170.359375 C 201.621094 170.355469 199.628906 172.109375 202.070312 174.304688 C 202.070312 174.300781 204.078125 172.660156 201.625 170.359375 " fill-opacity="1" fill-rule="nonzero"/><path fill="#37ff8b" d="M 196.304688 176.105469 C 196.300781 176.105469 194.308594 177.933594 196.753906 180.050781 C 196.753906 180.050781 198.757812 178.328125 196.304688 176.105469 " fill-opacity="1" fill-rule="nonzero"/><path fill="#37ff8b" d="M 203.253906 166.230469 C 203.253906 166.226562 200.691406 168.488281 203.882812 171.347656 C 203.882812 171.34375 206.460938 169.234375 203.253906 166.230469 " fill-opacity="1" fill-rule="nonzero"/><path fill="#37ff8b" d="M 204.230469 175.75 C 204.234375 175.75 207.234375 177.917969 209.699219 175.328125 C 209.699219 175.332031 206.828125 173.042969 204.230469 175.75 " fill-opacity="1" fill-rule="nonzero"/><path fill="#37ff8b" d="M 196.890625 192.886719 C 196.894531 192.867188 201.796875 192.066406 200.472656 187.128906 C 200.472656 187.109375 195.644531 187.796875 196.890625 192.886719 " fill-opacity="1" fill-rule="nonzero"/><path fill="#37ff8b" d="M 218.359375 179.523438 C 218.363281 179.507812 223.292969 181.15625 224.328125 176.664062 C 224.332031 176.652344 219.542969 174.808594 218.359375 179.523438 " fill-opacity="1" fill-rule="nonzero"/><path fill="#37ff8b" d="M 222.230469 175.085938 C 222.234375 175.058594 227.175781 175.585938 226.488281 170.683594 C 226.492188 170.660156 221.640625 169.996094 222.230469 175.085938 " fill-opacity="1" fill-rule="nonzero"/><path fill="#37ff8b" d="M 220.332031 190.496094 C 220.335938 190.476562 225.105469 190.078125 223.53125 185.160156 C 223.535156 185.136719 218.828125 185.421875 220.332031 190.496094 " fill-opacity="1" fill-rule="nonzero"/><path fill="#37ff8b" d="M 228.160156 187.515625 C 228.160156 187.5 231.667969 187.394531 230.511719 183.753906 C 230.515625 183.742188 227.058594 183.765625 228.160156 187.515625 " fill-opacity="1" fill-rule="nonzero"/><path fill="#37ff8b" d="M 221.828125 184.601562 C 221.832031 184.589844 225.363281 184.359375 224.199219 180.703125 C 224.199219 180.6875 220.714844 180.835938 221.828125 184.601562 " fill-opacity="1" fill-rule="nonzero"/><path fill="#37ff8b" d="M 232.84375 187.703125 C 232.847656 187.679688 237.019531 186.945312 234.632812 182.308594 C 234.636719 182.28125 230.492188 182.941406 232.84375 187.703125 " fill-opacity="1" fill-rule="nonzero"/><path fill="#37ff8b" d="M 216.007812 167.964844 C 216.007812 167.949219 219.769531 166.085938 216.433594 161.746094 C 216.433594 161.730469 212.675781 163.523438 216.007812 167.964844 " fill-opacity="1" fill-rule="nonzero"/><path fill="#37ff8b" d="M 198.386719 156.8125 C 198.386719 156.800781 201.914062 156.269531 200.855469 152.707031 C 200.859375 152.691406 197.382812 153.148438 198.386719 156.8125 " fill-opacity="1" fill-rule="nonzero"/><path fill="#37ff8b" d="M 207.78125 158.636719 C 207.78125 158.636719 209.488281 156.074219 205.878906 153.875 C 205.875 153.878906 204.128906 156.339844 207.78125 158.636719 " fill-opacity="1" fill-rule="nonzero"/><path fill="#37ff8b" d="M 210.152344 175.6875 C 210.15625 175.671875 215.125 177.121094 216.164062 172.507812 C 216.167969 172.492188 211.335938 170.851562 210.152344 175.6875 " fill-opacity="1" fill-rule="nonzero"/><path fill="#37ff8b" d="M 206.046875 172.542969 C 206.046875 172.542969 208.824219 174.589844 211.109375 172.226562 C 211.109375 172.226562 208.453125 170.078125 206.046875 172.542969 " fill-opacity="1" fill-rule="nonzero"/><path fill="#37ff8b" d="M 207.980469 169.714844 C 207.980469 169.714844 211.023438 171.464844 212.824219 168.808594 C 212.824219 168.808594 209.898438 166.949219 207.980469 169.714844 " fill-opacity="1" fill-rule="nonzero"/><path fill="#37ff8b" d="M 216.570312 168.34375 C 216.570312 168.332031 213.222656 168.308594 213.898438 171.707031 C 213.898438 171.695312 217.183594 171.792969 216.570312 168.34375 " fill-opacity="1" fill-rule="nonzero"/><path fill="#37ff8b" d="M 225.023438 180.113281 C 225.027344 180.089844 229.898438 180.710938 229.167969 175.902344 C 229.171875 175.878906 224.390625 175.125 225.023438 180.113281 " fill-opacity="1" fill-rule="nonzero"/><path fill="#37ff8b" d="M 226.320312 183.074219 C 226.324219 183.0625 230.996094 184.816406 231.851562 180.609375 C 231.855469 180.597656 227.316406 178.65625 226.320312 183.074219 " fill-opacity="1" fill-rule="nonzero"/><path fill="#37ff8b" d="M 209.441406 166.914062 C 209.441406 166.910156 212.484375 168.695312 214.28125 166.070312 C 214.285156 166.070312 211.359375 164.175781 209.441406 166.914062 " fill-opacity="1" fill-rule="nonzero"/><path fill="#37ff8b" d="M 200.839844 193.03125 C 200.839844 193.027344 197.953125 192.425781 197.359375 195.261719 C 197.363281 195.261719 200.167969 195.890625 200.839844 193.03125 " fill-opacity="1" fill-rule="nonzero"/><path fill="#37ff8b" d="M 196.328125 201.046875 C 196.328125 201.042969 199.71875 201.859375 200.628906 198.566406 C 200.628906 198.558594 197.332031 197.648438 196.328125 201.046875 " fill-opacity="1" fill-rule="nonzero"/><path fill="#37ff8b" d="M 196.464844 203.71875 C 196.464844 203.71875 199.796875 205.015625 201.332031 201.820312 C 201.332031 201.816406 198.109375 200.421875 196.464844 203.71875 " fill-opacity="1" fill-rule="nonzero"/><path fill="#37ff8b" d="M 196.757812 197.914062 C 196.757812 197.910156 199.664062 198.609375 200.425781 195.789062 C 200.425781 195.785156 197.601562 195.007812 196.757812 197.914062 " fill-opacity="1" fill-rule="nonzero"/><path fill="#37ff8b" d="M 213.855469 176.984375 C 213.855469 176.980469 211.207031 175.59375 209.886719 178.019531 C 209.886719 178.015625 212.445312 179.375 213.855469 176.984375 " fill-opacity="1" fill-rule="nonzero"/><path fill="#37ff8b" d="M 209.253906 180.875 C 209.257812 180.875 211.847656 182.386719 213.429688 180.105469 C 213.429688 180.105469 210.941406 178.511719 209.253906 180.875 " fill-opacity="1" fill-rule="nonzero"/><path fill="#37ff8b" d="M 216.265625 181.878906 C 216.265625 181.878906 218.84375 183.472656 220.417969 181.285156 C 220.421875 181.285156 217.945312 179.613281 216.265625 181.878906 " fill-opacity="1" fill-rule="nonzero"/><path fill="#37ff8b" d="M 215.0625 183.878906 C 215.0625 183.878906 217.4375 185.695312 219.378906 183.746094 C 219.378906 183.746094 217.109375 181.855469 215.0625 183.878906 " fill-opacity="1" fill-rule="nonzero"/><path fill="#37ff8b" d="M 213.609375 186.296875 C 213.613281 186.296875 215.988281 188.089844 217.929688 186.109375 C 217.929688 186.109375 215.660156 184.246094 213.609375 186.296875 " fill-opacity="1" fill-rule="nonzero"/><path fill="#37ff8b" d="M 203.179688 184.25 C 203.179688 184.253906 203.078125 186.804688 206.378906 187.25 C 206.378906 187.253906 206.566406 184.746094 203.179688 184.25 " fill-opacity="1" fill-rule="nonzero"/><path fill="#37ff8b" d="M 202.84375 187.332031 C 202.84375 187.339844 202.722656 190.367188 206.644531 190.878906 C 206.644531 190.890625 206.863281 187.902344 202.84375 187.332031 " fill-opacity="1" fill-rule="nonzero"/><path fill="#37ff8b" d="M 208.429688 184.078125 C 208.429688 184.074219 211.25 185.105469 212.199219 182.488281 C 212.203125 182.484375 209.46875 181.375 208.429688 184.078125 " fill-opacity="1" fill-rule="nonzero"/><g clip-path="url(#c09b970e3d)"><path fill="#37ff8b" d="M 134.324219 192.886719 C 134.332031 192.914062 134.28125 197.53125 140.574219 196.765625 C 140.582031 196.796875 140.726562 191.960938 134.324219 192.886719 " fill-opacity="1" fill-rule="nonzero"/></g><path fill="#37ff8b" d="M 150.078125 170.953125 C 150.078125 170.960938 146.117188 174.957031 149.675781 178.503906 C 149.675781 178.511719 153.636719 174.714844 150.078125 170.953125 " fill-opacity="1" fill-rule="nonzero"/><path fill="#37ff8b" d="M 219.597656 167.699219 C 219.597656 167.679688 215.546875 170.023438 219.066406 175.046875 C 219.066406 175.027344 223.101562 172.945312 219.597656 167.699219 " fill-opacity="1" fill-rule="nonzero"/><path fill="#37ff8b" d="M 203.871094 155.871094 C 203.871094 155.855469 199.773438 158.617188 203.359375 163.441406 C 203.359375 163.425781 207.441406 160.921875 203.871094 155.871094 " fill-opacity="1" fill-rule="nonzero"/><path fill="#37ff8b" d="M 158.214844 162.347656 C 158.214844 162.347656 155.828125 164.492188 157.746094 166.738281 C 157.742188 166.738281 160.121094 164.710938 158.214844 162.347656 " fill-opacity="1" fill-rule="nonzero"/><path fill="#37ff8b" d="M 158.28125 160.160156 C 158.28125 160.171875 157.792969 162.894531 161.195312 163.1875 C 161.199219 163.195312 161.753906 160.476562 158.28125 160.160156 " fill-opacity="1" fill-rule="nonzero"/><path fill="#37ff8b" d="M 162.472656 156.789062 C 162.46875 156.804688 159.460938 161.1875 164.199219 164.015625 C 164.199219 164.03125 167.257812 159.777344 162.472656 156.789062 " fill-opacity="1" fill-rule="nonzero"/><path fill="#37ff8b" d="M 138.558594 181.515625 C 138.5625 181.53125 139.214844 184.960938 144.167969 183.628906 C 144.171875 183.648438 143.613281 180.058594 138.558594 181.515625 " fill-opacity="1" fill-rule="nonzero"/><path fill="#37ff8b" d="M 157.371094 187.367188 C 157.371094 187.378906 157.191406 191.042969 161.945312 191.132812 C 161.949219 191.148438 162.226562 187.445312 157.371094 187.367188 " fill-opacity="1" fill-rule="nonzero"/><path fill="#37ff8b" d="M 153.859375 163.273438 C 153.855469 163.289062 150.300781 167.828125 154.832031 170.957031 C 154.832031 170.976562 158.421875 166.589844 153.859375 163.273438 " fill-opacity="1" fill-rule="nonzero"/><path fill="#37ff8b" d="M 135.171875 199.183594 C 135.175781 199.191406 137.027344 203.132812 143.222656 200.664062 C 143.230469 200.679688 141.503906 196.476562 135.171875 199.183594 " fill-opacity="1" fill-rule="nonzero"/><path fill="#37ff8b" d="M 142.359375 191.476562 C 142.363281 191.507812 140.128906 196.328125 145.644531 198.011719 C 145.648438 198.039062 147.949219 193.210938 142.359375 191.476562 " fill-opacity="1" fill-rule="nonzero"/><path fill="#37ff8b" d="M 160.480469 194.941406 C 160.480469 194.949219 161.304688 197.902344 165.265625 196.742188 C 165.265625 196.75 164.542969 193.742188 160.480469 194.941406 " fill-opacity="1" fill-rule="nonzero"/><path fill="#37ff8b" d="M 161.136719 172.714844 C 161.136719 172.714844 158.222656 175.203125 160.839844 177.726562 C 160.839844 177.726562 163.75 175.375 161.136719 172.714844 " fill-opacity="1" fill-rule="nonzero"/><path fill="#37ff8b" d="M 158.441406 201.167969 C 158.445312 201.171875 157.277344 197.71875 152.71875 199.488281 C 152.71875 199.496094 153.738281 202.78125 158.441406 201.167969 " fill-opacity="1" fill-rule="nonzero"/><path fill="#37ff8b" d="M 158.96875 170.304688 C 158.96875 170.304688 156.429688 172.355469 158.503906 174.539062 C 158.503906 174.539062 161.035156 172.605469 158.96875 170.304688 " fill-opacity="1" fill-rule="nonzero"/><path fill="#37ff8b" d="M 164.148438 167.152344 C 164.152344 167.160156 162.976562 164.269531 159.105469 166.007812 C 159.109375 166.015625 160.152344 168.753906 164.148438 167.152344 " fill-opacity="1" fill-rule="nonzero"/><path fill="#37ff8b" d="M 166.210938 170.582031 C 166.214844 170.589844 165.039062 167.675781 161.167969 169.347656 C 161.167969 169.355469 162.210938 172.121094 166.210938 170.582031 " fill-opacity="1" fill-rule="nonzero"/><path fill="#37ff8b" d="M 168.371094 173.144531 C 168.375 173.144531 167.550781 171.09375 164.832031 172.199219 C 164.832031 172.203125 165.566406 174.175781 168.371094 173.144531 " fill-opacity="1" fill-rule="nonzero"/><path fill="#37ff8b" d="M 170.941406 171.9375 C 170.941406 171.9375 172.855469 170.292969 170.976562 168.539062 C 170.976562 168.539062 169.0625 170.117188 170.941406 171.9375 " fill-opacity="1" fill-rule="nonzero"/><path fill="#37ff8b" d="M 174.082031 185.632812 C 174.082031 185.632812 175.992188 184.03125 174.121094 182.230469 C 174.121094 182.230469 172.210938 183.757812 174.082031 185.632812 " fill-opacity="1" fill-rule="nonzero"/><path fill="#37ff8b" d="M 206.554688 193.910156 C 206.554688 193.914062 206.953125 191.742188 204.132812 191.089844 C 204.132812 191.089844 203.683594 193.183594 206.554688 193.910156 " fill-opacity="1" fill-rule="nonzero"/><path fill="#37ff8b" d="M 170.851562 175.5 C 170.851562 175.503906 170.03125 173.433594 167.308594 174.496094 C 167.308594 174.5 168.039062 176.492188 170.851562 175.5 " fill-opacity="1" fill-rule="nonzero"/><path fill="#37ff8b" d="M 167.355469 167.734375 C 167.355469 167.734375 168.941406 166.023438 166.992188 164.664062 C 166.992188 164.664062 165.402344 166.304688 167.355469 167.734375 " fill-opacity="1" fill-rule="nonzero"/><path fill="#37ff8b" d="M 169.402344 177.125 C 169.402344 177.125 170.539062 178.824219 172.875 177.554688 C 172.875 177.554688 171.816406 175.820312 169.402344 177.125 " fill-opacity="1" fill-rule="nonzero"/><path fill="#37ff8b" d="M 168.800781 169.761719 C 168.796875 169.757812 170.800781 168.46875 169.417969 166.613281 C 169.417969 166.613281 167.433594 167.839844 168.800781 169.761719 " fill-opacity="1" fill-rule="nonzero"/><path fill="#37ff8b" d="M 153.820312 182.453125 C 153.816406 182.449219 150.644531 184.191406 152.113281 187.058594 C 152.113281 187.054688 155.25 185.453125 153.820312 182.453125 " fill-opacity="1" fill-rule="nonzero"/><path fill="#37ff8b" d="M 155.382812 185.5 C 155.382812 185.496094 152.207031 187.195312 153.675781 190.089844 C 153.671875 190.085938 156.8125 188.523438 155.382812 185.5 " fill-opacity="1" fill-rule="nonzero"/><path fill="#37ff8b" d="M 156.015625 189.058594 C 156.015625 189.058594 153.734375 190.847656 155.558594 192.839844 C 155.558594 192.839844 157.832031 191.148438 156.015625 189.058594 " fill-opacity="1" fill-rule="nonzero"/><path fill="#37ff8b" d="M 146.160156 202.542969 C 146.160156 202.542969 144.703125 200.734375 142.015625 202.652344 C 142.019531 202.648438 143.367188 204.410156 146.160156 202.542969 " fill-opacity="1" fill-rule="nonzero"/><path fill="#37ff8b" d="M 153.410156 205.539062 C 153.410156 205.539062 151.945312 203.640625 149.242188 205.464844 C 149.242188 205.464844 150.597656 207.3125 153.410156 205.539062 " fill-opacity="1" fill-rule="nonzero"/><path fill="#37ff8b" d="M 148.734375 200.601562 C 148.734375 200.605469 149.9375 198.1875 147.117188 197.484375 C 147.117188 197.488281 145.875 199.800781 148.734375 200.601562 " fill-opacity="1" fill-rule="nonzero"/><path fill="#37ff8b" d="M 151.675781 201.824219 C 151.675781 201.832031 152.882812 199.421875 150.054688 198.660156 C 150.054688 198.667969 148.808594 200.972656 151.675781 201.824219 " fill-opacity="1" fill-rule="nonzero"/><path fill="#37ff8b" d="M 152.503906 194.828125 C 152.503906 194.832031 151.171875 192.253906 147.597656 194.179688 C 147.597656 194.179688 148.800781 196.648438 152.503906 194.828125 " fill-opacity="1" fill-rule="nonzero"/><path fill="#37ff8b" d="M 152.542969 179.242188 C 152.542969 179.242188 149.890625 180.835938 151.253906 183.191406 C 151.253906 183.1875 153.882812 181.707031 152.542969 179.242188 " fill-opacity="1" fill-rule="nonzero"/><path fill="#37ff8b" d="M 161.765625 203.121094 C 161.769531 203.121094 160.292969 201.289062 157.753906 203.023438 C 157.757812 203.023438 159.128906 204.808594 161.765625 203.121094 " fill-opacity="1" fill-rule="nonzero"/><path fill="#37ff8b" d="M 161.503906 220.542969 C 161.503906 220.542969 160.035156 218.683594 157.503906 220.355469 C 157.503906 220.355469 158.875 222.171875 161.503906 220.542969 " fill-opacity="1" fill-rule="nonzero"/><path fill="#37ff8b" d="M 142.398438 188.640625 C 142.398438 188.648438 142.785156 191.015625 146.035156 189.992188 C 146.035156 190 145.722656 187.582031 142.398438 188.640625 " fill-opacity="1" fill-rule="nonzero"/><path fill="#37ff8b" d="M 158.039062 167.140625 C 158.039062 167.136719 155.183594 168.675781 156.476562 171.261719 C 156.476562 171.257812 159.296875 169.84375 158.039062 167.140625 " fill-opacity="1" fill-rule="nonzero"/><path fill="#37ff8b" d="M 176.574219 203.886719 C 176.574219 203.886719 174.300781 201.742188 171.441406 204.152344 C 171.441406 204.152344 173.589844 206.242188 176.574219 203.886719 " fill-opacity="1" fill-rule="nonzero"/><path fill="#37ff8b" d="M 162.457031 208.023438 C 162.457031 208.023438 159.871094 209.742188 161.71875 212.148438 C 161.71875 212.148438 164.285156 210.539062 162.457031 208.023438 " fill-opacity="1" fill-rule="nonzero"/><path fill="#37ff8b" d="M 165.308594 208.847656 C 165.308594 208.847656 163.3125 210.152344 164.738281 212.03125 C 164.734375 212.03125 166.71875 210.808594 165.308594 208.847656 " fill-opacity="1" fill-rule="nonzero"/><path fill="#37ff8b" d="M 184.675781 191.300781 C 184.675781 191.296875 181.796875 192.378906 183.078125 195.242188 C 183.078125 195.234375 185.921875 194.261719 184.675781 191.300781 " fill-opacity="1" fill-rule="nonzero"/><path fill="#37ff8b" d="M 158.570312 192.269531 C 158.570312 192.269531 159.621094 194.511719 162.714844 193.160156 C 162.714844 193.160156 161.753906 190.875 158.570312 192.269531 " fill-opacity="1" fill-rule="nonzero"/><path fill="#37ff8b" d="M 163.871094 198.382812 C 163.871094 198.386719 165.265625 201.34375 169.273438 199.695312 C 169.277344 199.703125 168 196.675781 163.871094 198.382812 " fill-opacity="1" fill-rule="nonzero"/><path fill="#37ff8b" d="M 167.585938 201.507812 C 167.585938 201.511719 169.507812 204.25 173.238281 202.164062 C 173.242188 202.171875 171.445312 199.355469 167.585938 201.507812 " fill-opacity="1" fill-rule="nonzero"/><path fill="#37ff8b" d="M 176.820312 200.5625 C 176.820312 200.5625 179.421875 198.171875 176.546875 195.667969 C 176.542969 195.667969 173.941406 197.957031 176.820312 200.5625 " fill-opacity="1" fill-rule="nonzero"/><path fill="#37ff8b" d="M 172.804688 198.679688 C 172.804688 198.683594 175.097656 195.992188 171.886719 193.878906 C 171.886719 193.882812 169.574219 196.457031 172.804688 198.679688 " fill-opacity="1" fill-rule="nonzero"/><path fill="#37ff8b" d="M 169.15625 196.167969 C 169.15625 196.171875 171.304688 193.78125 168.5 191.84375 C 168.5 191.847656 166.339844 194.132812 169.15625 196.167969 " fill-opacity="1" fill-rule="nonzero"/><path fill="#37ff8b" d="M 165.695312 193.707031 C 165.695312 193.714844 167.703125 191.199219 164.777344 189.472656 C 164.777344 189.476562 162.75 191.882812 165.695312 193.707031 " fill-opacity="1" fill-rule="nonzero"/><path fill="#37ff8b" d="M 171.359375 184.449219 C 171.359375 184.453125 173.972656 181.554688 170.558594 179.199219 C 170.558594 179.203125 167.933594 181.980469 171.359375 184.449219 " fill-opacity="1" fill-rule="nonzero"/><path fill="#37ff8b" d="M 167.113281 181.9375 C 167.109375 181.941406 169.921875 179.335938 166.976562 176.820312 C 166.976562 176.820312 164.167969 179.320312 167.113281 181.9375 " fill-opacity="1" fill-rule="nonzero"/><path fill="#37ff8b" d="M 163.660156 179.566406 C 163.660156 179.566406 166.472656 177.386719 164.144531 174.859375 C 164.144531 174.859375 161.34375 176.945312 163.660156 179.566406 " fill-opacity="1" fill-rule="nonzero"/><path fill="#37ff8b" d="M 229.1875 205.136719 C 229.1875 205.148438 230.410156 208.523438 226.175781 208.675781 C 226.171875 208.691406 224.886719 205.304688 229.1875 205.136719 " fill-opacity="1" fill-rule="nonzero"/><path fill="#37ff8b" d="M 232.90625 204.660156 C 232.902344 204.667969 234.070312 207.507812 230.578125 207.695312 C 230.578125 207.703125 229.359375 204.871094 232.90625 204.660156 " fill-opacity="1" fill-rule="nonzero"/><path fill="#37ff8b" d="M 235.90625 203.238281 C 235.90625 203.246094 237.742188 205.949219 234.75 206.796875 C 234.75 206.804688 232.886719 204.148438 235.90625 203.238281 " fill-opacity="1" fill-rule="nonzero"/><path fill="#37ff8b" d="M 211.640625 206.929688 C 211.640625 206.941406 211.097656 203.21875 215.863281 203.605469 C 215.863281 203.617188 216.507812 207.164062 211.640625 206.929688 " fill-opacity="1" fill-rule="nonzero"/><path fill="#37ff8b" d="M 217.328125 208.136719 C 217.324219 208.148438 216.367188 204.570312 220.832031 204.601562 C 220.832031 204.617188 221.875 208.019531 217.328125 208.136719 " fill-opacity="1" fill-rule="nonzero"/><path fill="#37ff8b" d="M 222.214844 208.511719 C 222.214844 208.523438 220.9375 205.289062 224.851562 204.980469 C 224.851562 204.992188 226.191406 208.074219 222.214844 208.511719 " fill-opacity="1" fill-rule="nonzero"/><path fill="#37ff8b" d="M 167.210938 190.492188 C 167.214844 190.484375 170.507812 192.496094 173.5 189.070312 C 173.5 189.066406 170.335938 186.933594 167.210938 190.492188 " fill-opacity="1" fill-rule="nonzero"/><path fill="#37ff8b" d="M 162.804688 188.355469 C 162.804688 188.351562 166.09375 190.273438 169.078125 186.785156 C 169.078125 186.78125 165.917969 184.734375 162.804688 188.355469 " fill-opacity="1" fill-rule="nonzero"/><path fill="#37ff8b" d="M 149.390625 197.039062 C 149.390625 197.039062 151.101562 199.582031 154.820312 197.398438 C 154.820312 197.398438 153.21875 194.765625 149.390625 197.039062 " fill-opacity="1" fill-rule="nonzero"/><path fill="#37ff8b" d="M 144.621094 204.464844 C 144.621094 204.457031 146.980469 206.480469 150.191406 203.699219 C 150.195312 203.695312 147.945312 201.589844 144.621094 204.464844 " fill-opacity="1" fill-rule="nonzero"/><g clip-path="url(#f5066f9d94)"><path fill="#37ff8b" d="M 134.425781 204.019531 C 134.425781 204.011719 136.753906 205.847656 139.933594 202.957031 C 139.933594 202.949219 137.710938 201.023438 134.425781 204.019531 " fill-opacity="1" fill-rule="nonzero"/></g><path fill="#37ff8b" d="M 160.265625 185.742188 C 160.265625 185.738281 162.78125 187.160156 165.0625 184.445312 C 165.0625 184.441406 162.644531 182.941406 160.265625 185.742188 " fill-opacity="1" fill-rule="nonzero"/><path fill="#37ff8b" d="M 156.714844 182.878906 C 156.714844 182.878906 158.710938 184.882812 161.738281 182.550781 C 161.738281 182.550781 159.839844 180.457031 156.714844 182.878906 " fill-opacity="1" fill-rule="nonzero"/><path fill="#37ff8b" d="M 151.429688 213.675781 C 151.429688 213.683594 150.859375 216.921875 154.976562 217.0625 C 154.976562 217.070312 155.625 213.835938 151.429688 213.675781 " fill-opacity="1" fill-rule="nonzero"/><path fill="#37ff8b" d="M 167.0625 216.085938 C 167.0625 216.089844 167.65625 213.320312 164.226562 212.964844 C 164.226562 212.972656 163.566406 215.625 167.0625 216.085938 " fill-opacity="1" fill-rule="nonzero"/><path fill="#37ff8b" d="M 153.296875 218.8125 C 153.300781 218.808594 151.128906 217.21875 148.738281 219.632812 C 148.738281 219.628906 150.792969 221.210938 153.296875 218.8125 " fill-opacity="1" fill-rule="nonzero"/><path fill="#37ff8b" d="M 172.496094 213.753906 C 172.492188 213.757812 173.722656 211.726562 171.253906 210.613281 C 171.253906 210.613281 169.996094 212.5625 172.496094 213.753906 " fill-opacity="1" fill-rule="nonzero"/><path fill="#37ff8b" d="M 163.546875 216.832031 C 163.546875 216.839844 164.234375 213.652344 160.292969 213.292969 C 160.292969 213.300781 159.53125 216.347656 163.546875 216.832031 " fill-opacity="1" fill-rule="nonzero"/><path fill="#37ff8b" d="M 159.441406 217.242188 C 159.441406 217.25 160.105469 214.152344 156.277344 213.867188 C 156.277344 213.875 155.539062 216.832031 159.441406 217.242188 " fill-opacity="1" fill-rule="nonzero"/><path fill="#37ff8b" d="M 167.714844 211.640625 C 167.714844 211.648438 166.964844 214.25 170.21875 214.839844 C 170.21875 214.84375 171.027344 212.28125 167.714844 211.640625 " fill-opacity="1" fill-rule="nonzero"/><path fill="#37ff8b" d="M 146.527344 190.125 C 146.53125 190.136719 146.84375 193.378906 151.207031 192.351562 C 151.210938 192.363281 150.988281 189.042969 146.527344 190.125 " fill-opacity="1" fill-rule="nonzero"/><path fill="#37ff8b" d="M 145.734375 186.847656 C 145.738281 186.859375 146.152344 189.878906 150.257812 188.742188 C 150.257812 188.75 149.929688 185.65625 145.734375 186.847656 " fill-opacity="1" fill-rule="nonzero"/><path fill="#37ff8b" d="M 145.269531 183.445312 C 145.269531 183.453125 145.644531 186.164062 149.332031 185.097656 C 149.335938 185.105469 149.039062 182.335938 145.269531 183.445312 " fill-opacity="1" fill-rule="nonzero"/><path fill="#37ff8b" d="M 146.441406 179.125 C 146.441406 179.128906 145.738281 181.390625 148.492188 181.523438 C 148.492188 181.53125 149.238281 179.28125 146.441406 179.125 " fill-opacity="1" fill-rule="nonzero"/><path fill="#37ff8b" d="M 136.886719 186.367188 C 136.890625 186.371094 137.574219 188.242188 140.316406 186.914062 C 140.316406 186.914062 139.699219 184.992188 136.886719 186.367188 " fill-opacity="1" fill-rule="nonzero"/><path fill="#37ff8b" d="M 154.1875 180.464844 C 154.1875 180.460938 156.183594 182.421875 159.203125 180.042969 C 159.203125 180.042969 157.308594 177.988281 154.1875 180.464844 " fill-opacity="1" fill-rule="nonzero"/><path fill="#37ff8b" d="M 152.605469 176.695312 C 152.609375 176.703125 153.433594 179.3125 157.066406 177.9375 C 157.070312 177.945312 156.332031 175.261719 152.605469 176.695312 " fill-opacity="1" fill-rule="nonzero"/><path fill="#37ff8b" d="M 141.585938 176.054688 C 141.589844 176.074219 139.933594 180.117188 144.714844 180.613281 C 144.71875 180.636719 146.433594 176.574219 141.585938 176.054688 " fill-opacity="1" fill-rule="nonzero"/><path fill="#37ff8b" d="M 145.382812 171.503906 C 145.382812 171.515625 142.988281 174.765625 146.441406 176.308594 C 146.441406 176.320312 148.859375 173.152344 145.382812 171.503906 " fill-opacity="1" fill-rule="nonzero"/><path fill="#37ff8b" d="M 152.15625 173.53125 C 152.15625 173.539062 152.554688 175.726562 155.523438 174.835938 C 155.527344 174.839844 155.199219 172.613281 152.15625 173.53125 " fill-opacity="1" fill-rule="nonzero"/><path fill="#37ff8b" d="M 209.886719 214.996094 C 209.882812 214.996094 210.734375 212.882812 214.085938 214.097656 C 214.085938 214.097656 213.335938 216.140625 209.886719 214.996094 " fill-opacity="1" fill-rule="nonzero"/><path fill="#37ff8b" d="M 212.457031 217.621094 C 212.457031 217.625 212.433594 215.320312 215.9375 215.535156 C 215.933594 215.539062 216.039062 217.738281 212.457031 217.621094 " fill-opacity="1" fill-rule="nonzero"/><path fill="#37ff8b" d="M 215.941406 218.203125 C 215.941406 218.210938 215.417969 215.917969 218.820312 215.570312 C 218.820312 215.574219 219.414062 217.757812 215.941406 218.203125 " fill-opacity="1" fill-rule="nonzero"/><path fill="#37ff8b" d="M 219.558594 218.523438 C 219.558594 218.53125 218.664062 216.296875 221.90625 215.546875 C 221.90625 215.554688 222.855469 217.671875 219.558594 218.523438 " fill-opacity="1" fill-rule="nonzero"/><path fill="#37ff8b" d="M 223.082031 218.0625 C 223.082031 218.070312 222.476562 215.800781 225.835938 215.453125 C 225.835938 215.460938 226.507812 217.617188 223.082031 218.0625 " fill-opacity="1" fill-rule="nonzero"/><path fill="#37ff8b" d="M 226.484375 218.367188 C 226.484375 218.378906 226.183594 215.566406 230.441406 215.75 C 230.441406 215.761719 230.839844 218.414062 226.484375 218.367188 " fill-opacity="1" fill-rule="nonzero"/><path fill="#37ff8b" d="M 218.042969 225.351562 C 218.042969 225.339844 221.355469 223.59375 224.664062 227.695312 C 224.660156 227.683594 221.519531 229.46875 218.042969 225.351562 " fill-opacity="1" fill-rule="nonzero"/><path fill="#37ff8b" d="M 206.917969 214.230469 C 206.917969 214.234375 205.5625 211.644531 208.511719 209.722656 C 208.515625 209.730469 209.90625 212.191406 206.917969 214.230469 " fill-opacity="1" fill-rule="nonzero"/><path fill="#37ff8b" d="M 204.25 215.8125 C 204.25 215.816406 202.265625 213.804688 204.476562 210.871094 C 204.476562 210.871094 206.464844 212.765625 204.25 215.8125 " fill-opacity="1" fill-rule="nonzero"/><path fill="#37ff8b" d="M 216.902344 213.777344 C 216.90625 213.769531 213.167969 213.800781 213.367188 209.980469 C 213.367188 209.96875 217.023438 209.882812 216.902344 213.777344 " fill-opacity="1" fill-rule="nonzero"/><path fill="#37ff8b" d="M 221.570312 214.15625 C 221.570312 214.148438 217.84375 214.113281 218.046875 210.328125 C 218.046875 210.316406 221.691406 210.304688 221.570312 214.15625 " fill-opacity="1" fill-rule="nonzero"/><g clip-path="url(#2925118a71)"><path fill="#37ff8b" d="M 240.585938 203.984375 C 240.585938 204 241.710938 207.152344 237.445312 206.734375 C 237.441406 206.75 236.253906 203.554688 240.585938 203.984375 " fill-opacity="1" fill-rule="nonzero"/></g><path fill="#37ff8b" d="M 239.703125 198.242188 C 239.695312 198.265625 240.261719 202.449219 234.453125 200.902344 C 234.449219 200.925781 233.792969 196.585938 239.703125 198.242188 " fill-opacity="1" fill-rule="nonzero"/><path fill="#37ff8b" d="M 225.21875 213.914062 C 225.21875 213.910156 222.375 213.832031 222.527344 210.960938 C 222.53125 210.953125 225.3125 210.992188 225.21875 213.914062 " fill-opacity="1" fill-rule="nonzero"/><path fill="#37ff8b" d="M 229.847656 212.992188 C 229.847656 212.984375 226.957031 213.507812 226.265625 210.628906 C 226.269531 210.621094 229.078125 210.0625 229.847656 212.992188 " fill-opacity="1" fill-rule="nonzero"/><path fill="#37ff8b" d="M 233.425781 212.464844 C 233.425781 212.457031 230.542969 212.921875 229.855469 210.054688 C 229.859375 210.046875 232.660156 209.550781 233.425781 212.464844 " fill-opacity="1" fill-rule="nonzero"/><path fill="#37ff8b" d="M 237.199219 210.734375 C 237.199219 210.726562 234.769531 212.050781 232.898438 209.609375 C 232.898438 209.601562 235.238281 208.242188 237.199219 210.734375 " fill-opacity="1" fill-rule="nonzero"/><path fill="#37ff8b" d="M 221.273438 223.109375 C 221.273438 223.105469 218.277344 223.566406 217.886719 220.65625 C 217.886719 220.648438 220.808594 220.152344 221.273438 223.109375 " fill-opacity="1" fill-rule="nonzero"/><path fill="#37ff8b" d="M 218.230469 227.972656 C 218.230469 227.96875 215.140625 228.09375 215.230469 225.191406 C 215.230469 225.1875 218.253906 225.019531 218.230469 227.972656 " fill-opacity="1" fill-rule="nonzero"/><path fill="#37ff8b" d="M 213.679688 227.070312 C 213.679688 227.066406 210.644531 226.21875 211.9375 223.605469 C 211.9375 223.605469 214.933594 224.394531 213.679688 227.070312 " fill-opacity="1" fill-rule="nonzero"/><path fill="#37ff8b" d="M 209.765625 225.449219 C 209.769531 225.449219 207.175781 223.75 209.460938 221.746094 C 209.460938 221.75 212.042969 223.367188 209.765625 225.449219 " fill-opacity="1" fill-rule="nonzero"/><path fill="#37ff8b" d="M 205.792969 223.667969 C 205.792969 223.671875 204.378906 221.117188 207.566406 220.40625 C 207.566406 220.414062 209.019531 222.871094 205.792969 223.667969 " fill-opacity="1" fill-rule="nonzero"/><path fill="#37ff8b" d="M 217.761719 222.757812 C 217.761719 222.75 214.761719 223.25 214.367188 220.324219 C 214.367188 220.320312 217.292969 219.78125 217.761719 222.757812 " fill-opacity="1" fill-rule="nonzero"/><path fill="#37ff8b" d="M 224.980469 222.648438 C 224.980469 222.640625 221.992188 223.054688 221.601562 220.160156 C 221.601562 220.152344 224.515625 219.707031 224.980469 222.648438 " fill-opacity="1" fill-rule="nonzero"/><path fill="#37ff8b" d="M 229.03125 220.960938 C 229.03125 220.953125 226.398438 222.25 224.753906 219.769531 C 224.753906 219.765625 227.292969 218.433594 229.03125 220.960938 " fill-opacity="1" fill-rule="nonzero"/><path fill="#37ff8b" d="M 239.679688 208.976562 C 239.679688 208.972656 237.878906 210.15625 236.167969 208.316406 C 236.167969 208.3125 237.894531 207.09375 239.679688 208.976562 " fill-opacity="1" fill-rule="nonzero"/><path fill="#37ff8b" d="M 135.664062 206.445312 C 135.664062 206.433594 138.585938 209.535156 143.585938 205.816406 C 143.585938 205.8125 140.800781 202.53125 135.664062 206.445312 " fill-opacity="1" fill-rule="nonzero"/><path fill="#37ff8b" d="M 144.226562 216.625 C 144.226562 216.617188 146.648438 219.558594 150.996094 216.671875 C 150.996094 216.667969 148.707031 213.628906 144.226562 216.625 " fill-opacity="1" fill-rule="nonzero"/><path fill="#37ff8b" d="M 149.449219 222.195312 C 149.449219 222.1875 152.222656 224.78125 156.03125 221.703125 C 156.03125 221.699219 153.394531 219.023438 149.449219 222.195312 " fill-opacity="1" fill-rule="nonzero"/><path fill="#37ff8b" d="M 147.464844 211.886719 C 147.464844 211.875 151 212.050781 151.917969 208.457031 C 151.917969 208.445312 148.476562 208.210938 147.464844 211.886719 " fill-opacity="1" fill-rule="nonzero"/><path fill="#37ff8b" d="M 157.480469 212.121094 C 157.480469 212.113281 160.976562 210.855469 159.871094 207.488281 C 159.867188 207.484375 156.425781 208.664062 157.480469 212.121094 " fill-opacity="1" fill-rule="nonzero"/><path fill="#37ff8b" d="M 152.421875 212.875 C 152.421875 212.867188 156.488281 212.277344 155.851562 208.425781 C 155.851562 208.417969 151.863281 208.949219 152.421875 212.875 " fill-opacity="1" fill-rule="nonzero"/><path fill="#37ff8b" d="M 143.625 210.03125 C 143.625 210.023438 146.3125 211.203125 148.460938 208.261719 C 148.460938 208.253906 145.875 207.015625 143.625 210.03125 " fill-opacity="1" fill-rule="nonzero"/><path fill="#37ff8b" d="M 141.171875 208.550781 C 141.171875 208.546875 143.160156 209.660156 145.117188 207.40625 C 145.117188 207.402344 143.210938 206.242188 141.171875 208.550781 " fill-opacity="1" fill-rule="nonzero"/><path fill="#37ff8b" d="M 154.066406 224.300781 C 154.066406 224.296875 156.070312 225.617188 158.042969 223.476562 C 158.042969 223.472656 156.125 222.117188 154.066406 224.300781 " fill-opacity="1" fill-rule="nonzero"/><path fill="#37ff8b" d="M 166.828125 225.28125 C 166.828125 225.28125 170.125 223.699219 168.398438 220.484375 C 168.398438 220.484375 165.140625 221.972656 166.828125 225.28125 " fill-opacity="1" fill-rule="nonzero"/><path fill="#37ff8b" d="M 171.964844 223.652344 C 171.964844 223.652344 175.125 221.191406 171.863281 218.527344 C 171.863281 218.53125 168.703125 220.878906 171.964844 223.652344 " fill-opacity="1" fill-rule="nonzero"/><path fill="#37ff8b" d="M 162.003906 225.691406 C 162.003906 225.6875 165.308594 225.308594 165.15625 222.019531 C 165.15625 222.015625 161.921875 222.328125 162.003906 225.691406 " fill-opacity="1" fill-rule="nonzero"/><path fill="#37ff8b" d="M 158.664062 225.730469 C 158.664062 225.726562 161.316406 225.632812 161.496094 222.984375 C 161.496094 222.980469 158.914062 223.019531 158.664062 225.730469 " fill-opacity="1" fill-rule="nonzero"/><g fill="#ffffff" fill-opacity="1"><g transform="translate(126.109112, 121.216377)"><g><path d="M 5.859375 -20.25 L 5.859375 -13.203125 L 17.140625 -13.203125 L 17.140625 -10.453125 L 5.859375 -10.453125 L 5.859375 0 L 2.75 0 L 2.75 -23.015625 L 18.6875 -23.015625 L 18.6875 -20.25 Z M 5.859375 -20.25 "/></g></g></g><g fill="#ffffff" fill-opacity="1"><g transform="translate(146.389822, 121.216377)"><g><path d="M 11.46875 -2.140625 C 13.375 -2.140625 14.859375 -2.6875 15.921875 -3.78125 C 16.992188 -4.875 17.53125 -6.390625 17.53125 -8.328125 L 17.53125 -23.015625 L 20.640625 -23.015625 L 20.640625 -8.140625 C 20.640625 -6.429688 20.285156 -4.921875 19.578125 -3.609375 C 18.867188 -2.296875 17.820312 -1.265625 16.4375 -0.515625 C 15.050781 0.234375 13.363281 0.609375 11.375 0.609375 C 9.519531 0.609375 7.925781 0.257812 6.59375 -0.4375 C 5.269531 -1.144531 4.257812 -2.125 3.5625 -3.375 C 2.875 -4.625 2.53125 -6.0625 2.53125 -7.6875 L 2.53125 -23.015625 L 5.640625 -23.015625 L 5.640625 -8.390625 C 5.640625 -6.429688 6.140625 -4.898438 7.140625 -3.796875 C 8.148438 -2.691406 9.59375 -2.140625 11.46875 -2.140625 Z M 11.46875 -2.140625 "/></g></g></g><g fill="#ffffff" fill-opacity="1"><g transform="translate(170.226863, 121.216377)"><g><path d="M 11.34375 -20.25 L 11.34375 0 L 8.234375 0 L 8.234375 -20.25 L 0.453125 -20.25 L 0.453125 -23.015625 L 19.125 -23.015625 L 19.125 -20.25 Z M 11.34375 -20.25 "/></g></g></g><g fill="#ffffff" fill-opacity="1"><g transform="translate(190.507575, 121.216377)"><g><path d="M 19.234375 -16.28125 L 16.3125 -16.28125 C 16.25 -17.75 15.707031 -18.894531 14.6875 -19.71875 C 13.675781 -20.539062 12.316406 -20.953125 10.609375 -20.953125 C 8.941406 -20.953125 7.648438 -20.601562 6.734375 -19.90625 C 5.816406 -19.21875 5.359375 -18.222656 5.359375 -16.921875 C 5.359375 -15.378906 6.265625 -14.40625 8.078125 -14 L 14.515625 -12.53125 C 18.085938 -11.71875 19.875 -9.632812 19.875 -6.28125 C 19.875 -4.019531 19.03125 -2.304688 17.34375 -1.140625 C 15.65625 0.0234375 13.484375 0.609375 10.828125 0.609375 C 7.835938 0.609375 5.546875 -0.0664062 3.953125 -1.421875 C 2.359375 -2.785156 1.5625 -4.789062 1.5625 -7.4375 L 4.484375 -7.4375 L 4.484375 -7.375 C 4.484375 -5.707031 5.054688 -4.398438 6.203125 -3.453125 C 7.347656 -2.515625 8.890625 -2.046875 10.828125 -2.046875 C 12.535156 -2.046875 13.96875 -2.347656 15.125 -2.953125 C 16.28125 -3.566406 16.859375 -4.566406 16.859375 -5.953125 C 16.859375 -6.859375 16.660156 -7.5625 16.265625 -8.0625 C 15.867188 -8.5625 15.285156 -8.953125 14.515625 -9.234375 C 13.742188 -9.523438 12.566406 -9.851562 10.984375 -10.21875 L 7.109375 -11.125 C 5.484375 -11.488281 4.28125 -12.144531 3.5 -13.09375 C 2.726562 -14.039062 2.34375 -15.175781 2.34375 -16.5 C 2.34375 -17.914062 2.65625 -19.15625 3.28125 -20.21875 C 3.914062 -21.289062 4.820312 -22.125 6 -22.71875 C 7.1875 -23.320312 8.601562 -23.625 10.25 -23.625 C 16.039062 -23.625 19.035156 -21.175781 19.234375 -16.28125 Z M 19.234375 -16.28125 "/></g></g></g><g fill="#ffffff" fill-opacity="1"><g transform="translate(212.582466, 121.216377)"><g><path d="M 2.921875 0 L 2.921875 -23.015625 L 6.03125 -23.015625 L 6.03125 0 Z M 2.921875 0 "/></g></g></g><g fill="#ffffff" fill-opacity="1"><g transform="translate(222.194192, 121.216377)"><g><path d="M 13.421875 -3.5625 L 19.96875 -23.015625 L 24.390625 -23.015625 L 24.390625 0 L 21.375 0 L 21.375 -13.71875 L 21.40625 -18.015625 C 21.425781 -18.285156 21.4375 -18.722656 21.4375 -19.328125 L 21.375 -19.328125 L 14.90625 0 L 11.828125 0 L 5.359375 -19.296875 L 5.28125 -19.296875 C 5.332031 -16.941406 5.359375 -15.082031 5.359375 -13.71875 L 5.359375 0 L 2.34375 0 L 2.34375 -23.015625 L 6.796875 -23.015625 L 13.359375 -3.5625 Z M 13.421875 -3.5625 "/></g></g></g><path stroke-linecap="butt" transform="matrix(0.75, 0, 0, 0.75, 105.563662, 127.737268)" fill="none" stroke-linejoin="miter" d="M -0.00154876 2.501352 L 218.498466 2.501352 " stroke="#37ff8b" stroke-width="5" stroke-opacity="1" stroke-miterlimit="4"/><g fill="#ffffff" fill-opacity="1"><g transform="translate(123.385238, 155.200617)"><g><path d="M 5.859375 -6.34375 C 6.898438 -7.675781 7.5 -8.722656 7.65625 -9.484375 C 7.695312 -9.734375 7.71875 -9.96875 7.71875 -10.1875 C 7.71875 -10.695312 7.523438 -11.109375 7.140625 -11.421875 C 6.753906 -11.734375 6.195312 -11.890625 5.46875 -11.890625 C 4.78125 -11.890625 4.070312 -11.707031 3.34375 -11.34375 C 2.675781 -11.007812 2.203125 -10.632812 1.921875 -10.21875 L 1.78125 -10.1875 L 1.859375 -13.359375 C 2.484375 -13.765625 3.351562 -14.0625 4.46875 -14.25 C 4.8125 -14.3125 5.140625 -14.34375 5.453125 -14.34375 C 7.234375 -14.34375 8.5625 -13.914062 9.4375 -13.0625 C 10.1875 -12.34375 10.5625 -11.390625 10.5625 -10.203125 C 10.5625 -9.378906 10.304688 -8.5 9.796875 -7.5625 C 9.359375 -6.769531 8.785156 -5.914062 8.078125 -5 L 6 -2.4375 L 9.421875 -2.4375 C 9.890625 -2.4375 10.253906 -2.453125 10.515625 -2.484375 C 10.785156 -2.523438 11.015625 -2.617188 11.203125 -2.765625 L 11.265625 -2.734375 L 10.5 0.15625 L 9.34375 0.09375 C 7.34375 -0.0195312 4.519531 -0.0234375 0.875 0.078125 Z M 5.859375 -6.34375 "/></g></g></g><g fill="#ffffff" fill-opacity="1"><g transform="translate(137.114081, 155.200617)"><g><path d="M 1.125 -6.84375 C 1.125 -7.90625 1.28125 -8.894531 1.59375 -9.8125 C 1.90625 -10.738281 2.34375 -11.539062 2.90625 -12.21875 C 4.113281 -13.632812 5.640625 -14.34375 7.484375 -14.34375 C 9.253906 -14.34375 10.675781 -13.675781 11.75 -12.34375 C 12.78125 -11.039062 13.296875 -9.320312 13.296875 -7.1875 C 13.296875 -4.769531 12.671875 -2.890625 11.421875 -1.546875 C 10.296875 -0.335938 8.851562 0.265625 7.09375 0.265625 C 5.394531 0.265625 3.976562 -0.390625 2.84375 -1.703125 C 1.695312 -3.035156 1.125 -4.75 1.125 -6.84375 Z M 4.828125 -3.484375 C 5.140625 -3.085938 5.507812 -2.773438 5.9375 -2.546875 C 6.363281 -2.328125 6.800781 -2.21875 7.25 -2.21875 C 7.695312 -2.21875 8.113281 -2.316406 8.5 -2.515625 C 8.894531 -2.710938 9.25 -3.007812 9.5625 -3.40625 C 10.257812 -4.3125 10.609375 -5.492188 10.609375 -6.953125 C 10.609375 -8.453125 10.3125 -9.648438 9.71875 -10.546875 C 9.113281 -11.421875 8.300781 -11.859375 7.28125 -11.859375 C 6.25 -11.859375 5.414062 -11.398438 4.78125 -10.484375 C 4.132812 -9.554688 3.8125 -8.363281 3.8125 -6.90625 C 3.8125 -5.5 4.148438 -4.359375 4.828125 -3.484375 Z M 4.828125 -3.484375 "/></g></g></g><g fill="#ffffff" fill-opacity="1"><g transform="translate(225.672842, 155.200617)"><g><path d="M 5.859375 -6.34375 C 6.898438 -7.675781 7.5 -8.722656 7.65625 -9.484375 C 7.695312 -9.734375 7.71875 -9.96875 7.71875 -10.1875 C 7.71875 -10.695312 7.523438 -11.109375 7.140625 -11.421875 C 6.753906 -11.734375 6.195312 -11.890625 5.46875 -11.890625 C 4.78125 -11.890625 4.070312 -11.707031 3.34375 -11.34375 C 2.675781 -11.007812 2.203125 -10.632812 1.921875 -10.21875 L 1.78125 -10.1875 L 1.859375 -13.359375 C 2.484375 -13.765625 3.351562 -14.0625 4.46875 -14.25 C 4.8125 -14.3125 5.140625 -14.34375 5.453125 -14.34375 C 7.234375 -14.34375 8.5625 -13.914062 9.4375 -13.0625 C 10.1875 -12.34375 10.5625 -11.390625 10.5625 -10.203125 C 10.5625 -9.378906 10.304688 -8.5 9.796875 -7.5625 C 9.359375 -6.769531 8.785156 -5.914062 8.078125 -5 L 6 -2.4375 L 9.421875 -2.4375 C 9.890625 -2.4375 10.253906 -2.453125 10.515625 -2.484375 C 10.785156 -2.523438 11.015625 -2.617188 11.203125 -2.765625 L 11.265625 -2.734375 L 10.5 0.15625 L 9.34375 0.09375 C 7.34375 -0.0195312 4.519531 -0.0234375 0.875 0.078125 Z M 5.859375 -6.34375 "/></g></g></g><g fill="#ffffff" fill-opacity="1"><g transform="translate(239.401686, 155.200617)"><g><path d="M 9.75 -5.953125 C 10.820312 -5.953125 11.710938 -6.046875 12.421875 -6.234375 L 12.46875 -6.15625 L 11.703125 -3.703125 L 9.75 -3.703125 L 9.75 0 L 7.0625 0 L 7.0625 -3.703125 L 0.546875 -3.703125 L 0.5 -4.484375 L 6.34375 -14.046875 L 9.75 -14.078125 Z M 7.0625 -5.953125 L 7.0625 -10.96875 L 4.171875 -5.953125 Z M 7.0625 -5.953125 "/></g></g></g></svg>