<?xml version="1.0" encoding="UTF-8" standalone="no"?>
<!DOCTYPE svg PUBLIC "-//W3C//DTD SVG 1.1//EN" "http://www.w3.org/Graphics/SVG/1.1/DTD/svg11.dtd">
<svg width="100%" height="100%" viewBox="0 0 269 320" version="1.1" xmlns="http://www.w3.org/2000/svg" xmlns:xlink="http://www.w3.org/1999/xlink" xml:space="preserve" xmlns:serif="http://www.serif.com/" style="fill-rule:evenodd;clip-rule:evenodd;">
    <g transform="matrix(1,0,0,1,-115.543,-90.2197)">
        <g>
            <g>
                <clipPath id="_clip1">
                    <path d="M210.813,388.047C222.88,392.151 236.599,394.844 250.063,394.844C263.526,394.844 276.484,392.536 288.422,388.432C288.677,388.302 288.932,388.302 289.188,388.177C334.026,371.76 367.052,328.417 367.688,277.766L367.688,105.156L132.313,105.156L132.313,277.635C132.948,328.672 165.469,372.016 210.813,388.047Z"/>
                </clipPath>
                <g clip-path="url(#_clip1)">
                    <rect x="132.313" y="105.156" width="235.375" height="289.615" style="fill-rule:nonzero;"/>
                </g>
            </g>
        </g>
        <g>
            <clipPath id="_clip2">
                <rect x="140.281" y="114.958" width="219" height="270"/>
            </clipPath>
            <g clip-path="url(#_clip2)">
                <g>
                    <clipPath id="_clip3">
                        <path d="M213.464,378.703C224.714,382.526 237.505,385.036 250.057,385.036C262.609,385.036 274.693,382.885 285.823,379.057C286.057,378.943 286.297,378.943 286.531,378.823C328.333,363.516 359.125,323.109 359.719,275.885L359.719,114.958L140.281,114.958L140.281,275.766C140.87,323.349 171.188,363.755 213.464,378.703Z"/>
                    </clipPath>
                    <g clip-path="url(#_clip3)">
                        <g transform="matrix(0.75,0,0,0.75,140.28,114.961)">
                            <path d="M97.578,351.656C112.578,356.754 129.633,360.101 146.369,360.101C163.106,360.101 179.217,357.233 194.057,352.129C194.369,351.976 194.689,351.976 195.001,351.816C250.737,331.406 291.793,277.531 292.585,214.566L292.585,-0.003L0.001,-0.003L0.001,214.406C0.786,277.851 41.21,331.726 97.578,351.656Z" style="fill:none;fill-rule:nonzero;stroke:rgb(55,255,139);stroke-width:16px;"/>
                        </g>
                    </g>
                </g>
            </g>
        </g>
        <path d="M297.563,337.75C294.401,338.078 291.109,338.198 290.719,337.104C289.62,334.052 285.771,333.151 286.177,332.771C286.333,332.62 287.703,332.698 289.974,333.109C291.089,333.313 294.422,334.391 295.526,334.625C296.094,334.745 296.568,334.943 296.969,335.146C298.599,335.979 301.396,336.234 303.542,336.75C304.708,337.031 305.677,337.682 306.172,337.844C305.594,337.151 304.719,336.906 304.25,336.724C303.417,336.406 302.688,336.094 301.922,335.958C300.651,335.74 299.859,335.667 298.932,335.208C296.693,334.109 295.443,333.589 293.271,333.255C293.365,333.016 297.172,332.703 298.797,332.771C300.5,332.839 303.276,333.266 305.333,333.151C306.078,333.109 306.708,332.979 307.411,332.901C308.109,332.828 308.953,333.031 309.724,333.203C309.052,332.802 307.682,332.656 306.63,332.688C305.578,332.719 304.609,332.865 303.495,332.802C301.865,332.708 300.26,332.182 298.62,332.068C296.469,331.922 294.813,332.531 292.656,332.396C291.453,332.318 290.328,331.958 289.12,331.797C286.104,331.38 281.104,332.016 276.755,331.771C274.51,331.641 271.943,331.682 270.031,331.13C268.479,330.677 265.297,328.688 265.125,328.417C264.651,327.651 266.818,327.089 268.479,327.255C270.146,327.427 271.401,327.646 273.068,327.807C275.089,328 277.245,327.932 279.266,327.839C280.922,327.76 284.385,327.635 286.057,327.776C288.964,328.01 290.104,328.484 293.01,328.734C291.37,328.375 289.703,328.047 288.089,327.667C286.141,327.203 283.401,327.271 282.281,327.276C270.974,327.333 271.49,325.406 264.745,324.99C261.62,324.802 256.146,324.734 253.01,324.833C250.953,324.896 248.891,325.354 246.833,325.375C245.766,325.38 244.703,325.385 243.641,325.396C243.13,325.396 242.495,324.667 242.286,324.859C241.318,324.76 238.807,325.245 238.682,325.255C237.266,325.365 235.661,325.313 234.313,325.526C233.219,325.698 231.245,326.177 230.62,326.667C229.099,327.318 227.615,328.052 225.698,328.38C224.891,328.521 224.036,328.583 223.26,328.76C221.542,329.141 220.458,329.984 218.828,330.453C217.234,330.911 215.307,330.958 213.51,330.911C211.719,330.865 209.922,330.734 208.12,330.891C206.313,331.047 204.438,331.563 203.755,332.365C205.385,331.375 208.427,331.266 210.932,331.427C213.438,331.578 216.125,331.88 218.495,331.328C220.25,330.922 221.531,330.094 223.359,329.781C224.005,329.672 224.818,329.656 225.224,329.896C225.594,330.109 225.391,330.432 225.26,330.714C224.615,332.094 223.349,332.281 221.969,332.917C220.974,333.38 219.885,333.578 218.651,333.88C216.589,334.38 214.266,334.719 212.016,334.922C209.771,335.12 207.411,335.464 205.813,336.266C204.891,336.724 204.302,337.302 203.443,337.786C201.469,338.896 198.62,339.667 197.755,341.005C197.266,341.76 197.208,342.422 197.172,343.188C197.13,343.938 196.568,344.698 195.583,345.328C196.708,344.578 197.729,344.052 198.182,343.188C198.677,342.224 198.38,341.271 199.755,340.479C200.938,339.797 203.042,338.813 204.354,338.172C205.188,337.771 205.75,337.49 206.516,337.063C208.234,336.089 210.339,335.948 212.885,335.609C215.432,335.276 218.557,334.708 221.005,334.224C223.458,333.734 225.938,332.578 226.693,331.385C227.036,330.839 226.88,330.552 227.266,330.01C227.958,329.047 229.797,328.339 231.714,327.854C233.63,327.375 234.531,326.88 237.833,326.844C238.542,326.839 242.198,326.495 243.719,327.396C244.542,327.875 243.656,328.469 242.969,329.016C241.396,330.266 238.49,330.984 235.906,331.802C233.323,332.615 230.74,333.771 230.578,335.203C230.484,336.021 230.609,336.781 231.427,337.599C232.156,338.323 233.036,338.932 230.276,339.417C228.818,339.672 226.297,339.557 224.88,339.875C223.375,340.208 222.682,340.922 221.464,341.458C219.786,342.198 217.51,342.208 215.276,342.354C211.859,342.578 208.813,343.839 207.667,345.349C208.349,344.74 209.839,344.37 211.063,343.943C213.833,342.979 217.448,343.271 219.625,342.938C218.818,344.052 219.974,345.896 220.542,347.016C221.161,348.255 220.068,348.266 219.839,349.813C219.677,350.896 220.635,352.151 222.792,352.516C221.474,352.021 221.167,351.13 221.344,350.328C221.521,349.531 222.083,348.745 222.13,347.943C222.234,346.286 219.859,344.354 221.875,342.958C223.359,341.927 223.76,341.125 226.125,340.703C229.604,340.094 233.286,340.484 234.432,339.099C234.938,338.49 233.943,337.651 233.672,337.026C232.125,333.391 239.234,332.531 239.786,332.781C240.573,333.13 238.823,334.276 240.052,335.328C240.88,336.036 242.917,336.349 243.37,337.135C243.797,337.865 242.427,338.557 242.021,339.302C241.177,340.844 244.583,342.396 243.422,343.891C242.313,345.328 238.198,345.469 235.411,346.255C231.266,347.438 230.479,350.552 233.938,352.063C231.609,350.016 232.521,347.615 236.427,346.984C238.146,346.714 240.198,346.464 241.755,346.021C243.286,345.594 244.339,344.271 246.099,344.229C247.411,344.198 248.375,345.755 249.005,346.292C249.641,346.828 249.958,347.443 250.62,347.974C251.703,348.844 253.745,349.589 253.469,350.594C253.328,351.094 253.146,351.453 253.125,352.057C254.536,351.13 254.661,349.813 253.427,348.849C252.677,348.26 251.469,347.792 251.052,347.13C250.776,346.698 249.729,344.917 249.313,344.51C247.786,343.031 246.031,343.344 244.911,341.792C242.615,338.599 247.516,338.734 246.453,337.281C245.516,336 241.578,335.328 241.953,333.974C242.214,333.042 244.453,332.521 245.385,331.688C245.792,331.318 245.938,330.901 246.354,330.542C247.073,329.917 248.625,329.531 250.109,329.609C251.589,329.688 251.958,330.474 252.344,331.151C253.193,332.635 250.771,333.901 251.661,335.38C251.938,335.844 252.615,336.266 252.552,336.745C252.49,337.193 251.781,337.563 251.323,337.958C250.26,338.875 250.573,340.094 252.057,340.854C253.573,341.63 255.917,341.87 257.901,342.359C259.88,342.849 261.693,343.911 260.802,344.88C262.021,344.057 261.839,342.849 260.391,342.12C259.182,341.516 257.375,341.286 255.823,340.891C254.266,340.5 252.797,339.745 253.208,338.938C253.573,338.224 255.245,337.766 255.417,337.042C255.495,336.734 255.505,336.401 255.245,336.115C253.026,333.693 255.854,331.589 262.146,334.12C264.24,334.964 262.5,336.49 264.141,337.094C266.026,337.776 270.958,336.901 272.042,337.901C273.063,338.844 269.438,340.589 269.531,341.641C269.63,342.698 271.745,343.495 272.224,344.526C272.885,345.958 270.276,347.25 269.755,348.698C269.307,349.943 270.604,351.286 272.896,351.948C270.854,351.224 270.964,349.755 271.802,348.62C272.641,347.479 274.021,346.375 273.844,345.177C273.688,344.089 272.25,343.12 271.807,342.042C271.365,340.964 272.745,339.844 275.057,339.698C280.641,339.344 278.542,342.37 280.932,343.547C283.177,344.651 288.932,345.37 288.927,347.422C288.927,348.354 288.724,349.557 286.984,350.031C290.422,349.224 291.495,346.891 289.057,345.484C287.042,344.318 280.719,342.964 281.75,341.844C281.417,342.208 287.448,342.521 292.354,341.958C295.245,341.625 298.271,342.484 299.078,343.807C298.401,342.698 296.922,341.828 294.813,341.531C292.698,341.234 291.12,341.469 288.943,341.51C286.766,341.547 283.776,341.698 282.24,340.958C281.109,340.411 281.167,339.318 279.813,338.896C278.568,338.505 276.859,338.542 275.719,338.089C274.828,337.74 274.49,337.167 273.729,336.75C271.458,335.505 265.911,337.271 265.766,335.656C265.578,333.599 262.875,332.531 260.172,332.161C258.391,331.917 256.594,331.516 255.635,330.771C254.682,330.026 254.87,328.922 256.401,328.438C257.938,327.953 260.109,328.271 261.505,328.854C262.901,329.438 263.792,330.234 264.979,330.911C267.818,332.531 273.089,333.12 277.474,332.922C278.755,332.849 286.578,332.625 288.438,336.542C288.901,337.526 289.87,338.609 291.859,339.042C294.24,339.557 297.359,338.104 299.698,338.682C301.625,339.156 301.964,340.938 303.109,341.781C304.396,342.724 306.906,343.01 309.083,343.51C305.766,342.745 304.068,341.505 303.005,340.37C301.797,339.089 301.115,337.38 297.563,337.75" style="fill:rgb(55,255,139);fill-rule:nonzero;"/>
        <g>
            <clipPath id="_clip4">
                <rect x="208.396" y="325.74" width="90.917" height="35.464"/>
            </clipPath>
            <g clip-path="url(#_clip4)">
                <path d="M218.339,342.526C220.849,343.042 223.458,343.255 223.771,341.797C224.635,337.734 227.693,336.62 227.37,336.099C227.245,335.896 226.161,335.969 224.354,336.469C223.469,336.719 220.823,338.089 219.948,338.375C219.495,338.526 219.12,338.771 218.802,339.042C217.51,340.12 215.286,340.396 213.578,341.031C212.656,341.375 211.885,342.234 211.495,342.438C211.948,341.51 212.646,341.208 213.021,340.974C213.682,340.568 214.26,340.161 214.865,340.005C215.875,339.74 216.505,339.667 217.24,339.073C219.016,337.646 220.016,336.984 221.734,336.589C221.661,336.271 218.635,335.75 217.344,335.786C215.99,335.828 213.781,336.318 212.146,336.089C211.552,336.005 211.047,335.807 210.49,335.677C209.932,335.552 209.26,335.792 208.646,336C209.182,335.474 210.271,335.328 211.109,335.411C211.948,335.495 212.719,335.729 213.604,335.682C214.901,335.615 216.177,334.948 217.479,334.849C219.193,334.719 220.51,335.578 222.224,335.453C223.182,335.38 224.073,334.927 225.031,334.734C227.427,334.255 231.396,335.198 234.849,334.917C236.63,334.776 238.661,334.854 240.182,334.141C241.406,333.563 243.938,330.964 244.073,330.615C244.453,329.615 242.729,328.859 241.411,329.057C240.094,329.26 239.094,329.536 237.771,329.729C236.172,329.958 234.458,329.833 232.854,329.672C231.536,329.542 228.786,329.302 227.464,329.443C225.151,329.682 224.245,330.286 221.938,330.536C223.24,330.104 224.563,329.714 225.849,329.245C227.391,328.682 229.568,328.839 230.464,328.87C239.438,329.156 239.026,326.583 244.38,326.109C246.859,325.896 251.198,325.833 253.682,325.953C255.313,326.031 256.948,326.62 258.583,326.63C259.422,326.635 260.266,326.635 261.109,326.635C261.516,326.63 262.021,325.677 262.182,325.922C262.953,325.786 264.542,326.448 264.745,326.401C264.839,326.38 264.943,326.391 265.042,326.401C266.167,326.526 267.432,326.432 268.505,326.688C269.37,326.896 270.932,327.479 271.427,328.099C272.635,328.911 273.807,329.828 275.323,330.214C275.964,330.375 276.641,330.438 277.255,330.646C278.615,331.094 279.474,332.161 280.76,332.719C282.026,333.266 283.552,333.266 284.974,333.146C286.396,333.026 287.823,332.797 289.255,332.932C290.688,333.068 292.172,333.661 292.708,334.677C291.422,333.453 289.005,333.432 287.021,333.724C285.031,334.01 282.901,334.484 281.021,333.839C279.635,333.365 278.62,332.328 277.172,331.974C276.661,331.849 276.016,331.844 275.693,332.161C275.401,332.453 275.557,332.865 275.661,333.224C276.167,335 277.172,335.208 278.266,335.995C279.052,336.563 279.911,336.797 280.885,337.146C282.521,337.734 284.365,338.099 286.141,338.286C287.922,338.474 289.797,338.828 291.057,339.807C291.786,340.37 292.255,341.094 292.932,341.688C294.49,343.047 296.75,343.932 297.427,345.63C297.813,346.594 297.854,347.448 297.88,348.443C297.911,349.411 298.354,350.375 299.13,351.151C298.24,350.229 297.432,349.589 297.078,348.479C296.688,347.25 296.932,346.005 295.844,345.031C294.906,344.193 293.245,343 292.203,342.224C291.547,341.734 291.099,341.391 290.495,340.865C289.141,339.672 287.469,339.557 285.453,339.208C283.438,338.859 280.958,338.219 279.021,337.661C277.083,337.099 275.115,335.656 274.526,334.13C274.255,333.432 274.38,333.052 274.073,332.359C273.531,331.13 272.073,330.25 270.557,329.661C269.036,329.078 268.323,328.448 265.714,328.453C265.151,328.453 262.25,328.057 261.042,329.234C260.391,329.87 261.089,330.63 261.63,331.333C262.875,332.948 265.177,333.844 267.224,334.854C269.266,335.87 271.313,337.307 271.432,339.167C271.505,340.224 271.401,341.214 270.755,342.281C270.177,343.24 269.474,344.052 271.656,344.62C272.813,344.917 274.807,344.708 275.932,345.078C277.12,345.469 277.667,346.38 278.63,347.042C279.958,347.953 281.76,347.896 283.531,348.016C286.234,348.198 288.646,349.729 289.547,351.646C289.01,350.875 287.833,350.453 286.859,349.938C284.667,348.786 281.807,349.276 280.083,348.901C280.719,350.323 279.792,352.74 279.344,354.208C278.844,355.828 279.714,355.818 279.885,357.813C280.01,359.208 279.25,360.865 277.542,361.391C278.583,360.719 278.828,359.557 278.693,358.526C278.557,357.495 278.115,356.49 278.078,355.453C278,353.313 279.891,350.745 278.297,348.99C277.13,347.698 276.813,346.667 274.943,346.193C272.188,345.479 269.271,346.068 268.365,344.292C267.969,343.516 268.76,342.411 268.974,341.589C270.214,336.849 264.583,335.859 264.146,336.188C263.521,336.656 264.901,338.12 263.927,339.5C263.271,340.432 261.656,340.87 261.297,341.901C260.958,342.854 262.042,343.734 262.359,344.693C263.021,346.682 260.323,348.755 261.234,350.688C262.115,352.536 265.365,352.635 267.568,353.604C270.849,355.042 271.464,359.057 268.719,361.099C270.573,358.391 269.854,355.297 266.766,354.568C265.406,354.25 263.786,353.964 262.552,353.422C261.344,352.896 260.51,351.193 259.12,351.167C258.083,351.146 257.313,353.188 256.813,353.896C256.313,354.609 256.057,355.411 255.531,356.115C254.677,357.26 253.057,358.266 253.276,359.573C253.385,360.224 253.526,360.693 253.542,361.479C252.427,360.292 252.333,358.568 253.307,357.292C253.906,356.516 254.859,355.885 255.193,355.021C255.411,354.453 256.245,352.115 256.578,351.578C257.786,349.635 259.172,350.016 260.063,347.979C261.891,343.797 258.005,344.036 258.854,342.13C259.599,340.448 262.719,339.526 262.422,337.771C262.219,336.563 260.453,335.917 259.714,334.833C259.396,334.365 259.276,333.823 258.948,333.354C258.38,332.552 257.151,332.063 255.974,332.172C254.802,332.281 254.51,333.307 254.198,334.188C253.526,336.135 255.443,337.766 254.734,339.708C254.516,340.313 253.974,340.865 254.026,341.49C254.073,342.078 254.635,342.552 254.995,343.068C255.833,344.25 255.583,345.844 254.406,346.849C253.208,347.875 251.349,348.214 249.781,348.865C248.214,349.521 246.771,350.927 247.479,352.188C246.516,351.125 246.661,349.536 247.813,348.573C248.766,347.771 250.198,347.458 251.427,346.932C252.661,346.406 253.828,345.411 253.5,344.354C253.214,343.438 251.891,342.844 251.755,341.901C251.693,341.5 251.688,341.063 251.891,340.688C253.656,337.516 251.417,334.786 246.432,338.104C244.771,339.208 246.146,341.208 244.844,342C243.349,342.901 239.443,341.74 238.583,343.052C237.776,344.292 240.646,346.599 240.568,347.984C240.49,349.37 238.818,350.427 238.438,351.786C237.911,353.677 239.979,355.37 240.385,357.271C240.745,358.911 239.714,360.693 237.901,361.583C239.521,360.609 239.432,358.677 238.766,357.182C238.104,355.688 237.01,354.234 237.151,352.651C237.276,351.214 238.417,349.927 238.766,348.51C239.115,347.089 238.026,345.615 236.193,345.411C231.766,344.917 233.432,348.927 231.536,350.484C229.76,351.948 225.198,352.87 225.203,355.609C225.203,356.854 225.37,358.469 226.745,359.099C224.026,358.026 223.172,354.885 225.099,353.021C226.698,351.479 231.708,349.714 230.891,348.219C231.156,348.703 226.375,349.089 222.479,348.271C220.188,347.786 217.786,348.891 217.146,350.667C217.682,349.177 218.854,348.031 220.531,347.667C222.203,347.297 223.458,347.635 225.182,347.714C226.911,347.786 229.281,348.01 230.5,347.042C231.396,346.328 231.349,344.87 232.422,344.323C233.411,343.818 234.766,343.875 235.672,343.281C236.375,342.823 236.641,342.073 237.245,341.526C239.047,339.901 243.443,342.24 243.557,340.115C243.708,337.406 245.854,336.021 247.995,335.536C249.406,335.214 250.833,334.688 251.594,333.708C252.354,332.74 252.203,331.292 250.99,330.661C249.771,330.026 248.047,330.438 246.943,331.198C245.833,331.958 245.125,333.005 244.182,333.891C241.938,336 237.755,336.75 234.281,336.432C233.26,336.333 227.052,335.896 225.583,341.089C225.214,342.391 224.448,343.828 222.87,344.375C220.979,345.026 218.5,343.016 216.646,343.74C215.109,344.339 214.844,346.74 213.938,347.859C212.922,349.109 210.927,349.443 209.203,350.083C211.833,349.109 213.177,347.458 214.021,345.953C214.974,344.24 215.51,341.953 218.339,342.526" style="fill:rgb(55,255,139);fill-rule:nonzero;"/>
            </g>
        </g>
        <path d="M289.016,266.021L289.469,265.849L289.677,265.917C291.76,266.573 293.583,267.047 295.26,267.354C296.901,267.651 298.573,267.859 300.266,267.984C299.776,267.911 299.286,267.833 298.807,267.75C296.922,267.411 294.724,266.823 292.266,266.005L290.563,265.438L292.698,264.646C299.005,262.333 303.089,259.422 305.714,256.781C303.495,258.266 300.911,259.536 298.385,260.667L297.25,261.172L297.505,259.958C297.891,258.135 298.401,256.604 299.031,255.406C298.698,255.891 298.385,256.411 298.099,256.969C297.542,258.052 297.083,259.443 296.734,261.089L296.667,261.411L296.359,261.542C292.755,263.052 288.854,264.516 285.083,265.932C281.302,267.354 277.729,268.698 274.677,269.995L272.927,270.74L273.885,269.094C274.568,267.922 275.135,266.839 275.62,265.766C276.307,264.245 277.016,262.318 277.766,260.281L277.964,259.75L278.365,259.714C280.401,259.552 282.078,259.297 283.479,258.943C283.948,258.828 284.406,258.698 284.849,258.557C283.276,258.896 281.344,259.135 279.089,259.26L278.12,259.313L278.458,258.406C279.844,254.708 281.943,249.089 285.38,244.448C283.135,246.557 280.948,249.297 279.464,252.76C279.292,253.151 279.13,253.536 278.969,253.917L278.25,255.646L277.776,253.833C277.224,251.734 276.911,249.844 276.844,248.224C276.802,247.203 276.802,245.828 276.948,244.229C276.505,246.349 276.266,248.745 276.453,251.339C276.578,253.016 276.948,254.953 277.557,257.089L277.615,257.297L277.479,257.651C275.557,262.578 274.193,266.932 270.021,271.969L269.333,272.5C266.953,273.766 264.583,275.26 262.297,276.943L261.516,277.516L261.307,276.568C260.599,273.38 260.292,270.563 260.391,268.188C260.448,266.755 260.635,264.714 261.141,262.344C260.193,265.109 259.484,268.354 259.448,271.901C259.427,273.745 259.646,275.865 260.099,278.203L260.172,278.573L259.88,278.813C257.193,280.995 255.229,282.948 254.052,284.203L253.255,285.057L252.979,283.917C252.563,282.193 252.177,280.12 251.87,278.453C251.599,277.005 251.37,275.75 251.219,275.266C250.495,272.984 251.828,259.068 254.708,250.193L254.755,250.052L255.167,249.641C256.667,248.146 257.854,246.969 259.339,245.568L260.12,244.818C263.286,241.781 267.828,237.422 271.844,231.885C270.12,234.078 268.115,236.266 265.797,238.333C262.589,241.208 259.609,243.943 256.943,246.453L255.13,247.969C255.469,247 256.583,243.865 256.911,242.938C258.24,239.182 260.536,232.682 261.385,224.833C261.01,227.297 260.432,229.839 259.589,232.385L259.266,233.349L258.026,232.12C256.417,230.536 255.026,229.172 254.047,227.49C253.635,226.781 253.224,226.063 252.839,225.307C253.344,226.474 253.984,227.703 254.802,228.984C255.542,230.156 256.901,231.828 258.724,233.833L258.979,234.115L258,236.792C252.911,250.703 249.234,260.755 248.083,268.458L247.828,270.146L246.922,268.698C244.646,265.068 242.51,261.073 240.573,256.818L240.427,256.5L240.62,256.208C241.922,254.245 242.927,252.438 243.604,250.839C245.115,247.297 245.651,243.984 245.719,241.177C245.302,243.885 244.563,246.156 243.969,247.672C243.24,249.542 242.052,251.708 240.443,254.115L239.792,255.083L239.333,254.01C237.583,249.891 235.984,245.505 234.589,240.969L234.495,240.672L234.677,240.417C236.026,238.495 236.984,236.839 237.604,235.359C238.167,234.031 238.536,232.75 238.771,231.547C238.573,232.193 238.375,232.76 238.193,233.229C237.573,234.833 236.51,236.724 235.026,238.854L234.271,239.938L233.901,238.667C232.177,232.745 231.026,227.401 230.281,223.188C230.432,225.672 230.771,228.661 231.453,232.208L231.745,233.724L230.474,232.849C227.693,230.938 225.589,229.203 224.057,227.552C223.974,227.464 223.885,227.37 223.802,227.271C224.51,228.198 225.297,229.115 226.182,230.01C227.594,231.458 229.427,232.953 231.771,234.594L231.974,234.734L232.031,234.974C233.036,239.479 234.479,244.391 236.323,249.578L236.797,250.922L235.484,250.37C230.302,248.214 217.62,242.557 211.792,236.661C211.651,236.521 211.51,236.37 211.375,236.219C212.115,237.161 212.948,238.099 213.891,239C219.432,244.328 229.25,249.255 236.422,252.849L236.813,253.047L236.901,253.276C237.182,254.026 237.474,254.786 237.766,255.563C239.422,259.953 241.302,264.932 243.854,270.297L244.411,271.464L243.151,271.188C239.51,270.38 237.229,269.406 234.583,268.286L234.115,268.083C230.688,266.635 227.469,264.875 224.578,262.911C227.771,265.651 232.146,268.641 237.839,270.932C238.74,271.297 239.438,271.641 240.109,271.969C241.359,272.583 242.443,273.115 244.411,273.578L244.698,273.646L244.828,273.911C245.063,274.38 246.792,283.979 246.807,284.078L247.01,285.156C247.068,285.328 245.76,284.651 245.776,284.661C245.609,284.542 244.526,283.969 243.266,283.307C235.339,279.13 214.281,268.042 206.203,258.448C205.26,257.271 204.385,255.917 203.599,254.432C204.714,256.844 206.214,259.328 208.234,261.714C212.974,267.354 220.245,271.625 227.276,275.75L229.786,277.531L227.328,277.203C215.469,275.156 205.068,272.12 196.266,268.135C199.693,269.922 204.417,271.938 211.01,273.964L212.609,274.453L211.026,275.167C209.906,275.547 208.854,275.839 207.906,276.031C207.115,276.188 206.313,276.318 205.5,276.422C207.5,276.359 209.469,276.125 211.365,275.719C211.646,275.656 213.521,274.875 213.703,274.792C219.359,276.484 226.208,278.25 234.63,280.188L234.734,280.208L234.828,280.271C236.047,281.036 237.125,281.755 238.115,282.448L239.516,283.438L237.813,283.594C236.146,283.75 234.484,284.193 232.885,284.896C232.068,285.26 231.297,285.75 230.484,286.271C229.865,286.667 229.224,287.078 228.536,287.443C225.328,289.151 221.792,289.786 219.208,290.255C217.755,290.516 216.245,290.714 214.729,290.844L214.771,290.844C217.552,290.844 220.323,290.589 222.995,290.083L223.042,290.068L225.198,289.74L223.542,291.198C221.552,292.688 219.359,294.234 216.901,295.344C218.208,294.906 219.745,294.271 221.531,293.365C222.589,292.823 223.698,292.224 224.771,291.646C229.37,289.172 234.125,286.609 238.313,286.609C241.245,286.609 243.63,287.896 245.406,290.443C247.146,292.917 247.563,296.146 247.724,298.354C248.453,308.422 246.682,320.188 241.214,325.146C242.411,325.255 243.943,326.057 245.109,326.057C245.427,326.057 246.766,326.693 247.01,326.682C252.156,326.323 256.313,325.651 261.375,325.417C260.411,322.448 257.375,311.75 258.302,304.88C259.865,293.307 268.63,291.969 275.089,291.969C275.786,291.969 276.526,291.984 277.401,292.016L277.656,292.021L277.833,292.208C278.766,293.188 279.682,294.031 280.557,294.714C282.073,295.891 283.661,296.854 285.198,297.635C284.24,296.969 283.406,296.344 282.745,295.844C281.948,295.25 281.089,294.422 280.036,293.245L278.99,292.078L280.552,292.193C281.125,292.24 281.708,292.281 282.302,292.328C284.161,292.479 286.083,292.63 288.146,292.703C289.141,292.745 290.109,292.766 291.01,292.766C292.307,292.766 293.448,292.724 294.453,292.651C290.563,292.651 286.396,291.948 282.375,291.271C279.589,290.802 276.714,290.318 274.01,290.083L271.724,289.885L273.792,288.885C274.651,288.469 275.458,288.026 276.208,287.568C274.214,288.458 272.432,289.005 271.161,289.328C269.828,289.656 267.115,290.188 266.094,290.385C265.932,290.417 265.74,290.453 265.74,290.453C261.495,291.359 258.833,293.219 257.349,294.62L256.531,295.396L256.25,294.052C255.87,292.266 255.542,290.719 255.948,289.557C257.536,284.984 264.609,278.505 269.125,275.37L269.354,275.208L271.177,275.62C279.182,277.432 289.151,279.693 296.75,279.693C297.198,279.688 297.641,279.682 298.078,279.667C291.531,279.354 282.047,277.531 272.156,274.651L270.766,274.245L272.01,273.5C277.135,270.448 282.641,268.396 289.016,266.021" style="fill:rgb(55,255,139);fill-rule:nonzero;"/>
        <path d="M227.208,203.786C227.203,203.807 222.813,209.729 229.365,214.188C229.359,214.203 233.823,208.505 227.208,203.786" style="fill:rgb(55,255,139);fill-rule:nonzero;"/>
        <path d="M181.526,251.307C181.531,251.333 181.01,256.089 187.188,255.724C187.193,255.75 187.813,250.875 181.526,251.307" style="fill:rgb(55,255,139);fill-rule:nonzero;"/>
        <path d="M188.083,246.422C188.083,246.438 187.818,250.234 192.771,249.885C192.776,249.901 193.135,246.047 188.083,246.422" style="fill:rgb(55,255,139);fill-rule:nonzero;"/>
        <path d="M233.13,205.573C233.13,205.573 230.042,208.385 232.969,211.568C232.969,211.568 236.063,208.917 233.13,205.573" style="fill:rgb(55,255,139);fill-rule:nonzero;"/>
        <path d="M235.245,203.766C235.24,203.771 234.417,205.974 236.906,207.526C237.063,206.818 237.74,205.365 235.245,203.766" style="fill:rgb(55,255,139);fill-rule:nonzero;"/>
        <path d="M252.849,202.734C252.849,202.714 246.594,206.615 250.906,213.375C250.901,213.354 257.115,209.802 252.849,202.734" style="fill:rgb(55,255,139);fill-rule:nonzero;"/>
        <path d="M259.443,201.594C259.438,201.594 255.089,206.917 261.719,212.323C261.719,212.328 266.135,207.307 259.443,201.594" style="fill:rgb(55,255,139);fill-rule:nonzero;"/>
        <path d="M222.729,211.531C222.729,211.563 219.531,217.948 226.99,221.156C226.99,221.188 230.297,214.906 222.729,211.531" style="fill:rgb(55,255,139);fill-rule:nonzero;"/>
        <path d="M236.604,210.391C236.599,210.359 229.464,213.385 231.786,220.63C231.781,220.599 238.807,217.906 236.604,210.391" style="fill:rgb(55,255,139);fill-rule:nonzero;"/>
        <path d="M242.406,211.703C242.401,211.688 237.104,213.755 238.823,219.182C238.818,219.167 244.031,217.318 242.406,211.703" style="fill:rgb(55,255,139);fill-rule:nonzero;"/>
        <path d="M256.156,213.182C256.151,213.161 250.849,214.885 252.552,220.427C252.547,220.406 257.76,218.891 256.156,213.182" style="fill:rgb(55,255,139);fill-rule:nonzero;"/>
        <path d="M241.906,202.234C241.906,202.214 236.599,204.307 238.318,209.729C238.318,209.708 243.536,207.844 241.906,202.234" style="fill:rgb(55,255,139);fill-rule:nonzero;"/>
        <path d="M246.25,221.49C246.25,221.469 240.589,222.188 240.625,227.901C240.625,227.885 246.146,227.318 246.25,221.49" style="fill:rgb(55,255,139);fill-rule:nonzero;"/>
        <path d="M257.479,216.188C257.474,216.193 254.938,219.724 259.589,222.484C259.583,222.49 262.182,219.109 257.479,216.188" style="fill:rgb(55,255,139);fill-rule:nonzero;"/>
        <path d="M198.021,223.609C198.026,223.625 196.969,227.844 202.193,227.818C202.193,227.833 203.339,223.594 198.021,223.609" style="fill:rgb(55,255,139);fill-rule:nonzero;"/>
        <path d="M244.552,228.885C244.552,228.87 239.688,229.271 239.984,234.083C239.984,234.073 244.729,233.797 244.552,228.885" style="fill:rgb(55,255,139);fill-rule:nonzero;"/>
        <path d="M267.344,210.25C267.344,210.229 262.474,210.094 262.74,214.922C262.74,214.911 267.505,215.141 267.344,210.25" style="fill:rgb(55,255,139);fill-rule:nonzero;"/>
        <path d="M250.26,229.266C250.26,229.26 246.333,229.75 246.917,233.641C246.917,233.635 250.76,233.255 250.26,229.266" style="fill:rgb(55,255,139);fill-rule:nonzero;"/>
        <path d="M250.297,221.146C250.297,221.156 250.094,217.635 245.62,217.823C245.62,217.839 245.719,221.198 250.297,221.146" style="fill:rgb(55,255,139);fill-rule:nonzero;"/>
        <path d="M251.177,225.344C251.177,225.349 251.005,222.286 247.104,222.427C247.104,222.432 247.188,225.375 251.177,225.344" style="fill:rgb(55,255,139);fill-rule:nonzero;"/>
        <path d="M252.651,227.76C252.651,227.76 251.646,225.464 248.729,226.422C248.729,226.427 249.646,228.641 252.651,227.76" style="fill:rgb(55,255,139);fill-rule:nonzero;"/>
        <path d="M256.057,233.125C256.057,233.135 254.719,230.042 250.828,231.281C250.828,231.292 252.047,234.255 256.057,233.125" style="fill:rgb(55,255,139);fill-rule:nonzero;"/>
        <path d="M247.526,225.276C247.526,225.271 243.875,226.677 245.583,230.286C245.583,230.276 249.188,229.01 247.526,225.276" style="fill:rgb(55,255,139);fill-rule:nonzero;"/>
        <path d="M257.688,210.849C257.688,210.859 256.099,213.953 260.177,215.771C260.172,215.776 261.828,212.781 257.688,210.849" style="fill:rgb(55,255,139);fill-rule:nonzero;"/>
        <g>
            <path d="M244.969,200.297C244.969,200.307 243.385,203.5 247.479,205.078C247.474,205.089 249.125,201.974 244.969,200.297" style="fill:rgb(55,255,139);fill-rule:nonzero;"/>
        </g>
        <path d="M221.427,206.052C221.427,206.063 219.865,209.411 223.932,210.5C223.932,210.51 225.557,207.224 221.427,206.052" style="fill:rgb(55,255,139);fill-rule:nonzero;"/>
        <path d="M242.938,241.646C242.938,241.646 245.911,238.193 241.625,235.297C241.625,235.302 238.625,238.615 242.938,241.646" style="fill:rgb(55,255,139);fill-rule:nonzero;"/>
        <path d="M249.62,216.708C249.62,216.724 250.531,212.474 245.135,211.568C245.135,211.583 244.13,215.635 249.62,216.708" style="fill:rgb(55,255,139);fill-rule:nonzero;"/>
        <path d="M247.391,238.344C247.391,238.333 251.609,238.135 251.396,233.964C251.396,233.953 247.266,234.047 247.391,238.344" style="fill:rgb(55,255,139);fill-rule:nonzero;"/>
        <path d="M230.833,257.839C230.833,257.828 235.026,257.38 234.797,253.224C234.797,253.214 230.693,253.568 230.833,257.839" style="fill:rgb(55,255,139);fill-rule:nonzero;"/>
        <path d="M239.995,222.469C239.995,222.458 244.229,222.13 244.005,217.958C244.005,217.948 239.859,218.182 239.995,222.469" style="fill:rgb(55,255,139);fill-rule:nonzero;"/>
        <path d="M242.516,210.286C242.516,210.276 246.76,209.995 246.542,205.823C246.542,205.813 242.385,205.995 242.516,210.286" style="fill:rgb(55,255,139);fill-rule:nonzero;"/>
        <path d="M239.229,241.87C239.229,241.88 237.234,246.078 242.516,247.969C242.516,247.979 244.594,243.885 239.229,241.87" style="fill:rgb(55,255,139);fill-rule:nonzero;"/>
        <path d="M233.771,225.266C233.766,225.276 231.776,229.516 237.073,231.271C237.073,231.281 239.151,227.13 233.771,225.266" style="fill:rgb(55,255,139);fill-rule:nonzero;"/>
        <path d="M234.771,220.87C234.771,220.88 233.615,224.536 238.245,225.51C238.245,225.521 239.484,221.917 234.771,220.87" style="fill:rgb(55,255,139);fill-rule:nonzero;"/>
        <path d="M255.51,221.646C255.505,221.656 253.495,225.714 258.792,227.969C258.792,227.974 260.891,224.042 255.51,221.646" style="fill:rgb(55,255,139);fill-rule:nonzero;"/>
        <path d="M256.385,257.969C256.385,257.974 253.87,261.552 258.479,264.224C258.479,264.229 261.052,260.797 256.385,257.969" style="fill:rgb(55,255,139);fill-rule:nonzero;"/>
        <path d="M258.141,254.208C258.141,254.208 256.563,257.333 260.604,259.083C260.604,259.089 262.245,256.073 258.141,254.208" style="fill:rgb(55,255,139);fill-rule:nonzero;"/>
        <path d="M254.438,263.464C254.438,263.469 252.443,267.573 257.693,269.724C257.693,269.734 259.771,265.76 254.438,263.464" style="fill:rgb(55,255,139);fill-rule:nonzero;"/>
        <path d="M254.37,269.802C254.37,269.807 252.375,273.911 257.62,276.057C257.62,276.063 259.698,272.089 254.37,269.802" style="fill:rgb(55,255,139);fill-rule:nonzero;"/>
        <path d="M250.833,246.547C250.833,246.531 245.729,246.104 245.12,251.188C245.12,251.172 250.078,251.688 250.833,246.547" style="fill:rgb(55,255,139);fill-rule:nonzero;"/>
        <path d="M247.172,243.432C247.172,243.422 251.911,244.661 253.547,240.026C253.547,240.016 248.948,238.641 247.172,243.432" style="fill:rgb(55,255,139);fill-rule:nonzero;"/>
        <path d="M260.984,233.542C260.99,233.531 265.714,235.073 267.406,230.583C267.411,230.578 262.828,228.885 260.984,233.542" style="fill:rgb(55,255,139);fill-rule:nonzero;"/>
        <path d="M262.698,228.698C262.698,228.682 267.62,229.474 268.26,224.714C268.26,224.698 263.464,223.776 262.698,228.698" style="fill:rgb(55,255,139);fill-rule:nonzero;"/>
        <path d="M262.891,223.323C262.891,223.313 267.792,224.307 268.682,219.609C268.682,219.594 263.917,218.458 262.891,223.323" style="fill:rgb(55,255,139);fill-rule:nonzero;"/>
        <path d="M263.292,218.625C263.297,218.609 268.198,219.63 269.089,214.938C269.094,214.922 264.318,213.76 263.292,218.625" style="fill:rgb(55,255,139);fill-rule:nonzero;"/>
        <path d="M281.672,207.865C281.672,207.844 277.078,210.135 280.37,215.536C280.37,215.521 284.927,213.474 281.672,207.865" style="fill:rgb(55,255,139);fill-rule:nonzero;"/>
        <path d="M276.797,238.51C276.802,238.516 272.87,235.161 268.609,238.349C268.609,238.354 272.354,241.526 276.797,238.51" style="fill:rgb(55,255,139);fill-rule:nonzero;"/>
        <path d="M273.609,241.911C273.615,241.911 269.193,239.188 265.646,243.063C265.651,243.063 269.891,245.656 273.609,241.911" style="fill:rgb(55,255,139);fill-rule:nonzero;"/>
        <path d="M268.052,245.74C268.052,245.74 263.453,243.391 260.25,247.583C260.25,247.583 264.667,249.839 268.052,245.74" style="fill:rgb(55,255,139);fill-rule:nonzero;"/>
        <path d="M274.885,217.438C274.885,217.427 271.151,219.714 274.609,223.802C274.604,223.792 278.328,221.698 274.885,217.438" style="fill:rgb(55,255,139);fill-rule:nonzero;"/>
        <path d="M285.724,217.083C285.724,217.073 281.401,215.313 280.01,219.344C280.016,219.333 284.203,221.063 285.724,217.083" style="fill:rgb(55,255,139);fill-rule:nonzero;"/>
        <path d="M277.042,212.766C277.042,212.766 274.375,214.953 277.625,218.021C277.625,218.021 280.302,215.984 277.042,212.766" style="fill:rgb(55,255,139);fill-rule:nonzero;"/>
        <path d="M286.74,237.167C286.74,237.156 283.479,238.568 285.891,242.135C285.891,242.125 289.125,240.865 286.74,237.167" style="fill:rgb(55,255,139);fill-rule:nonzero;"/>
        <path d="M289.906,234.417C289.906,234.406 286.651,235.75 289.052,239.344C289.052,239.339 292.286,238.141 289.906,234.417" style="fill:rgb(55,255,139);fill-rule:nonzero;"/>
        <g>
            <clipPath id="_clip5">
                <rect x="253.333" y="200.203" width="4" height="5.13"/>
            </clipPath>
            <g clip-path="url(#_clip5)">
                <path d="M255.469,200.198C255.469,200.198 252.859,202.62 256.068,205.328C256.068,205.328 258.688,203.047 255.469,200.198" style="fill:rgb(55,255,139);fill-rule:nonzero;"/>
            </g>
        </g>
        <path d="M298.995,221.917C298.995,221.901 294.646,222.057 296.089,226.62C296.089,226.604 300.365,226.563 298.995,221.917" style="fill:rgb(55,255,139);fill-rule:nonzero;"/>
        <path d="M301.604,245.432C301.604,245.422 299.052,247.292 302.146,250.417C302.146,250.411 304.703,248.698 301.604,245.432" style="fill:rgb(55,255,139);fill-rule:nonzero;"/>
        <path d="M314.594,251.677C314.594,251.672 310.88,250.406 310.422,253.865C310.427,253.865 314.047,255.12 314.594,251.677" style="fill:rgb(55,255,139);fill-rule:nonzero;"/>
        <path d="M310.729,236.036C310.734,236.021 306.302,234.688 306.052,238.917C306.057,238.906 310.38,240.24 310.729,236.036" style="fill:rgb(55,255,139);fill-rule:nonzero;"/>
        <path d="M306.385,229.438C306.391,229.422 302.12,228.891 302.802,233.198C302.807,233.182 306.984,233.781 306.385,229.438" style="fill:rgb(55,255,139);fill-rule:nonzero;"/>
        <path d="M312.964,255.771C312.964,255.771 309.526,253.688 307.833,256.62C307.839,256.62 311.167,258.63 312.964,255.771" style="fill:rgb(55,255,139);fill-rule:nonzero;"/>
        <path d="M306.729,250.62C306.734,250.609 303.245,251.047 304.776,254.755C304.776,254.745 308.214,254.411 306.729,250.62" style="fill:rgb(55,255,139);fill-rule:nonzero;"/>
        <path d="M293.344,217.443C293.344,217.432 290.531,219.068 293.385,222.417C293.385,222.411 296.198,220.932 293.344,217.443" style="fill:rgb(55,255,139);fill-rule:nonzero;"/>
        <path d="M286.443,212.219C286.448,212.208 282.656,212.042 283.26,215.859C283.26,215.849 286.974,216.094 286.443,212.219" style="fill:rgb(55,255,139);fill-rule:nonzero;"/>
        <path d="M302.797,253.609C302.797,253.599 299.297,254.13 300.833,257.823C300.833,257.813 304.281,257.391 302.797,253.609" style="fill:rgb(55,255,139);fill-rule:nonzero;"/>
        <path d="M308.25,262.776C308.25,262.786 306.026,259.719 302.589,261.177C302.589,261.188 304.698,264.135 308.25,262.776" style="fill:rgb(55,255,139);fill-rule:nonzero;"/>
        <path d="M305.234,265.672C305.234,265.682 303.833,262.401 299.88,263.026C299.88,263.036 301.172,266.193 305.234,265.672" style="fill:rgb(55,255,139);fill-rule:nonzero;"/>
        <path d="M298.885,271.036C298.885,271.047 297.474,267.781 293.51,268.547C293.51,268.557 294.807,271.708 298.885,271.036" style="fill:rgb(55,255,139);fill-rule:nonzero;"/>
        <path d="M305.052,272.036C305.052,272.042 303.651,268.781 299.698,269.453C299.698,269.464 300.99,272.604 305.052,272.036" style="fill:rgb(55,255,139);fill-rule:nonzero;"/>
        <path d="M310.734,264.229C310.734,264.224 306.99,263.526 307.063,267.156C307.063,267.146 310.724,267.875 310.734,264.229" style="fill:rgb(55,255,139);fill-rule:nonzero;"/>
        <path d="M311.672,270.349C311.672,270.354 308.87,267.646 306.036,269.792C306.036,269.802 308.719,272.401 311.672,270.349" style="fill:rgb(55,255,139);fill-rule:nonzero;"/>
        <path d="M310.922,259.172C310.927,259.177 307.781,256.719 305.448,259.255C305.448,259.255 308.479,261.625 310.922,259.172" style="fill:rgb(55,255,139);fill-rule:nonzero;"/>
        <path d="M288.328,261.932C288.328,261.943 286.292,258.859 282.651,260.411C282.651,260.422 284.563,263.391 288.328,261.932" style="fill:rgb(55,255,139);fill-rule:nonzero;"/>
        <path d="M292.344,260.786C292.344,260.792 290.323,257.688 286.677,259.161C286.677,259.172 288.583,262.156 292.344,260.786" style="fill:rgb(55,255,139);fill-rule:nonzero;"/>
        <path d="M295.609,258.771C295.609,258.781 293.776,255.948 290.479,257.219C290.479,257.224 292.203,259.953 295.609,258.771" style="fill:rgb(55,255,139);fill-rule:nonzero;"/>
        <path d="M296.891,255.682C296.891,255.682 294.786,254.047 293.109,255.813C293.109,255.813 295.125,257.411 296.891,255.682" style="fill:rgb(55,255,139);fill-rule:nonzero;"/>
        <path d="M288.068,251.052C288.068,251.036 283.797,252.375 286.208,256.906C286.208,256.891 290.432,255.724 288.068,251.052" style="fill:rgb(55,255,139);fill-rule:nonzero;"/>
        <path d="M291.625,249.911C291.625,249.901 288.188,250.974 290.208,254.661C290.208,254.651 293.615,253.714 291.625,249.911" style="fill:rgb(55,255,139);fill-rule:nonzero;"/>
        <path d="M283.573,252.547C283.573,252.542 280.12,253.75 282.156,257.396C282.156,257.391 285.573,256.318 283.573,252.547" style="fill:rgb(55,255,139);fill-rule:nonzero;"/>
        <path d="M268.833,227.146C268.828,227.141 266.172,229.479 269.427,232.406C269.427,232.401 272.104,230.214 268.833,227.146" style="fill:rgb(55,255,139);fill-rule:nonzero;"/>
        <path d="M261.74,234.807C261.734,234.807 259.078,237.245 262.339,240.068C262.339,240.068 265.01,237.771 261.74,234.807" style="fill:rgb(55,255,139);fill-rule:nonzero;"/>
        <path d="M271.005,221.641C271.005,221.635 267.589,224.651 271.844,228.464C271.844,228.458 275.281,225.646 271.005,221.641" style="fill:rgb(55,255,139);fill-rule:nonzero;"/>
        <path d="M272.307,234.333C272.313,234.333 276.313,237.224 279.599,233.771C279.599,233.776 275.771,230.724 272.307,234.333" style="fill:rgb(55,255,139);fill-rule:nonzero;"/>
        <path d="M262.521,257.182C262.526,257.156 269.063,256.089 267.297,249.505C267.297,249.479 260.859,250.396 262.521,257.182" style="fill:rgb(55,255,139);fill-rule:nonzero;"/>
        <path d="M291.146,239.365C291.151,239.344 297.724,241.542 299.104,235.552C299.109,235.536 292.724,233.078 291.146,239.365" style="fill:rgb(55,255,139);fill-rule:nonzero;"/>
        <path d="M296.307,233.448C296.313,233.411 302.901,234.115 301.984,227.578C301.99,227.547 295.521,226.661 296.307,233.448" style="fill:rgb(55,255,139);fill-rule:nonzero;"/>
        <path d="M293.776,253.995C293.781,253.969 300.141,253.438 298.042,246.88C298.047,246.849 291.771,247.229 293.776,253.995" style="fill:rgb(55,255,139);fill-rule:nonzero;"/>
        <path d="M304.214,250.021C304.214,250 308.891,249.859 307.349,245.005C307.354,244.99 302.745,245.021 304.214,250.021" style="fill:rgb(55,255,139);fill-rule:nonzero;"/>
        <path d="M295.771,246.135C295.776,246.12 300.484,245.813 298.932,240.938C298.932,240.917 294.286,241.115 295.771,246.135" style="fill:rgb(55,255,139);fill-rule:nonzero;"/>
        <path d="M310.458,250.271C310.464,250.24 316.026,249.26 312.844,243.078C312.849,243.042 307.323,243.922 310.458,250.271" style="fill:rgb(55,255,139);fill-rule:nonzero;"/>
        <path d="M288.01,223.953C288.01,223.932 293.026,221.448 288.578,215.661C288.578,215.641 283.568,218.031 288.01,223.953" style="fill:rgb(55,255,139);fill-rule:nonzero;"/>
        <path d="M264.516,209.083C264.516,209.068 269.219,208.359 267.807,203.609C267.813,203.589 263.177,204.198 264.516,209.083" style="fill:rgb(55,255,139);fill-rule:nonzero;"/>
        <path d="M277.042,211.516C277.042,211.516 279.318,208.099 274.505,205.167C274.5,205.172 272.172,208.453 277.042,211.516" style="fill:rgb(55,255,139);fill-rule:nonzero;"/>
        <path d="M280.203,234.25C280.208,234.229 286.833,236.161 288.219,230.01C288.224,229.99 281.781,227.802 280.203,234.25" style="fill:rgb(55,255,139);fill-rule:nonzero;"/>
        <path d="M274.729,230.057C274.729,230.057 278.432,232.786 281.479,229.635C281.479,229.635 277.938,226.771 274.729,230.057" style="fill:rgb(55,255,139);fill-rule:nonzero;"/>
        <path d="M277.307,226.286C277.307,226.286 281.365,228.62 283.766,225.078C283.766,225.078 279.865,222.599 277.307,226.286" style="fill:rgb(55,255,139);fill-rule:nonzero;"/>
        <path d="M288.76,224.458C288.76,224.443 284.297,224.411 285.198,228.943C285.198,228.927 289.578,229.057 288.76,224.458" style="fill:rgb(55,255,139);fill-rule:nonzero;"/>
        <path d="M300.031,240.151C300.036,240.12 306.531,240.948 305.557,234.536C305.563,234.505 299.188,233.5 300.031,240.151" style="fill:rgb(55,255,139);fill-rule:nonzero;"/>
        <path d="M301.76,244.099C301.766,244.083 307.995,246.422 309.135,240.813C309.141,240.797 303.089,238.208 301.76,244.099" style="fill:rgb(55,255,139);fill-rule:nonzero;"/>
        <path d="M279.255,222.552C279.255,222.547 283.313,224.927 285.708,221.427C285.714,221.427 281.813,218.901 279.255,222.552" style="fill:rgb(55,255,139);fill-rule:nonzero;"/>
        <path d="M267.786,257.375C267.786,257.37 263.938,256.568 263.146,260.349C263.151,260.349 266.891,261.188 267.786,257.375" style="fill:rgb(55,255,139);fill-rule:nonzero;"/>
        <path d="M261.771,268.063C261.771,268.057 266.292,269.146 267.505,264.755C267.505,264.745 263.109,263.531 261.771,268.063" style="fill:rgb(55,255,139);fill-rule:nonzero;"/>
        <path d="M261.953,271.625C261.953,271.625 266.396,273.354 268.443,269.094C268.443,269.089 264.146,267.229 261.953,271.625" style="fill:rgb(55,255,139);fill-rule:nonzero;"/>
        <path d="M262.344,263.885C262.344,263.88 266.219,264.813 267.234,261.052C267.234,261.047 263.469,260.01 262.344,263.885" style="fill:rgb(55,255,139);fill-rule:nonzero;"/>
        <path d="M285.141,235.979C285.141,235.974 281.609,234.125 279.849,237.359C279.849,237.354 283.26,239.167 285.141,235.979" style="fill:rgb(55,255,139);fill-rule:nonzero;"/>
        <path d="M279.005,241.167C279.01,241.167 282.464,243.182 284.573,240.141C284.573,240.141 281.255,238.016 279.005,241.167" style="fill:rgb(55,255,139);fill-rule:nonzero;"/>
        <path d="M288.354,242.505C288.354,242.505 291.792,244.63 293.891,241.714C293.896,241.714 290.594,239.484 288.354,242.505" style="fill:rgb(55,255,139);fill-rule:nonzero;"/>
        <path d="M286.75,245.172C286.75,245.172 289.917,247.594 292.505,244.995C292.505,244.995 289.479,242.474 286.75,245.172" style="fill:rgb(55,255,139);fill-rule:nonzero;"/>
        <path d="M284.813,248.396C284.818,248.396 287.984,250.786 290.573,248.146C290.573,248.146 287.547,245.661 284.813,248.396" style="fill:rgb(55,255,139);fill-rule:nonzero;"/>
        <path d="M270.906,245.667C270.906,245.672 270.771,249.073 275.172,249.667C275.172,249.672 275.422,246.328 270.906,245.667" style="fill:rgb(55,255,139);fill-rule:nonzero;"/>
        <path d="M270.458,249.776C270.458,249.786 270.297,253.823 275.526,254.505C275.526,254.521 275.818,250.536 270.458,249.776" style="fill:rgb(55,255,139);fill-rule:nonzero;"/>
        <path d="M277.906,245.438C277.906,245.432 281.667,246.807 282.932,243.318C282.938,243.313 279.292,241.833 277.906,245.438" style="fill:rgb(55,255,139);fill-rule:nonzero;"/>
        <g>
            <path d="M179.099,257.182C179.109,257.219 179.042,263.375 187.432,262.354C187.443,262.396 187.635,255.948 179.099,257.182" style="fill:rgb(55,255,139);fill-rule:nonzero;"/>
        </g>
        <path d="M200.104,227.938C200.104,227.948 194.823,233.276 199.568,238.005C199.568,238.016 204.849,232.953 200.104,227.938" style="fill:rgb(55,255,139);fill-rule:nonzero;"/>
        <path d="M292.797,223.599C292.797,223.573 287.396,226.698 292.089,233.396C292.089,233.37 297.469,230.594 292.797,223.599" style="fill:rgb(55,255,139);fill-rule:nonzero;"/>
        <path d="M271.828,207.828C271.828,207.807 266.365,211.49 271.146,217.922C271.146,217.901 276.589,214.563 271.828,207.828" style="fill:rgb(55,255,139);fill-rule:nonzero;"/>
        <path d="M210.953,216.464C210.953,216.464 207.771,219.323 210.328,222.318C210.323,222.318 213.495,219.615 210.953,216.464" style="fill:rgb(55,255,139);fill-rule:nonzero;"/>
        <path d="M211.042,213.547C211.042,213.563 210.391,217.193 214.927,217.583C214.932,217.594 215.672,213.969 211.042,213.547" style="fill:rgb(55,255,139);fill-rule:nonzero;"/>
        <path d="M216.63,209.052C216.625,209.073 212.615,214.917 218.932,218.688C218.932,218.708 223.01,213.036 216.63,209.052" style="fill:rgb(55,255,139);fill-rule:nonzero;"/>
        <path d="M184.745,242.021C184.75,242.042 185.62,246.615 192.224,244.839C192.229,244.865 191.484,240.078 184.745,242.021" style="fill:rgb(55,255,139);fill-rule:nonzero;"/>
        <path d="M209.828,249.823C209.828,249.839 209.589,254.724 215.927,254.844C215.932,254.865 216.302,249.927 209.828,249.823" style="fill:rgb(55,255,139);fill-rule:nonzero;"/>
        <path d="M205.146,217.698C205.141,217.719 200.401,223.771 206.443,227.943C206.443,227.969 211.229,222.12 205.146,217.698" style="fill:rgb(55,255,139);fill-rule:nonzero;"/>
        <path d="M180.229,265.578C180.234,265.589 182.703,270.844 190.964,267.552C190.974,267.573 188.672,261.969 180.229,265.578" style="fill:rgb(55,255,139);fill-rule:nonzero;"/>
        <path d="M189.813,255.302C189.818,255.344 186.839,261.771 194.193,264.016C194.198,264.052 197.266,257.615 189.813,255.302" style="fill:rgb(55,255,139);fill-rule:nonzero;"/>
        <path d="M213.974,259.922C213.974,259.932 215.073,263.87 220.354,262.323C220.354,262.333 219.391,258.323 213.974,259.922" style="fill:rgb(55,255,139);fill-rule:nonzero;"/>
        <path d="M214.849,230.286C214.849,230.286 210.964,233.604 214.453,236.969C214.453,236.969 218.333,233.833 214.849,230.286" style="fill:rgb(55,255,139);fill-rule:nonzero;"/>
        <path d="M211.255,268.224C211.26,268.229 209.703,263.625 203.625,265.984C203.625,265.995 204.984,270.375 211.255,268.224" style="fill:rgb(55,255,139);fill-rule:nonzero;"/>
        <path d="M211.958,227.073C211.958,227.073 208.573,229.807 211.339,232.719C211.339,232.719 214.714,230.141 211.958,227.073" style="fill:rgb(55,255,139);fill-rule:nonzero;"/>
        <path d="M218.865,222.87C218.87,222.88 217.302,219.026 212.141,221.344C212.146,221.354 213.536,225.005 218.865,222.87" style="fill:rgb(55,255,139);fill-rule:nonzero;"/>
        <path d="M221.615,227.443C221.62,227.453 220.052,223.568 214.891,225.797C214.891,225.807 216.281,229.495 221.615,227.443" style="fill:rgb(55,255,139);fill-rule:nonzero;"/>
        <path d="M224.495,230.859C224.5,230.859 223.401,228.125 219.776,229.599C219.776,229.604 220.755,232.234 224.495,230.859" style="fill:rgb(55,255,139);fill-rule:nonzero;"/>
        <path d="M227.922,229.25C227.922,229.25 230.474,227.057 227.969,224.719C227.969,224.719 225.417,226.823 227.922,229.25" style="fill:rgb(55,255,139);fill-rule:nonzero;"/>
        <path d="M232.109,247.51C232.109,247.51 234.656,245.375 232.161,242.974C232.161,242.974 229.615,245.01 232.109,247.51" style="fill:rgb(55,255,139);fill-rule:nonzero;"/>
        <path d="M275.406,258.547C275.406,258.552 275.938,255.656 272.177,254.786C272.177,254.786 271.578,257.578 275.406,258.547" style="fill:rgb(55,255,139);fill-rule:nonzero;"/>
        <path d="M227.802,234C227.802,234.005 226.708,231.245 223.078,232.661C223.078,232.667 224.052,235.323 227.802,234" style="fill:rgb(55,255,139);fill-rule:nonzero;"/>
        <path d="M223.141,223.646C223.141,223.646 225.255,221.365 222.656,219.552C222.656,219.552 220.536,221.74 223.141,223.646" style="fill:rgb(55,255,139);fill-rule:nonzero;"/>
        <path d="M225.87,236.167C225.87,236.167 227.385,238.432 230.5,236.74C230.5,236.74 229.089,234.427 225.87,236.167" style="fill:rgb(55,255,139);fill-rule:nonzero;"/>
        <path d="M225.068,226.349C225.063,226.344 227.734,224.625 225.891,222.151C225.891,222.151 223.245,223.786 225.068,226.349" style="fill:rgb(55,255,139);fill-rule:nonzero;"/>
        <path d="M205.094,243.271C205.089,243.266 200.859,245.589 202.818,249.411C202.818,249.406 207,247.271 205.094,243.271" style="fill:rgb(55,255,139);fill-rule:nonzero;"/>
        <path d="M207.177,247.333C207.177,247.328 202.943,249.594 204.901,253.453C204.896,253.448 209.083,251.365 207.177,247.333" style="fill:rgb(55,255,139);fill-rule:nonzero;"/>
        <path d="M208.021,252.078C208.021,252.078 204.979,254.464 207.411,257.12C207.411,257.12 210.443,254.865 208.021,252.078" style="fill:rgb(55,255,139);fill-rule:nonzero;"/>
        <path d="M194.88,270.057C194.88,270.057 192.938,267.646 189.354,270.203C189.359,270.198 191.156,272.547 194.88,270.057" style="fill:rgb(55,255,139);fill-rule:nonzero;"/>
        <path d="M204.547,274.052C204.547,274.052 202.594,271.521 198.99,273.953C198.99,273.953 200.797,276.417 204.547,274.052" style="fill:rgb(55,255,139);fill-rule:nonzero;"/>
        <path d="M198.313,267.469C198.313,267.474 199.917,264.25 196.156,263.313C196.156,263.318 194.5,266.401 198.313,267.469" style="fill:rgb(55,255,139);fill-rule:nonzero;"/>
        <path d="M202.234,269.099C202.234,269.109 203.844,265.896 200.073,264.88C200.073,264.891 198.411,267.964 202.234,269.099" style="fill:rgb(55,255,139);fill-rule:nonzero;"/>
        <path d="M203.339,259.771C203.339,259.776 201.563,256.339 196.797,258.906C196.797,258.906 198.401,262.198 203.339,259.771" style="fill:rgb(55,255,139);fill-rule:nonzero;"/>
        <path d="M203.391,238.99C203.391,238.99 199.854,241.115 201.672,244.255C201.672,244.25 205.177,242.276 203.391,238.99" style="fill:rgb(55,255,139);fill-rule:nonzero;"/>
        <path d="M215.688,270.828C215.693,270.828 213.724,268.385 210.339,270.698C210.344,270.698 212.172,273.078 215.688,270.828" style="fill:rgb(55,255,139);fill-rule:nonzero;"/>
        <path d="M215.339,294.057C215.339,294.057 213.38,291.578 210.005,293.807C210.005,293.807 211.833,296.229 215.339,294.057" style="fill:rgb(55,255,139);fill-rule:nonzero;"/>
        <path d="M189.865,251.521C189.865,251.531 190.38,254.688 194.714,253.323C194.714,253.333 194.297,250.109 189.865,251.521" style="fill:rgb(55,255,139);fill-rule:nonzero;"/>
        <path d="M210.719,222.854C210.719,222.849 206.911,224.901 208.635,228.349C208.635,228.344 212.396,226.458 210.719,222.854" style="fill:rgb(55,255,139);fill-rule:nonzero;"/>
        <path d="M235.432,271.849C235.432,271.849 232.401,268.99 228.589,272.203C228.589,272.203 231.453,274.99 235.432,271.849" style="fill:rgb(55,255,139);fill-rule:nonzero;"/>
        <path d="M216.609,277.365C216.609,277.365 213.161,279.656 215.625,282.865C215.625,282.865 219.047,280.719 216.609,277.365" style="fill:rgb(55,255,139);fill-rule:nonzero;"/>
        <path d="M220.411,278.464C220.411,278.464 217.75,280.203 219.651,282.708C219.646,282.708 222.292,281.078 220.411,278.464" style="fill:rgb(55,255,139);fill-rule:nonzero;"/>
        <path d="M246.234,255.068C246.234,255.063 242.396,256.505 244.104,260.323C244.104,260.313 247.896,259.016 246.234,255.068" style="fill:rgb(55,255,139);fill-rule:nonzero;"/>
        <path d="M211.427,256.359C211.427,256.359 212.828,259.349 216.953,257.547C216.953,257.547 215.672,254.5 211.427,256.359" style="fill:rgb(55,255,139);fill-rule:nonzero;"/>
        <path d="M218.495,264.51C218.495,264.516 220.354,268.458 225.698,266.26C225.703,266.271 224,262.234 218.495,264.51" style="fill:rgb(55,255,139);fill-rule:nonzero;"/>
        <path d="M223.448,268.677C223.448,268.682 226.01,272.333 230.984,269.552C230.99,269.563 228.594,265.807 223.448,268.677" style="fill:rgb(55,255,139);fill-rule:nonzero;"/>
        <path d="M235.76,267.417C235.76,267.417 239.229,264.229 235.396,260.891C235.391,260.891 231.922,263.943 235.76,267.417" style="fill:rgb(55,255,139);fill-rule:nonzero;"/>
        <path d="M230.406,264.906C230.406,264.911 233.464,261.323 229.182,258.505C229.182,258.51 226.099,261.943 230.406,264.906" style="fill:rgb(55,255,139);fill-rule:nonzero;"/>
        <path d="M225.542,261.557C225.542,261.563 228.406,258.375 224.667,255.792C224.667,255.797 221.786,258.844 225.542,261.557" style="fill:rgb(55,255,139);fill-rule:nonzero;"/>
        <path d="M220.927,258.276C220.927,258.286 223.604,254.932 219.703,252.63C219.703,252.635 217,255.844 220.927,258.276" style="fill:rgb(55,255,139);fill-rule:nonzero;"/>
        <path d="M228.479,245.932C228.479,245.938 231.964,242.073 227.411,238.932C227.411,238.938 223.911,242.641 228.479,245.932" style="fill:rgb(55,255,139);fill-rule:nonzero;"/>
        <path d="M222.818,242.583C222.813,242.589 226.563,239.115 222.635,235.76C222.635,235.76 218.891,239.094 222.818,242.583" style="fill:rgb(55,255,139);fill-rule:nonzero;"/>
        <path d="M218.214,239.422C218.214,239.422 221.964,236.516 218.859,233.146C218.859,233.146 215.125,235.927 218.214,239.422" style="fill:rgb(55,255,139);fill-rule:nonzero;"/>
        <path d="M305.583,273.516C305.583,273.531 307.214,278.031 301.568,278.234C301.563,278.255 299.849,273.74 305.583,273.516" style="fill:rgb(55,255,139);fill-rule:nonzero;"/>
        <path d="M310.542,272.88C310.536,272.891 312.094,276.677 307.438,276.927C307.438,276.938 305.813,273.161 310.542,272.88" style="fill:rgb(55,255,139);fill-rule:nonzero;"/>
        <path d="M314.542,270.984C314.542,270.995 316.99,274.599 313,275.729C313,275.74 310.516,272.198 314.542,270.984" style="fill:rgb(55,255,139);fill-rule:nonzero;"/>
        <path d="M282.188,275.906C282.188,275.922 281.464,270.958 287.818,271.474C287.818,271.49 288.677,276.219 282.188,275.906" style="fill:rgb(55,255,139);fill-rule:nonzero;"/>
        <path d="M289.771,277.516C289.766,277.531 288.49,272.76 294.443,272.802C294.443,272.823 295.833,277.359 289.771,277.516" style="fill:rgb(55,255,139);fill-rule:nonzero;"/>
        <path d="M296.286,278.016C296.286,278.031 294.583,273.719 299.802,273.307C299.802,273.323 301.589,277.432 296.286,278.016" style="fill:rgb(55,255,139);fill-rule:nonzero;"/>
        <path d="M222.948,253.99C222.953,253.979 227.344,256.661 231.333,252.094C231.333,252.089 227.115,249.245 222.948,253.99" style="fill:rgb(55,255,139);fill-rule:nonzero;"/>
        <path d="M217.073,251.141C217.073,251.135 221.458,253.698 225.438,249.047C225.438,249.042 221.224,246.313 217.073,251.141" style="fill:rgb(55,255,139);fill-rule:nonzero;"/>
        <path d="M199.188,262.719C199.188,262.719 201.469,266.109 206.427,263.198C206.427,263.198 204.292,259.688 199.188,262.719" style="fill:rgb(55,255,139);fill-rule:nonzero;"/>
        <path d="M192.828,272.62C192.828,272.609 195.974,275.307 200.255,271.599C200.26,271.594 197.26,268.786 192.828,272.62" style="fill:rgb(55,255,139);fill-rule:nonzero;"/>
        <g>
            <path d="M179.234,272.026C179.234,272.016 182.339,274.464 186.578,270.609C186.578,270.599 183.615,268.031 179.234,272.026" style="fill:rgb(55,255,139);fill-rule:nonzero;"/>
        </g>
        <path d="M213.688,247.656C213.688,247.651 217.042,249.547 220.083,245.927C220.083,245.922 216.859,243.922 213.688,247.656" style="fill:rgb(55,255,139);fill-rule:nonzero;"/>
        <path d="M208.953,243.839C208.953,243.839 211.615,246.51 215.651,243.401C215.651,243.401 213.12,240.609 208.953,243.839" style="fill:rgb(55,255,139);fill-rule:nonzero;"/>
        <path d="M201.906,284.901C201.906,284.911 201.146,289.229 206.635,289.417C206.635,289.427 207.5,285.115 201.906,284.901" style="fill:rgb(55,255,139);fill-rule:nonzero;"/>
        <path d="M222.75,288.115C222.75,288.12 223.542,284.427 218.969,283.953C218.969,283.964 218.089,287.5 222.75,288.115" style="fill:rgb(55,255,139);fill-rule:nonzero;"/>
        <path d="M204.396,291.75C204.401,291.745 201.505,289.625 198.318,292.844C198.318,292.839 201.057,294.948 204.396,291.75" style="fill:rgb(55,255,139);fill-rule:nonzero;"/>
        <path d="M229.995,285.005C229.99,285.01 231.63,282.302 228.339,280.818C228.339,280.818 226.661,283.417 229.995,285.005" style="fill:rgb(55,255,139);fill-rule:nonzero;"/>
        <path d="M218.063,289.109C218.063,289.12 218.979,284.87 213.724,284.391C213.724,284.401 212.708,288.464 218.063,289.109" style="fill:rgb(55,255,139);fill-rule:nonzero;"/>
        <path d="M212.589,289.656C212.589,289.667 213.474,285.536 208.37,285.156C208.37,285.167 207.385,289.109 212.589,289.656" style="fill:rgb(55,255,139);fill-rule:nonzero;"/>
        <path d="M223.62,282.188C223.62,282.198 222.62,285.667 226.958,286.453C226.958,286.458 228.036,283.042 223.62,282.188" style="fill:rgb(55,255,139);fill-rule:nonzero;"/>
        <path d="M195.37,253.5C195.375,253.516 195.792,257.839 201.609,256.469C201.615,256.484 201.318,252.057 195.37,253.5" style="fill:rgb(55,255,139);fill-rule:nonzero;"/>
        <path d="M194.313,249.13C194.318,249.146 194.87,253.172 200.344,251.656C200.344,251.667 199.906,247.542 194.313,249.13" style="fill:rgb(55,255,139);fill-rule:nonzero;"/>
        <path d="M193.693,244.594C193.693,244.604 194.193,248.219 199.109,246.797C199.115,246.807 198.719,243.115 193.693,244.594" style="fill:rgb(55,255,139);fill-rule:nonzero;"/>
        <path d="M195.255,238.833C195.255,238.839 194.318,241.854 197.99,242.031C197.99,242.042 198.984,239.042 195.255,238.833" style="fill:rgb(55,255,139);fill-rule:nonzero;"/>
        <path d="M182.516,248.49C182.521,248.495 183.432,250.99 187.089,249.219C187.089,249.219 186.266,246.656 182.516,248.49" style="fill:rgb(55,255,139);fill-rule:nonzero;"/>
        <path d="M205.583,240.62C205.583,240.615 208.245,243.229 212.271,240.057C212.271,240.057 209.745,237.318 205.583,240.62" style="fill:rgb(55,255,139);fill-rule:nonzero;"/>
        <path d="M203.474,235.594C203.479,235.604 204.578,239.083 209.422,237.25C209.427,237.26 208.443,233.682 203.474,235.594" style="fill:rgb(55,255,139);fill-rule:nonzero;"/>
        <path d="M188.781,234.74C188.786,234.766 186.578,240.156 192.953,240.818C192.958,240.849 195.245,235.432 188.781,234.74" style="fill:rgb(55,255,139);fill-rule:nonzero;"/>
        <path d="M193.844,228.672C193.844,228.688 190.651,233.021 195.255,235.078C195.255,235.094 198.479,230.87 193.844,228.672" style="fill:rgb(55,255,139);fill-rule:nonzero;"/>
        <path d="M202.875,231.375C202.875,231.385 203.406,234.302 207.365,233.115C207.37,233.12 206.932,230.151 202.875,231.375" style="fill:rgb(55,255,139);fill-rule:nonzero;"/>
        <path d="M279.849,286.661C279.844,286.661 280.979,283.844 285.448,285.464C285.448,285.464 284.448,288.188 279.849,286.661" style="fill:rgb(55,255,139);fill-rule:nonzero;"/>
        <path d="M283.276,290.161C283.276,290.167 283.245,287.094 287.917,287.38C287.911,287.385 288.052,290.318 283.276,290.161" style="fill:rgb(55,255,139);fill-rule:nonzero;"/>
        <path d="M287.922,290.938C287.922,290.948 287.224,287.891 291.76,287.427C291.76,287.432 292.552,290.344 287.922,290.938" style="fill:rgb(55,255,139);fill-rule:nonzero;"/>
        <path d="M292.745,291.365C292.745,291.375 291.552,288.396 295.875,287.396C295.875,287.406 297.141,290.229 292.745,291.365" style="fill:rgb(55,255,139);fill-rule:nonzero;"/>
        <path d="M297.443,290.75C297.443,290.76 296.635,287.734 301.115,287.271C301.115,287.281 302.01,290.156 297.443,290.75" style="fill:rgb(55,255,139);fill-rule:nonzero;"/>
        <path d="M301.979,291.156C301.979,291.172 301.578,287.422 307.255,287.667C307.255,287.682 307.786,291.219 301.979,291.156" style="fill:rgb(55,255,139);fill-rule:nonzero;"/>
        <path d="M290.724,300.469C290.724,300.453 295.141,298.125 299.552,303.594C299.547,303.578 295.359,305.958 290.724,300.469" style="fill:rgb(55,255,139);fill-rule:nonzero;"/>
        <path d="M275.891,285.641C275.891,285.646 274.083,282.193 278.016,279.63C278.021,279.641 279.875,282.922 275.891,285.641" style="fill:rgb(55,255,139);fill-rule:nonzero;"/>
        <path d="M272.333,287.75C272.333,287.755 269.688,285.073 272.635,281.161C272.635,281.161 275.286,283.688 272.333,287.75" style="fill:rgb(55,255,139);fill-rule:nonzero;"/>
        <path d="M289.203,285.036C289.208,285.026 284.224,285.068 284.49,279.974C284.49,279.958 289.365,279.844 289.203,285.036" style="fill:rgb(55,255,139);fill-rule:nonzero;"/>
        <path d="M295.427,285.542C295.427,285.531 290.458,285.484 290.729,280.438C290.729,280.422 295.589,280.406 295.427,285.542" style="fill:rgb(55,255,139);fill-rule:nonzero;"/>
        <g>
            <clipPath id="_clip6">
                <rect x="316.052" y="271.719" width="4.906" height="4.188"/>
            </clipPath>
            <g clip-path="url(#_clip6)">
                <path d="M320.781,271.979C320.781,272 322.281,276.203 316.594,275.646C316.589,275.667 315.005,271.406 320.781,271.979" style="fill:rgb(55,255,139);fill-rule:nonzero;"/>
            </g>
        </g>
        <path d="M319.604,264.323C319.594,264.354 320.349,269.932 312.604,267.87C312.599,267.901 311.724,262.115 319.604,264.323" style="fill:rgb(55,255,139);fill-rule:nonzero;"/>
        <path d="M300.292,285.219C300.292,285.214 296.5,285.109 296.703,281.281C296.708,281.271 300.417,281.323 300.292,285.219" style="fill:rgb(55,255,139);fill-rule:nonzero;"/>
        <path d="M306.464,283.99C306.464,283.979 302.609,284.677 301.688,280.839C301.693,280.828 305.438,280.083 306.464,283.99" style="fill:rgb(55,255,139);fill-rule:nonzero;"/>
        <path d="M311.234,283.286C311.234,283.276 307.391,283.896 306.474,280.073C306.479,280.063 310.214,279.401 311.234,283.286" style="fill:rgb(55,255,139);fill-rule:nonzero;"/>
        <path d="M316.266,280.979C316.266,280.969 313.026,282.734 310.531,279.479C310.531,279.469 313.651,277.656 316.266,280.979" style="fill:rgb(55,255,139);fill-rule:nonzero;"/>
        <path d="M295.031,297.479C295.031,297.474 291.036,298.089 290.516,294.208C290.516,294.198 294.411,293.536 295.031,297.479" style="fill:rgb(55,255,139);fill-rule:nonzero;"/>
        <path d="M290.974,303.964C290.974,303.958 286.854,304.125 286.974,300.255C286.974,300.25 291.005,300.026 290.974,303.964" style="fill:rgb(55,255,139);fill-rule:nonzero;"/>
        <path d="M284.906,302.76C284.906,302.755 280.859,301.625 282.583,298.141C282.583,298.141 286.578,299.193 284.906,302.76" style="fill:rgb(55,255,139);fill-rule:nonzero;"/>
        <path d="M279.688,300.599C279.693,300.599 276.234,298.333 279.281,295.661C279.281,295.667 282.724,297.823 279.688,300.599" style="fill:rgb(55,255,139);fill-rule:nonzero;"/>
        <path d="M274.391,298.224C274.391,298.229 272.505,294.823 276.755,293.875C276.755,293.885 278.693,297.161 274.391,298.224" style="fill:rgb(55,255,139);fill-rule:nonzero;"/>
        <path d="M290.349,297.01C290.349,297 286.349,297.667 285.823,293.766C285.823,293.76 289.724,293.042 290.349,297.01" style="fill:rgb(55,255,139);fill-rule:nonzero;"/>
        <path d="M299.974,296.865C299.974,296.854 295.99,297.406 295.469,293.547C295.469,293.536 299.354,292.943 299.974,296.865" style="fill:rgb(55,255,139);fill-rule:nonzero;"/>
        <path d="M305.375,294.615C305.375,294.604 301.865,296.333 299.672,293.026C299.672,293.021 303.057,291.245 305.375,294.615" style="fill:rgb(55,255,139);fill-rule:nonzero;"/>
        <path d="M319.573,278.635C319.573,278.63 317.172,280.208 314.891,277.755C314.891,277.75 317.193,276.125 319.573,278.635" style="fill:rgb(55,255,139);fill-rule:nonzero;"/>
        <path d="M180.885,275.26C180.885,275.245 184.781,279.38 191.448,274.422C191.448,274.417 187.734,270.042 180.885,275.26" style="fill:rgb(55,255,139);fill-rule:nonzero;"/>
        <path d="M192.302,288.833C192.302,288.823 195.531,292.745 201.328,288.896C201.328,288.891 198.276,284.839 192.302,288.833" style="fill:rgb(55,255,139);fill-rule:nonzero;"/>
        <path d="M199.266,296.26C199.266,296.25 202.964,299.708 208.042,295.604C208.042,295.599 204.526,292.031 199.266,296.26" style="fill:rgb(55,255,139);fill-rule:nonzero;"/>
        <path d="M196.62,282.516C196.62,282.5 201.333,282.734 202.557,277.943C202.557,277.927 197.969,277.615 196.62,282.516" style="fill:rgb(55,255,139);fill-rule:nonzero;"/>
        <path d="M209.974,282.828C209.974,282.818 214.635,281.141 213.161,276.651C213.156,276.646 208.568,278.219 209.974,282.828" style="fill:rgb(55,255,139);fill-rule:nonzero;"/>
        <path d="M203.229,283.833C203.229,283.823 208.651,283.036 207.802,277.901C207.802,277.891 202.484,278.599 203.229,283.833" style="fill:rgb(55,255,139);fill-rule:nonzero;"/>
        <path d="M191.5,280.042C191.5,280.031 195.083,281.604 197.948,277.682C197.948,277.672 194.5,276.021 191.5,280.042" style="fill:rgb(55,255,139);fill-rule:nonzero;"/>
        <path d="M188.229,278.068C188.229,278.063 190.88,279.547 193.49,276.542C193.49,276.536 190.948,274.99 188.229,278.068" style="fill:rgb(55,255,139);fill-rule:nonzero;"/>
        <path d="M205.422,299.068C205.422,299.063 208.094,300.823 210.724,297.969C210.724,297.964 208.167,296.156 205.422,299.068" style="fill:rgb(55,255,139);fill-rule:nonzero;"/>
        <path d="M222.438,300.375C222.438,300.375 226.833,298.266 224.531,293.979C224.531,293.979 220.188,295.964 222.438,300.375" style="fill:rgb(55,255,139);fill-rule:nonzero;"/>
        <path d="M229.286,298.203C229.286,298.203 233.5,294.922 229.151,291.37C229.151,291.375 224.938,294.505 229.286,298.203" style="fill:rgb(55,255,139);fill-rule:nonzero;"/>
        <path d="M216.005,300.922C216.005,300.917 220.411,300.411 220.208,296.026C220.208,296.021 215.896,296.438 216.005,300.922" style="fill:rgb(55,255,139);fill-rule:nonzero;"/>
        <path d="M211.552,300.974C211.552,300.969 215.089,300.844 215.328,297.313C215.328,297.307 211.885,297.359 211.552,300.974" style="fill:rgb(55,255,139);fill-rule:nonzero;"/>
        <g transform="matrix(1,0,0,1,168.145,161.622)">
            <g>
                <g>
                    <path d="M7.813,-27L7.813,-17.604L22.854,-17.604L22.854,-13.937L7.813,-13.937L7.813,0L3.667,0L3.667,-30.687L24.917,-30.687L24.917,-27L7.813,-27Z" style="fill:white;fill-rule:nonzero;"/>
                </g>
            </g>
        </g>
        <g transform="matrix(1,0,0,1,195.186,161.622)">
            <g>
                <g>
                    <path d="M15.292,-2.854C17.833,-2.854 19.813,-3.583 21.229,-5.042C22.656,-6.5 23.375,-8.521 23.375,-11.104L23.375,-30.687L27.521,-30.687L27.521,-10.854C27.521,-8.573 27.047,-6.562 26.104,-4.812C25.156,-3.062 23.76,-1.687 21.917,-0.687C20.068,0.313 17.818,0.813 15.167,0.813C12.693,0.813 10.568,0.344 8.792,-0.583C7.026,-1.526 5.677,-2.833 4.75,-4.5C3.833,-6.167 3.375,-8.083 3.375,-10.25L3.375,-30.687L7.521,-30.687L7.521,-11.187C7.521,-8.573 8.188,-6.531 9.521,-5.062C10.865,-3.589 12.792,-2.854 15.292,-2.854Z" style="fill:white;fill-rule:nonzero;"/>
                </g>
            </g>
        </g>
        <g transform="matrix(1,0,0,1,226.969,161.622)">
            <g>
                <g>
                    <path d="M15.125,-27L15.125,0L10.979,0L10.979,-27L0.604,-27L0.604,-30.687L25.5,-30.687L25.5,-27L15.125,-27Z" style="fill:white;fill-rule:nonzero;"/>
                </g>
            </g>
        </g>
        <g transform="matrix(1,0,0,1,254.01,161.622)">
            <g>
                <g>
                    <path d="M25.646,-21.708L21.75,-21.708C21.667,-23.667 20.943,-25.193 19.583,-26.292C18.234,-27.385 16.422,-27.937 14.146,-27.937C11.922,-27.937 10.198,-27.469 8.979,-26.542C7.755,-25.625 7.146,-24.297 7.146,-22.562C7.146,-20.505 8.354,-19.208 10.771,-18.667L19.354,-16.708C24.115,-15.625 26.5,-12.844 26.5,-8.375C26.5,-5.359 25.375,-3.073 23.125,-1.521C20.875,0.031 17.979,0.813 14.438,0.813C10.448,0.813 7.396,-0.089 5.271,-1.896C3.146,-3.714 2.083,-6.385 2.083,-9.917L5.979,-9.917L5.979,-9.833C5.979,-7.609 6.74,-5.865 8.271,-4.604C9.797,-3.354 11.854,-2.729 14.438,-2.729C16.714,-2.729 18.625,-3.13 20.167,-3.937C21.708,-4.755 22.479,-6.089 22.479,-7.937C22.479,-9.146 22.214,-10.083 21.688,-10.75C21.156,-11.417 20.38,-11.937 19.354,-12.312C18.323,-12.698 16.755,-13.135 14.646,-13.625L9.479,-14.833C7.313,-15.318 5.708,-16.193 4.667,-17.458C3.635,-18.719 3.125,-20.234 3.125,-22C3.125,-23.885 3.542,-25.542 4.375,-26.958C5.219,-28.385 6.427,-29.5 8,-30.292C9.583,-31.094 11.469,-31.5 13.667,-31.5C21.385,-31.5 25.38,-28.234 25.646,-21.708Z" style="fill:white;fill-rule:nonzero;"/>
                </g>
            </g>
        </g>
        <g transform="matrix(1,0,0,1,283.443,161.622)">
            <g>
                <g>
                    <rect x="3.896" y="-30.687" width="4.146" height="30.688" style="fill:white;fill-rule:nonzero;"/>
                </g>
            </g>
        </g>
        <g transform="matrix(1,0,0,1,296.259,161.622)">
            <g>
                <g>
                    <path d="M17.896,-4.75L26.625,-30.687L32.521,-30.687L32.521,0L28.5,0L28.5,-18.292L28.542,-24.021C28.568,-24.38 28.583,-24.964 28.583,-25.771L28.5,-25.771L19.875,0L15.771,0L7.146,-25.729L7.042,-25.729C7.109,-22.589 7.146,-20.109 7.146,-18.292L7.146,0L3.125,0L3.125,-30.687L9.063,-30.687L17.813,-4.75L17.896,-4.75Z" style="fill:white;fill-rule:nonzero;"/>
                </g>
            </g>
        </g>
        <g transform="matrix(0.75,0,0,0.75,140.752,170.316)">
            <path d="M-0.002,3.335L291.331,3.335" style="fill:none;fill-rule:nonzero;stroke:rgb(55,255,139);stroke-width:6.67px;"/>
        </g>
        <g transform="matrix(1,0,0,1,164.514,206.934)">
            <g>
                <g>
                    <path d="M7.813,-8.458C9.198,-10.234 10,-11.63 10.208,-12.646C10.26,-12.979 10.292,-13.292 10.292,-13.583C10.292,-14.26 10.031,-14.812 9.521,-15.229C9.005,-15.646 8.26,-15.854 7.292,-15.854C6.375,-15.854 5.427,-15.609 4.458,-15.125C3.568,-14.677 2.938,-14.177 2.563,-13.625L2.375,-13.583L2.479,-17.812C3.313,-18.354 4.469,-18.75 5.958,-19C6.417,-19.083 6.854,-19.125 7.271,-19.125C9.646,-19.125 11.417,-18.552 12.583,-17.417C13.583,-16.458 14.083,-15.187 14.083,-13.604C14.083,-12.505 13.74,-11.333 13.063,-10.083C12.479,-9.026 11.714,-7.885 10.771,-6.667L8,-3.25L12.563,-3.25C13.188,-3.25 13.672,-3.271 14.021,-3.312C14.38,-3.365 14.688,-3.49 14.938,-3.687L15.021,-3.646L14,0.208L12.458,0.125C9.792,-0.026 6.026,-0.031 1.167,0.104L7.813,-8.458Z" style="fill:white;fill-rule:nonzero;"/>
                </g>
            </g>
        </g>
        <g transform="matrix(1,0,0,1,182.819,206.934)">
            <g>
                <g>
                    <path d="M1.5,-9.125C1.5,-10.542 1.708,-11.859 2.125,-13.083C2.542,-14.318 3.125,-15.385 3.875,-16.292C5.484,-18.177 7.521,-19.125 9.979,-19.125C12.339,-19.125 14.234,-18.234 15.667,-16.458C17.042,-14.719 17.729,-12.427 17.729,-9.583C17.729,-6.359 16.896,-3.854 15.229,-2.062C13.729,-0.448 11.802,0.354 9.458,0.354C7.193,0.354 5.302,-0.521 3.792,-2.271C2.26,-4.047 1.5,-6.333 1.5,-9.125ZM6.438,-4.646C6.854,-4.115 7.344,-3.698 7.917,-3.396C8.484,-3.104 9.068,-2.958 9.667,-2.958C10.26,-2.958 10.818,-3.089 11.333,-3.354C11.859,-3.615 12.333,-4.01 12.75,-4.542C13.677,-5.75 14.146,-7.323 14.146,-9.271C14.146,-11.271 13.75,-12.865 12.958,-14.062C12.151,-15.229 11.068,-15.812 9.708,-15.812C8.333,-15.812 7.219,-15.198 6.375,-13.979C5.51,-12.74 5.083,-11.151 5.083,-9.208C5.083,-7.333 5.531,-5.812 6.438,-4.646Z" style="fill:white;fill-rule:nonzero;"/>
                </g>
            </g>
        </g>
        <g transform="matrix(1,0,0,1,300.897,206.934)">
            <g>
                <g>
                    <path d="M7.813,-8.458C9.198,-10.234 10,-11.63 10.208,-12.646C10.26,-12.979 10.292,-13.292 10.292,-13.583C10.292,-14.26 10.031,-14.812 9.521,-15.229C9.005,-15.646 8.26,-15.854 7.292,-15.854C6.375,-15.854 5.427,-15.609 4.458,-15.125C3.568,-14.677 2.938,-14.177 2.563,-13.625L2.375,-13.583L2.479,-17.812C3.313,-18.354 4.469,-18.75 5.958,-19C6.417,-19.083 6.854,-19.125 7.271,-19.125C9.646,-19.125 11.417,-18.552 12.583,-17.417C13.583,-16.458 14.083,-15.187 14.083,-13.604C14.083,-12.505 13.74,-11.333 13.063,-10.083C12.479,-9.026 11.714,-7.885 10.771,-6.667L8,-3.25L12.563,-3.25C13.188,-3.25 13.672,-3.271 14.021,-3.312C14.38,-3.365 14.688,-3.49 14.938,-3.687L15.021,-3.646L14,0.208L12.458,0.125C9.792,-0.026 6.026,-0.031 1.167,0.104L7.813,-8.458Z" style="fill:white;fill-rule:nonzero;"/>
                </g>
            </g>
        </g>
        <g transform="matrix(1,0,0,1,319.202,206.934)">
            <g>
                <g>
                    <path d="M13,-7.937C14.427,-7.937 15.615,-8.062 16.563,-8.312L16.625,-8.208L15.604,-4.937L13,-4.937L13,0L9.417,0L9.417,-4.937L0.729,-4.937L0.667,-5.979L8.458,-18.729L13,-18.771L13,-7.937ZM9.417,-7.937L9.417,-14.625L5.563,-7.937L9.417,-7.937Z" style="fill:white;fill-rule:nonzero;"/>
                </g>
            </g>
        </g>
    </g>
</svg>
